thincompressed.ufo
<glyph name="exclam" format="1">
  <advance width="290"/>
  <unicode hex="0021"/>
  <outline>
    <contour>
      <point x="117" y="19"/>
      <point x="88" y="19"/>
      <point x="117" y="19" type="curve"/>
      <point x="117" y="28"/>
      <point x="111" y="33"/>
      <point x="102" y="33" type="curve"/>
      <point x="93" y="33"/>
      <point x="88" y="27"/>
      <point x="88" y="19" type="curve"/>
      <point x="117" y="19"/>
      <point x="88" y="19"/>
      <point x="117" y="19" type="curve"/>
      <point x="117" y="10"/>
      <point x="111" y="5"/>
      <point x="102" y="5" type="curve"/>
      <point x="93" y="5"/>
      <point x="88" y="10"/>
      <point x="88" y="19" type="curve"/>
    </contour>
    <contour>
      <point x="113.6" y="229.0"/>
      <point x="89.4" y="229.0"/>
      <point x="113.6" y="229.0" type="curve"/>
      <point x="113.6" y="393.33169"/>
      <point x="113.6" y="557.66831"/>
      <point x="113.6" y="722.0" type="curve"/>
      <point x="89.4" y="722.0"/>
      <point x="113.6" y="722.0"/>
      <point x="89.4" y="722.0" type="curve"/>
      <point x="89.4" y="557.66831"/>
      <point x="89.4" y="393.33169"/>
      <point x="89.4" y="229.0" type="curve"/>
    </contour>
  </outline>
</glyph>
<glyph name="quotedbl" format="1">
  <advance width="318"/>
  <unicode hex="0022"/>
  <outline>
    <contour>
      <point x="114.0" y="534.0"/>
      <point x="90.0" y="534.0"/>
      <point x="114.0" y="534.0" type="curve"/>
      <point x="114.0" y="597.0"/>
      <point x="114.0" y="659.0"/>
      <point x="114.0" y="722.0" type="curve"/>
      <point x="90.0" y="722.0"/>
      <point x="114.0" y="722.0"/>
      <point x="90.0" y="722.0" type="curve"/>
      <point x="90.0" y="659.0"/>
      <point x="90.0" y="597.0"/>
      <point x="90.0" y="534.0" type="curve"/>
    </contour>
    <contour>
      <point x="244.0" y="534.0"/>
      <point x="221.0" y="534.0"/>
      <point x="244.0" y="534.0" type="curve"/>
      <point x="244.0" y="597.0"/>
      <point x="244.0" y="659.0"/>
      <point x="244.0" y="722.0" type="curve"/>
      <point x="221.0" y="722.0"/>
      <point x="244.0" y="722.0"/>
      <point x="221.0" y="722.0" type="curve"/>
      <point x="221.0" y="659.0"/>
      <point x="221.0" y="597.0"/>
      <point x="221.0" y="534.0" type="curve"/>
    </contour>
  </outline>
</glyph>
<glyph name="numbersign" format="1">
  <advance width="477"/>
  <unicode hex="0023"/>
  <outline>
    <contour>
      <point x="24.0" y="247.0"/>
      <point x="29.0" y="269.0"/>
      <point x="24.0" y="247.0" type="curve"/>
      <point x="137.0" y="247.0"/>
      <point x="260.0" y="247.0"/>
      <point x="375.0" y="247.0" type="curve"/>
      <point x="380.0" y="269.0"/>
      <point x="375.0" y="247.0"/>
      <point x="380.0" y="269.0" type="curve"/>
      <point x="267.0" y="269.0"/>
      <point x="144.0" y="269.0"/>
      <point x="29.0" y="269.0" type="curve"/>
    </contour>
    <contour>
      <point x="75.0" y="492.0"/>
      <point x="80.0" y="513.0"/>
      <point x="75.0" y="492.0" type="curve"/>
      <point x="188.0" y="492.0"/>
      <point x="311.0" y="492.0"/>
      <point x="426.0" y="492.0" type="curve"/>
      <point x="431.0" y="513.0"/>
      <point x="426.0" y="492.0"/>
      <point x="431.0" y="513.0" type="curve"/>
      <point x="318.0" y="513.0"/>
      <point x="195.0" y="513.0"/>
      <point x="80.0" y="513.0" type="curve"/>
    </contour>
    <contour>
      <point x="266.0" y="39.0"/>
      <point x="242.0" y="39.0"/>
      <point x="266.0" y="39.0" type="curve"/>
      <point x="266.0" y="39.0"/>
      <point x="418.0" y="722.0"/>
      <point x="418.0" y="722.0" type="curve"/>
      <point x="394.0" y="722.0"/>
      <point x="418.0" y="722.0"/>
      <point x="394.0" y="722.0" type="curve"/>
      <point x="394.0" y="722.0"/>
      <point x="242.0" y="39.0"/>
      <point x="242.0" y="39.0" type="curve"/>
    </contour>
    <contour>
      <point x="70.0" y="46.0"/>
      <point x="47.0" y="46.0"/>
      <point x="70.0" y="46.0" type="curve"/>
      <point x="70.0" y="46.0"/>
      <point x="219.0" y="722.0"/>
      <point x="219.0" y="722.0" type="curve"/>
      <point x="195.0" y="722.0"/>
      <point x="219.0" y="722.0"/>
      <point x="195.0" y="722.0" type="curve"/>
      <point x="195.0" y="722.0"/>
      <point x="47.0" y="46.0"/>
      <point x="47.0" y="46.0" type="curve"/>
    </contour>
  </outline>
</glyph>
<glyph name="ampersand" format="1">
  <advance width="644"/>
  <unicode hex="0026"/>
  <outline>
    <contour>
      <point x="450.0" y="2.22932783345e-13"/>
      <point x="415.0" y="2.24820162487e-13"/>
      <point x="447.0" y="2.22932783345e-13" type="curve"/>
      <point x="366.0" y="116.0"/>
      <point x="289.0" y="232.0"/>
      <point x="208.0" y="349.0" type="curve"/>
      <point x="161.0" y="423.0"/>
      <point x="107.3" y="487.087798989"/>
      <point x="107.3" y="576.52" type="curve"/>
      <point x="107.3" y="644.9603143"/>
      <point x="129.0" y="705.0"/>
      <point x="184.6" y="705.44" type="curve"/>
      <point x="244.0" y="705.0"/>
      <point x="272.1" y="647.577675448"/>
      <point x="272.1" y="578.515555556" type="curve"/>
      <point x="272.224343652" y="495.185288557"/>
      <point x="228.865095554" y="439.851437847"/>
      <point x="163.4" y="386.586222222" type="curve"/>
      <point x="91.330126215" y="326.47313755"/>
      <point x="35.5" y="270.239372523"/>
      <point x="35.5" y="177.408888889" type="curve"/>
      <point x="35.5" y="74.9925486523"/>
      <point x="85.9683561781" y="-5.0"/>
      <point x="181.1" y="-5.0" type="curve"/>
      <point x="338.610714958" y="-5.0"/>
      <point x="380.262912537" y="150.116497106"/>
      <point x="416.1" y="317.895" type="curve"/>
      <point x="395.2" y="323.285"/>
      <point x="416.1" y="317.895"/>
      <point x="395.2" y="323.285" type="curve"/>
      <point x="360.755080742" y="166.383804582"/>
      <point x="329.786623939" y="16.56"/>
      <point x="182.2" y="16.56" type="curve"/>
      <point x="102.0" y="17.0"/>
      <point x="59.7" y="87.9107892055"/>
      <point x="59.7" y="177.408888889" type="curve"/>
      <point x="59.7" y="261.747974876"/>
      <point x="107.801559465" y="314.615258243"/>
      <point x="173.3" y="369.338222222" type="curve"/>
      <point x="244.414259936" y="428.738436807"/>
      <point x="295.554837526" y="486.781679026"/>
      <point x="296.3" y="578.515555556" type="curve"/>
      <point x="296.3" y="661.358771671"/>
      <point x="260.48797436" y="727.0"/>
      <point x="185.7" y="727.0" type="curve"/>
      <point x="112.386029424" y="727.0"/>
      <point x="83.1" y="658.675834889"/>
      <point x="83.1" y="576.52" type="curve"/>
      <point x="83.1" y="481.660283304"/>
      <point x="137.42687627" y="413.775591807"/>
      <point x="189.5" y="335.574222222" type="curve"/>
      <point x="266.113360489" y="224.358833264"/>
      <point x="341.0" y="111.0"/>
      <point x="418.0" y="2.24820162487e-13" type="curve"/>
    </contour>
  </outline>
</glyph>
<glyph name="quotesingle" format="1">
  <advance width="185"/>
  <unicode hex="0027"/>
  <outline>
    <contour>
      <point x="114.0" y="534.0"/>
      <point x="90.0" y="534.0"/>
      <point x="114.0" y="534.0" type="curve"/>
      <point x="114.0" y="597.0"/>
      <point x="114.0" y="659.0"/>
      <point x="114.0" y="722.0" type="curve"/>
      <point x="90.0" y="722.0"/>
      <point x="114.0" y="722.0"/>
      <point x="90.0" y="722.0" type="curve"/>
      <point x="90.0" y="659.0"/>
      <point x="90.0" y="597.0"/>
      <point x="90.0" y="534.0" type="curve"/>
    </contour>
  </outline>
</glyph>
<glyph name="parenleft" format="1">
  <advance width="347"/>
  <unicode hex="0028"/>
  <outline>
    <contour>
      <point x="262.0" y="-237.0"/>
      <point x="245.0" y="-251.0"/>
      <point x="262.0" y="-237.0" type="curve"/>
      <point x="131.0" y="-54.0"/>
      <point x="97.0" y="104.0"/>
      <point x="97.0" y="326.0" type="curve"/>
      <point x="97.0" y="548.0"/>
      <point x="133.0" y="705.0"/>
      <point x="261.0" y="890.0" type="curve"/>
      <point x="245.0" y="903.0"/>
      <point x="261.0" y="890.0"/>
      <point x="245.0" y="903.0" type="curve"/>
      <point x="112.0" y="717.0"/>
      <point x="72.0" y="555.0"/>
      <point x="72.0" y="326.0" type="curve"/>
      <point x="72.0" y="97.0"/>
      <point x="113.0" y="-64.0"/>
      <point x="245.0" y="-251.0" type="curve"/>
    </contour>
  </outline>
</glyph>
<glyph name="parenright" format="1">
  <advance width="382"/>
  <unicode hex="0029"/>
  <outline>
    <contour>
      <point x="109.0" y="-267.0"/>
      <point x="91.0" y="-252.0"/>
      <point x="109.0" y="-267.0" type="curve"/>
      <point x="243.235302473" y="-71.6575822223"/>
      <point x="293.0" y="90.0"/>
      <point x="293.0" y="327.0" type="curve"/>
      <point x="293.0" y="557.0"/>
      <point x="250.274576315" y="717.631908564"/>
      <point x="112.0" y="903.0" type="curve"/>
      <point x="95.0" y="890.0"/>
      <point x="112.0" y="903.0"/>
      <point x="95.0" y="890.0" type="curve"/>
      <point x="228.267426154" y="705.630026975"/>
      <point x="267.0" y="549.0"/>
      <point x="267.0" y="326.0" type="curve"/>
      <point x="267.0" y="97.0"/>
      <point x="219.227131593" y="-60.6610770765"/>
      <point x="91.0" y="-252.0" type="curve"/>
    </contour>
  </outline>
</glyph>
<glyph name="asterisk" format="1">
  <advance width="338"/>
  <unicode hex="002A"/>
  <outline>
    <contour>
      <point x="111.1" y="669.313333333"/>
      <point x="135.3" y="669.313333333"/>
      <point x="111.1" y="669.313333333" type="curve"/>
      <point x="111.765191236" y="618.758799405"/>
      <point x="112.634808764" y="568.20564504"/>
      <point x="113.3" y="517.651111111" type="curve"/>
      <point x="133.1" y="517.651111111"/>
      <point x="113.3" y="517.651111111"/>
      <point x="133.1" y="517.651111111" type="curve"/>
      <point x="133.765191236" y="568.20564504"/>
      <point x="134.634808764" y="618.758799405"/>
      <point x="135.3" y="669.313333333" type="curve"/>
    </contour>
    <contour>
      <point x="218.0" y="583.0"/>
      <point x="230.0" y="562.0"/>
      <point x="218.2" y="583.349" type="curve"/>
      <point x="185.286825141" y="564.578591576"/>
      <point x="152.813174859" y="545.045519535"/>
      <point x="119.9" y="526.275111111" type="curve"/>
      <point x="126.5" y="509.027111111"/>
      <point x="119.9" y="526.275111111"/>
      <point x="126.5" y="509.027111111" type="curve"/>
      <point x="159.863029092" y="526.519306701"/>
      <point x="194.0" y="543.0"/>
      <point x="230.0" y="562.0" type="curve"/>
    </contour>
    <contour>
      <point x="205.0" y="415.0"/>
      <point x="185.0" y="402.0"/>
      <point x="204.8" y="415.481666667" type="curve"/>
      <point x="180.245296133" y="451.747043703"/>
      <point x="155.454703867" y="487.853734075"/>
      <point x="130.9" y="524.119111111" type="curve"/>
      <point x="115.5" y="511.183111111"/>
      <point x="130.9" y="524.119111111"/>
      <point x="115.5" y="511.183111111" type="curve"/>
      <point x="139.476993063" y="473.942558115"/>
      <point x="163.0" y="437.0"/>
      <point x="185.0" y="402.0" type="curve"/>
    </contour>
    <contour>
      <point x="17.0" y="562.0"/>
      <point x="28.0" y="583.0"/>
      <point x="17.0" y="562.0" type="curve"/>
      <point x="53.0" y="543.0"/>
      <point x="86.5369709076" y="526.519306701"/>
      <point x="119.9" y="509.027111111" type="curve"/>
      <point x="126.5" y="526.275111111"/>
      <point x="119.9" y="509.027111111"/>
      <point x="126.5" y="526.275111111" type="curve"/>
      <point x="93.5868251406" y="545.045519535"/>
      <point x="61.1131748594" y="564.578591576"/>
      <point x="28.2" y="583.349" type="curve"/>
    </contour>
    <contour>
      <point x="61.0" y="401.0"/>
      <point x="42.0" y="415.0"/>
      <point x="61.0" y="401.0" type="curve"/>
      <point x="83.0" y="437.0"/>
      <point x="106.923006937" y="473.942558115"/>
      <point x="130.9" y="511.183111111" type="curve"/>
      <point x="115.5" y="524.119111111"/>
      <point x="130.9" y="511.183111111"/>
      <point x="115.5" y="524.119111111" type="curve"/>
      <point x="90.9452961325" y="487.853734075"/>
      <point x="66.1547038675" y="451.747043703"/>
      <point x="41.6" y="415.481666667" type="curve"/>
    </contour>
  </outline>
</glyph>
<glyph name="comma" format="1">
  <advance width="280"/>
  <unicode hex="002C"/>
  <outline>
    <contour>
      <point x="101.0" y="-137.0"/>
      <point x="77.0" y="-137.0"/>
      <point x="101.0" y="-137.0" type="curve"/>
      <point x="127.0" y="-77.0"/>
      <point x="153.0" y="-16.0"/>
      <point x="174.0" y="29.0" type="curve"/>
      <point x="143.0" y="29.0"/>
      <point x="174.0" y="29.0"/>
      <point x="143.0" y="29.0" type="curve"/>
      <point x="124.0" y="-16.0"/>
      <point x="101.0" y="-77.0"/>
      <point x="77.0" y="-137.0" type="curve"/>
    </contour>
    <contour>
      <point x="132.0" y="119.0" type="move" name="_bottom"/>
    </contour>
  </outline>
</glyph>
<glyph name="hyphen" format="1">
  <advance width="317"/>
  <unicode hex="002D"/>
  <outline>
    <contour>
      <point x="63.7" y="260.339777778"/>
      <point x="63.7" y="284.055777778"/>
      <point x="63.7" y="260.339777778" type="curve"/>
      <point x="131.599321" y="260.339777778"/>
      <point x="199.500679" y="260.339777778"/>
      <point x="267.4" y="260.339777778" type="curve"/>
      <point x="267.4" y="284.055777778"/>
      <point x="267.4" y="260.339777778"/>
      <point x="267.4" y="284.055777778" type="curve"/>
      <point x="199.500679" y="284.055777778"/>
      <point x="131.599321" y="284.055777778"/>
      <point x="63.7" y="284.055777778" type="curve"/>
    </contour>
  </outline>
</glyph>
<glyph name="period" format="1">
  <advance width="201"/>
  <unicode hex="002E"/>
  <outline>
    <contour>
      <point x="117.0" y="12.0"/>
      <point x="88.0" y="12.0"/>
      <point x="117.0" y="12.0" type="curve"/>
      <point x="117.0" y="21.0"/>
      <point x="111.0" y="26.0"/>
      <point x="102.0" y="26.0" type="curve"/>
      <point x="93.0" y="26.0"/>
      <point x="88.0" y="20.0"/>
      <point x="88.0" y="12.0" type="curve"/>
      <point x="117.0" y="12.0"/>
      <point x="88.0" y="12.0"/>
      <point x="117.0" y="12.0" type="curve"/>
      <point x="117.0" y="3.0"/>
      <point x="111.0" y="-2.0"/>
      <point x="102.0" y="-2.0" type="curve"/>
      <point x="93.0" y="-2.0"/>
      <point x="88.0" y="3.0"/>
      <point x="88.0" y="12.0" type="curve"/>
    </contour>
  </outline>
</glyph>
<glyph name="zero" format="1">
  <advance width="555"/>
  <unicode hex="0030"/>
  <outline>
    <contour>
      <point x="98.0" y="360.0"/>
      <point x="77.0" y="360.0"/>
      <point x="100.0" y="360.0" type="curve"/>
      <point x="100.0" y="546.0"/>
      <point x="120.0" y="704.0"/>
      <point x="274.0" y="704.0" type="curve"/>
      <point x="430.0" y="704.0"/>
      <point x="449.0" y="547.0"/>
      <point x="449.0" y="363.0" type="curve"/>
      <point x="449.0" y="178.0"/>
      <point x="426.0" y="18.0"/>
      <point x="277.0" y="18.0" type="curve"/>
      <point x="129.0" y="18.0"/>
      <point x="100.0" y="175.0"/>
      <point x="100.0" y="360.0" type="curve"/>
      <point x="77.0" y="360.0"/>
      <point x="98.0" y="360.0"/>
      <point x="75.0" y="360.0" type="curve"/>
      <point x="75.0" y="160.0"/>
      <point x="103.0" y="-5.0"/>
      <point x="276.0" y="-5.0" type="curve"/>
      <point x="449.0" y="-5.0"/>
      <point x="474.0" y="162.0"/>
      <point x="474.0" y="363.0" type="curve"/>
      <point x="474.0" y="562.0"/>
      <point x="448.0" y="727.0"/>
      <point x="277.0" y="727.0" type="curve"/>
      <point x="103.0" y="727.0"/>
      <point x="75.0" y="561.0"/>
      <point x="75.0" y="360.0" type="curve"/>
    </contour>
  </outline>
</glyph>
<glyph name="one" format="1">
  <advance width="311"/>
  <unicode hex="0031"/>
  <outline>
    <contour>
      <point x="169.4" y="0.0"/>
      <point x="169.4" y="21.56"/>
      <point x="169.4" y="0.0" type="curve"/>
      <point x="213.432893" y="0.0"/>
      <point x="257.467107" y="0.0"/>
      <point x="301.5" y="0.0" type="curve"/>
      <point x="301.5" y="21.56"/>
      <point x="301.5" y="0.0"/>
      <point x="301.5" y="21.56" type="curve"/>
      <point x="169.4" y="21.56"/>
      <point x="301.5" y="21.56"/>
      <point x="169.4" y="21.56" type="curve"/>
    </contour>
    <contour>
      <point x="169.4" y="21.56"/>
      <point x="169.4" y="0.0"/>
      <point x="169.4" y="21.56" type="curve"/>
      <point x="37.3" y="21.56"/>
      <point x="169.4" y="21.56"/>
      <point x="37.3" y="21.56" type="curve"/>
      <point x="37.3" y="0.0"/>
      <point x="37.3" y="21.56"/>
      <point x="37.3" y="0.0" type="curve"/>
      <point x="81.332893" y="-5.3922960545e-15"/>
      <point x="125.367107" y="5.3922960545e-15"/>
      <point x="169.4" y="0.0" type="curve"/>
    </contour>
    <contour>
      <point x="32.0" y="541.0"/>
      <point x="15.0" y="556.0"/>
      <point x="32.0" y="541.0" type="curve"/>
      <point x="178.0" y="714.0"/>
      <point x="32.0" y="541.0"/>
      <point x="178.0" y="714.0" type="curve"/>
      <point x="156.0" y="722.0"/>
      <point x="178.0" y="714.0"/>
      <point x="156.0" y="722.0" type="curve"/>
      <point x="15.0" y="556.0"/>
      <point x="156.0" y="722.0"/>
      <point x="15.0" y="556.0" type="curve"/>
    </contour>
    <contour>
      <point x="180.1" y="0.0"/>
      <point x="155.9" y="1.45213821436e-15"/>
      <point x="180.1" y="0.0" type="curve"/>
      <point x="180.1" y="240.66426"/>
      <point x="180.1" y="481.33574"/>
      <point x="180.1" y="722.0" type="curve"/>
      <point x="156.0" y="722.0"/>
      <point x="180.0" y="722.0"/>
      <point x="156.0" y="722.0" type="curve"/>
      <point x="156.0" y="481.0"/>
      <point x="155.9" y="240.66426"/>
      <point x="155.9" y="1.45213821436e-15" type="curve"/>
    </contour>
  </outline>
</glyph>
<glyph name="two" format="1">
  <advance width="391"/>
  <unicode hex="0032"/>
  <outline>
    <contour>
      <point x="343.0" y="22.0"/>
      <point x="322.0" y="22.0"/>
      <point x="343.0" y="22.0" type="curve"/>
      <point x="343.0" y="142.0"/>
      <point x="343.0" y="22.0"/>
      <point x="343.0" y="142.0" type="curve"/>
      <point x="322.0" y="142.0"/>
      <point x="343.0" y="142.0"/>
      <point x="322.0" y="142.0" type="curve"/>
      <point x="322.0" y="22.0"/>
      <point x="322.0" y="142.0"/>
      <point x="322.0" y="22.0" type="curve"/>
    </contour>
    <contour>
      <point x="43.0" y="0.0"/>
      <point x="43.0" y="22.0"/>
      <point x="43.0" y="0.0" type="curve"/>
      <point x="157.0" y="0.0"/>
      <point x="240.0" y="0.0"/>
      <point x="343.0" y="0.0" type="curve"/>
      <point x="343.0" y="22.0"/>
      <point x="343.0" y="0.0"/>
      <point x="343.0" y="22.0" type="curve"/>
      <point x="236.0" y="22.0"/>
      <point x="150.0" y="22.0"/>
      <point x="43.0" y="22.0" type="curve"/>
    </contour>
    <contour>
      <point x="76.0" y="563.0"/>
      <point x="54.0" y="573.0"/>
      <point x="75.5" y="563.067555556" type="curve"/>
      <point x="104.040582478" y="636.868647239"/>
      <point x="130.0" y="704.0"/>
      <point x="205.0" y="704.0" type="curve"/>
      <point x="291.0" y="704.0"/>
      <point x="318.0" y="627.0"/>
      <point x="318.0" y="526.0" type="curve"/>
      <point x="318.0" y="406.0"/>
      <point x="240.0" y="291.0"/>
      <point x="202.0" y="237.0" type="curve"/>
      <point x="149.0" y="165.0"/>
      <point x="96.0" y="93.0"/>
      <point x="43.0" y="22.0" type="curve"/>
      <point x="54.0" y="0.0"/>
      <point x="43.0" y="22.0"/>
      <point x="54.0" y="0.0" type="curve"/>
      <point x="108.0" y="73.0"/>
      <point x="163.0" y="146.0"/>
      <point x="217.0" y="220.0" type="curve"/>
      <point x="260.0" y="279.0"/>
      <point x="343.0" y="399.0"/>
      <point x="343.0" y="527.0" type="curve"/>
      <point x="343.0" y="642.0"/>
      <point x="307.0" y="727.0"/>
      <point x="206.0" y="727.0" type="curve"/>
      <point x="122.0" y="727.0"/>
      <point x="83.0" y="657.0"/>
      <point x="54.0" y="573.0" type="curve"/>
    </contour>
  </outline>
</glyph>
<glyph name="three" format="1">
  <advance width="371"/>
  <unicode hex="0033"/>
  <outline>
    <contour>
      <point x="43.1" y="56.0761111111"/>
      <point x="56.3" y="72.2461111111"/>
      <point x="43.1" y="56.0761111111" type="curve"/>
      <point x="82.7270404673" y="19.789331597"/>
      <point x="117.0" y="-5.0"/>
      <point x="171.0" y="-5.0" type="curve"/>
      <point x="283.0" y="-5.0"/>
      <point x="335.0" y="73.0"/>
      <point x="335.0" y="195.0" type="curve"/>
      <point x="335.0" y="308.0"/>
      <point x="278.861001228" y="393.610777778"/>
      <point x="161.7" y="393.610777778" type="curve"/>
      <point x="161.7" y="375.284777778"/>
      <point x="161.7" y="393.610777778"/>
      <point x="161.7" y="375.284777778" type="curve"/>
      <point x="249.963972509" y="375.284777778"/>
      <point x="310.0" y="300.0"/>
      <point x="310.0" y="194.0" type="curve"/>
      <point x="310.0" y="87.5813953488"/>
      <point x="257.0" y="18.0"/>
      <point x="172.0" y="18.0" type="curve"/>
      <point x="124.0" y="18.0"/>
      <point x="93.5894245603" y="39.8765613511"/>
      <point x="56.3" y="72.2461111111" type="curve"/>
    </contour>
    <contour>
      <point x="65.0" y="628.0"/>
      <point x="48.0" y="639.0"/>
      <point x="65.0" y="628.0" type="curve"/>
      <point x="83.0" y="661.0"/>
      <point x="120.0" y="704.0"/>
      <point x="171.0" y="704.0" type="curve"/>
      <point x="252.0" y="704.0"/>
      <point x="287.0" y="641.0"/>
      <point x="287.0" y="550.0" type="curve"/>
      <point x="287.0" y="461.0"/>
      <point x="239.151500549" y="393.610777778"/>
      <point x="161.7" y="393.610777778" type="curve"/>
      <point x="161.7" y="375.284777778"/>
      <point x="161.7" y="393.610777778"/>
      <point x="161.7" y="375.284777778" type="curve"/>
      <point x="258.717371922" y="375.284777778"/>
      <point x="312.0" y="449.0"/>
      <point x="312.0" y="551.0" type="curve"/>
      <point x="312.0" y="654.0"/>
      <point x="268.372262774" y="727.0"/>
      <point x="173.0" y="727.0" type="curve"/>
      <point x="113.0" y="727.0"/>
      <point x="69.0321062037" y="680.389543934"/>
      <point x="47.6" y="638.903666667" type="curve"/>
    </contour>
  </outline>
</glyph>
<glyph name="four" format="1">
  <advance width="438"/>
  <unicode hex="0034"/>
  <outline>
    <contour>
      <point x="262.5" y="21.56"/>
      <point x="262.5" y="0.0"/>
      <point x="262.5" y="21.56" type="curve"/>
      <point x="130.4" y="21.56"/>
      <point x="262.5" y="21.56"/>
      <point x="130.4" y="21.56" type="curve"/>
      <point x="130.4" y="0.0"/>
      <point x="130.4" y="21.56"/>
      <point x="130.4" y="0.0" type="curve"/>
      <point x="174.432893" y="-5.3922960545e-15"/>
      <point x="218.467107" y="5.3922960545e-15"/>
      <point x="262.5" y="0.0" type="curve"/>
    </contour>
    <contour>
      <point x="262.5" y="0.0"/>
      <point x="262.5" y="21.56"/>
      <point x="262.5" y="0.0" type="curve"/>
      <point x="306.532893" y="0.0"/>
      <point x="350.567107" y="0.0"/>
      <point x="394.6" y="0.0" type="curve"/>
      <point x="394.6" y="21.56"/>
      <point x="394.6" y="0.0"/>
      <point x="394.6" y="21.56" type="curve"/>
      <point x="262.5" y="21.56"/>
      <point x="394.6" y="21.56"/>
      <point x="262.5" y="21.56" type="curve"/>
    </contour>
    <contour>
      <point x="38.0" y="265.0"/>
      <point x="24.0" y="287.0"/>
      <point x="38.0" y="265.0" type="curve"/>
      <point x="275.0" y="722.0"/>
      <point x="38.0" y="265.0"/>
      <point x="275.0" y="722.0" type="curve"/>
      <point x="251.0" y="722.0"/>
      <point x="275.0" y="722.0"/>
      <point x="251.0" y="722.0" type="curve"/>
      <point x="25.0" y="288.0"/>
      <point x="251.0" y="722.0"/>
      <point x="24.0" y="287.0" type="curve"/>
    </contour>
    <contour>
      <point x="398.0" y="287.0" type="curve"/>
      <point x="33.6572769953" y="287.0"/>
      <point x="365.516431925" y="287.0"/>
      <point x="24.0" y="287.0" type="curve"/>
      <point x="38.0" y="265.0"/>
      <point x="24.0" y="287.0"/>
      <point x="38.0" y="265.0" type="curve"/>
      <point x="362.174757282" y="265.0"/>
      <point x="51.9805825243" y="265.0"/>
      <point x="398.0" y="265.0" type="curve"/>
      <point x="398.0" y="274.0"/>
      <point x="398.0" y="279.0"/>
    </contour>
    <contour>
      <point x="251.0" y="722.0"/>
      <point x="275.0" y="722.0"/>
      <point x="251.0" y="722.0" type="curve"/>
      <point x="251.0" y="722.0"/>
      <point x="251.1" y="0.802222222222"/>
      <point x="251.1" y="0.802222222222" type="curve"/>
      <point x="275.3" y="0.802222222222"/>
      <point x="251.1" y="0.802222222222"/>
      <point x="275.3" y="0.802222222222" type="curve"/>
      <point x="275.3" y="0.802222222222"/>
      <point x="275.0" y="722.0"/>
      <point x="275.0" y="722.0" type="curve"/>
    </contour>
  </outline>
</glyph>
<glyph name="five" format="1">
  <advance width="374"/>
  <unicode hex="0035"/>
  <outline>
    <contour>
      <point x="79.8" y="722.0"/>
      <point x="102.9" y="700.44"/>
      <point x="79.8" y="722.0" type="curve"/>
      <point x="79.8" y="618.83047615"/>
      <point x="80.0" y="516.0"/>
      <point x="80.0" y="406.0" type="curve"/>
      <point x="103.0" y="396.0"/>
      <point x="80.0" y="406.0"/>
      <point x="102.9" y="396.318333333" type="curve"/>
      <point x="102.9" y="497.691208483"/>
      <point x="102.9" y="599.06712485"/>
      <point x="102.9" y="700.44" type="curve"/>
    </contour>
    <contour>
      <point x="103.0" y="396.0"/>
      <point x="80.0" y="406.0"/>
      <point x="103.0" y="396.0" type="curve"/>
      <point x="118.0" y="408.0"/>
      <point x="152.0" y="423.0"/>
      <point x="178.0" y="423.0" type="curve"/>
      <point x="273.0" y="423.0"/>
      <point x="305.0" y="330.0"/>
      <point x="305.0" y="224.0" type="curve"/>
      <point x="305.0" y="118.0"/>
      <point x="266.0" y="22.0"/>
      <point x="171.0" y="22.0" type="curve"/>
      <point x="126.0" y="22.0"/>
      <point x="103.0" y="35.0"/>
      <point x="60.0" y="64.0" type="curve"/>
      <point x="45.0" y="44.0"/>
      <point x="60.0" y="64.0"/>
      <point x="45.0" y="44.0" type="curve"/>
      <point x="83.0" y="13.0"/>
      <point x="121.0" y="-5.0"/>
      <point x="170.0" y="-5.0" type="curve"/>
      <point x="280.0" y="-5.0"/>
      <point x="329.0" y="101.0"/>
      <point x="329.0" y="224.0" type="curve"/>
      <point x="329.0" y="343.0"/>
      <point x="287.0" y="446.0"/>
      <point x="180.0" y="446.0" type="curve"/>
      <point x="143.0" y="446.0"/>
      <point x="101.0" y="430.0"/>
      <point x="80.0" y="406.0" type="curve"/>
    </contour>
    <contour>
      <point x="312.0" y="722.0"/>
      <point x="312.0" y="700.0"/>
      <point x="312.0" y="722.0" type="curve"/>
      <point x="231.0" y="722.0"/>
      <point x="160.532526" y="722.0"/>
      <point x="79.8" y="722.0" type="curve"/>
      <point x="102.9" y="700.44"/>
      <point x="79.8" y="722.0"/>
      <point x="102.9" y="700.44" type="curve"/>
      <point x="175.932603" y="700.44"/>
      <point x="239.0" y="700.0"/>
      <point x="312.0" y="700.0" type="curve"/>
    </contour>
  </outline>
</glyph>
<glyph name="six" format="1">
  <advance width="418"/>
  <unicode hex="0036"/>
  <outline>
    <contour>
      <point x="72.0" y="230.0"/>
      <point x="57.9" y="240.67"/>
      <point x="74.4" y="229.89" type="curve"/>
      <point x="86.0" y="300.0"/>
      <point x="133.0" y="384.0"/>
      <point x="217.0" y="384.0" type="curve"/>
      <point x="309.0" y="384.0"/>
      <point x="342.0" y="306.0"/>
      <point x="342.0" y="202.0" type="curve"/>
      <point x="342.0" y="113.0"/>
      <point x="309.0" y="22.0"/>
      <point x="221.0" y="22.0" type="curve"/>
      <point x="113.0" y="22.0"/>
      <point x="78.4" y="120.206229354"/>
      <point x="78.4" y="242.304555556" type="curve"/>
      <point x="78.0" y="464.0"/>
      <point x="178.0" y="634.0"/>
      <point x="373.0" y="714.0" type="curve"/>
      <point x="364.0" y="734.0"/>
      <point x="373.0" y="714.0"/>
      <point x="363.9" y="733.893111111" type="curve"/>
      <point x="161.0" y="654.0"/>
      <point x="53.0" y="480.0"/>
      <point x="53.0" y="241.0" type="curve"/>
      <point x="53.0" y="103.0"/>
      <point x="97.0591170737" y="-5.12033333333"/>
      <point x="219.6" y="-5.12033333333" type="curve"/>
      <point x="325.495263398" y="-5.12033333333"/>
      <point x="367.0" y="86.0"/>
      <point x="367.0" y="203.0" type="curve"/>
      <point x="367.0" y="320.0"/>
      <point x="324.0" y="409.0"/>
      <point x="219.0" y="409.0" type="curve"/>
      <point x="124.0" y="409.0"/>
      <point x="73.0" y="330.0"/>
      <point x="56.0" y="241.0" type="curve"/>
    </contour>
  </outline>
</glyph>
<glyph name="seven" format="1">
  <advance width="409"/>
  <unicode hex="0037"/>
  <outline>
    <contour>
      <point x="65.0" y="602.0"/>
      <point x="44.0" y="602.0"/>
      <point x="65.0" y="602.0" type="curve"/>
      <point x="65.0" y="722.0"/>
      <point x="65.0" y="602.0"/>
      <point x="65.0" y="722.0" type="curve"/>
      <point x="44.0" y="722.0"/>
      <point x="65.0" y="722.0"/>
      <point x="44.0" y="722.0" type="curve"/>
      <point x="44.0" y="602.0"/>
      <point x="44.0" y="722.0"/>
      <point x="44.0" y="602.0" type="curve"/>
    </contour>
    <contour>
      <point x="44.0" y="700.0"/>
      <point x="44.0" y="722.0"/>
      <point x="44.0" y="700.0" type="curve"/>
      <point x="155.0" y="700.0"/>
      <point x="267.0" y="700.0"/>
      <point x="378.0" y="700.0" type="curve"/>
      <point x="378.0" y="722.0"/>
      <point x="378.0" y="700.0"/>
      <point x="378.0" y="722.0" type="curve"/>
      <point x="258.0" y="722.0"/>
      <point x="151.0" y="722.0"/>
      <point x="44.0" y="722.0" type="curve"/>
    </contour>
    <contour>
      <point x="365.0" y="722.0"/>
      <point x="378.0" y="700.0"/>
      <point x="365.0" y="722.0" type="curve"/>
      <point x="68.0" y="0.0"/>
      <point x="365.0" y="722.0"/>
      <point x="68.0" y="0.0" type="curve"/>
      <point x="95.0" y="0.0"/>
      <point x="68.0" y="0.0"/>
      <point x="95.0" y="0.0" type="curve"/>
      <point x="378.0" y="700.0"/>
      <point x="95.0" y="0.0"/>
      <point x="378.0" y="700.0" type="curve"/>
    </contour>
  </outline>
</glyph>
<glyph name="eight" format="1">
  <advance width="358"/>
  <unicode hex="0038"/>
  <outline>
    <contour>
      <point x="54.0" y="565.0"/>
      <point x="78.0" y="565.0"/>
      <point x="54.0" y="565.0" type="curve"/>
      <point x="54.0" y="471.0"/>
      <point x="103.025591803" y="423.603233895"/>
      <point x="179.7" y="369.338222222" type="curve"/>
      <point x="258.988279429" y="312.74846916"/>
      <point x="309.0" y="260.0"/>
      <point x="309.0" y="168.0" type="curve"/>
      <point x="309.0" y="80.0"/>
      <point x="270.0" y="18.0"/>
      <point x="186.0" y="18.0" type="curve"/>
      <point x="102.0" y="18.0"/>
      <point x="65.0" y="80.0"/>
      <point x="65.0" y="168.0" type="curve"/>
      <point x="65.0" y="262.0"/>
      <point x="116.445400139" y="311.917943475"/>
      <point x="196.2" y="369.338222222" type="curve"/>
      <point x="270.408590518" y="424.185821994"/>
      <point x="320.0" y="471.0"/>
      <point x="320.0" y="563.0" type="curve"/>
      <point x="320.0" y="661.0"/>
      <point x="280.0" y="727.0"/>
      <point x="186.0" y="727.0" type="curve"/>
      <point x="95.0" y="727.0"/>
      <point x="54.0" y="660.0"/>
      <point x="54.0" y="565.0" type="curve"/>
      <point x="78.0" y="565.0"/>
      <point x="54.0" y="565.0"/>
      <point x="78.0" y="565.0" type="curve"/>
      <point x="78.0" y="644.0"/>
      <point x="110.0" y="704.0"/>
      <point x="185.0" y="704.0" type="curve"/>
      <point x="264.0" y="704.0"/>
      <point x="296.0" y="646.0"/>
      <point x="296.0" y="563.0" type="curve"/>
      <point x="296.0" y="482.0"/>
      <point x="249.632693546" y="435.591435596"/>
      <point x="179.7" y="386.586222222" type="curve"/>
      <point x="94.6640690083" y="324.917812252"/>
      <point x="40.0" y="273.0"/>
      <point x="40.0" y="168.0" type="curve"/>
      <point x="40.0" y="65.0"/>
      <point x="86.0" y="-5.0"/>
      <point x="185.0" y="-5.0" type="curve"/>
      <point x="284.0" y="-5.0"/>
      <point x="334.0" y="63.0"/>
      <point x="334.0" y="168.0" type="curve"/>
      <point x="334.0" y="272.0"/>
      <point x="279.941830179" y="325.880094706"/>
      <point x="196.2" y="386.586222222" type="curve"/>
      <point x="125.805063199" y="438.21097556"/>
      <point x="78.0" y="482.0"/>
      <point x="78.0" y="565.0" type="curve"/>
    </contour>
  </outline>
</glyph>
<glyph name="nine" format="1">
  <advance width="432"/>
  <unicode hex="0039"/>
  <outline>
    <contour>
      <point x="354.0" y="489.0"/>
      <point x="369.0" y="481.0"/>
      <point x="354.0" y="489.0" type="curve"/>
      <point x="333.0" y="420.0"/>
      <point x="297.0" y="336.0"/>
      <point x="210.0" y="336.0" type="curve"/>
      <point x="118.0" y="336.0"/>
      <point x="86.0" y="416.0"/>
      <point x="86.0" y="520.0" type="curve"/>
      <point x="86.0" y="621.0"/>
      <point x="118.0" y="704.0"/>
      <point x="206.0" y="704.0" type="curve"/>
      <point x="314.0" y="704.0"/>
      <point x="349.0" y="602.0"/>
      <point x="349.0" y="480.0" type="curve"/>
      <point x="349.0" y="258.0"/>
      <point x="264.0" y="99.0"/>
      <point x="59.0" y="8.0" type="curve"/>
      <point x="69.0" y="-15.0"/>
      <point x="59.0" y="8.0"/>
      <point x="69.0" y="-15.0" type="curve"/>
      <point x="282.586599896" y="79.2588750713"/>
      <point x="374.0" y="242.0"/>
      <point x="374.0" y="481.0" type="curve"/>
      <point x="374.0" y="619.0"/>
      <point x="331.746987952" y="727.0"/>
      <point x="207.0" y="727.0" type="curve"/>
      <point x="101.0" y="727.0"/>
      <point x="61.0" y="636.0"/>
      <point x="61.0" y="519.0" type="curve"/>
      <point x="61.0" y="402.0"/>
      <point x="102.0" y="313.0"/>
      <point x="208.0" y="313.0" type="curve"/>
      <point x="303.0" y="313.0"/>
      <point x="341.0" y="385.0"/>
      <point x="369.0" y="481.0" type="curve"/>
    </contour>
  </outline>
</glyph>
<glyph name="colon" format="1">
  <advance width="201"/>
  <unicode hex="003A"/>
  <outline>
    <contour>
      <point x="117.0" y="428.0"/>
      <point x="88.0" y="428.0"/>
      <point x="117.0" y="428.0" type="curve"/>
      <point x="117.0" y="437.0"/>
      <point x="111.0" y="442.0"/>
      <point x="102.0" y="442.0" type="curve"/>
      <point x="93.0" y="442.0"/>
      <point x="88.0" y="436.0"/>
      <point x="88.0" y="428.0" type="curve"/>
      <point x="117.0" y="428.0"/>
      <point x="88.0" y="428.0"/>
      <point x="117.0" y="428.0" type="curve"/>
      <point x="117.0" y="419.0"/>
      <point x="111.0" y="414.0"/>
      <point x="102.0" y="414.0" type="curve"/>
      <point x="93.0" y="414.0"/>
      <point x="88.0" y="419.0"/>
      <point x="88.0" y="428.0" type="curve"/>
    </contour>
    <contour>
      <point x="117.0" y="12.0"/>
      <point x="88.0" y="12.0"/>
      <point x="117.0" y="12.0" type="curve"/>
      <point x="117.0" y="21.0"/>
      <point x="111.0" y="26.0"/>
      <point x="102.0" y="26.0" type="curve"/>
      <point x="93.0" y="26.0"/>
      <point x="88.0" y="20.0"/>
      <point x="88.0" y="12.0" type="curve"/>
      <point x="117.0" y="12.0"/>
      <point x="88.0" y="12.0"/>
      <point x="117.0" y="12.0" type="curve"/>
      <point x="117.0" y="3.0"/>
      <point x="111.0" y="-2.0"/>
      <point x="102.0" y="-2.0" type="curve"/>
      <point x="93.0" y="-2.0"/>
      <point x="88.0" y="3.0"/>
      <point x="88.0" y="12.0" type="curve"/>
    </contour>
  </outline>
</glyph>
<glyph name="semicolon" format="1">
  <advance width="181"/>
  <unicode hex="003B"/>
  <outline>
    <contour>
      <point x="31.0" y="-99.0"/>
      <point x="7.0" y="-99.0"/>
      <point x="31.0" y="-99.0" type="curve"/>
      <point x="57.0" y="-39.0"/>
      <point x="83.0" y="22.0"/>
      <point x="109.0" y="82.0" type="curve"/>
      <point x="78.0" y="82.0"/>
      <point x="109.0" y="82.0"/>
      <point x="78.0" y="82.0" type="curve"/>
      <point x="54.0" y="22.0"/>
      <point x="31.0" y="-39.0"/>
      <point x="7.0" y="-99.0" type="curve"/>
    </contour>
    <contour>
      <point x="117.0" y="428.0"/>
      <point x="88.0" y="428.0"/>
      <point x="117.0" y="428.0" type="curve"/>
      <point x="117.0" y="437.0"/>
      <point x="111.0" y="442.0"/>
      <point x="102.0" y="442.0" type="curve"/>
      <point x="93.0" y="442.0"/>
      <point x="88.0" y="436.0"/>
      <point x="88.0" y="428.0" type="curve"/>
      <point x="117.0" y="428.0"/>
      <point x="88.0" y="428.0"/>
      <point x="117.0" y="428.0" type="curve"/>
      <point x="117.0" y="419.0"/>
      <point x="111.0" y="414.0"/>
      <point x="102.0" y="414.0" type="curve"/>
      <point x="93.0" y="414.0"/>
      <point x="88.0" y="419.0"/>
      <point x="88.0" y="428.0" type="curve"/>
    </contour>
  </outline>
</glyph>
<glyph name="equal" format="1">
  <advance width="491"/>
  <unicode hex="003D"/>
  <outline>
    <contour>
      <point x="27" y="206"/>
      <point x="27" y="229"/>
      <point x="27" y="206" type="curve"/>
      <point x="173" y="206"/>
      <point x="320" y="206"/>
      <point x="467" y="206" type="curve"/>
      <point x="467" y="229"/>
      <point x="467" y="206"/>
      <point x="467" y="229" type="curve"/>
      <point x="320" y="229"/>
      <point x="173" y="229"/>
      <point x="27" y="229" type="curve"/>
    </contour>
    <contour>
      <point x="27" y="428"/>
      <point x="27" y="451"/>
      <point x="27" y="428" type="curve"/>
      <point x="173" y="428"/>
      <point x="320" y="428"/>
      <point x="467" y="428" type="curve"/>
      <point x="467" y="451"/>
      <point x="467" y="428"/>
      <point x="467" y="451" type="curve"/>
      <point x="320" y="451"/>
      <point x="173" y="451"/>
      <point x="27" y="451" type="curve"/>
    </contour>
  </outline>
</glyph>
<glyph name="greater" format="1">
  <advance width="490"/>
  <unicode hex="003E"/>
  <outline>
    <contour>
      <point x="32.9" y="24.142"/>
      <point x="32.9" y="47.858"/>
      <point x="32.9" y="24.142" type="curve"/>
      <point x="174.998579" y="114.1411"/>
      <point x="317.101421" y="204.1429"/>
      <point x="459.2" y="294.142" type="curve"/>
      <point x="459.2" y="317.858"/>
      <point x="459.2" y="294.142"/>
      <point x="459.2" y="317.858" type="curve"/>
      <point x="317.101421" y="227.8589"/>
      <point x="174.998579" y="137.8571"/>
      <point x="32.9" y="47.858" type="curve"/>
    </contour>
    <contour>
      <point x="25.9" y="558.142"/>
      <point x="25.9" y="581.858"/>
      <point x="25.9" y="558.142" type="curve"/>
      <point x="170.331889" y="470.14288"/>
      <point x="314.768111" y="382.14112"/>
      <point x="459.2" y="294.142" type="curve"/>
      <point x="459.2" y="317.858"/>
      <point x="459.2" y="294.142"/>
      <point x="459.2" y="317.858" type="curve"/>
      <point x="314.768111" y="405.85712"/>
      <point x="170.331889" y="493.85888"/>
      <point x="25.9" y="581.858" type="curve"/>
    </contour>
  </outline>
</glyph>
<glyph name="question" format="1">
  <advance width="283"/>
  <unicode hex="003F"/>
  <outline>
    <contour>
      <point x="81.0" y="334.0"/>
      <point x="105.0" y="334.0"/>
      <point x="81.0" y="334.0" type="curve"/>
      <point x="81.0" y="297.0"/>
      <point x="81.0" y="258.0"/>
      <point x="81.0" y="221.0" type="curve"/>
      <point x="105.0" y="221.0"/>
      <point x="81.0" y="221.0"/>
      <point x="105.0" y="221.0" type="curve"/>
      <point x="105.0" y="258.0"/>
      <point x="105.0" y="297.0"/>
      <point x="105.0" y="334.0" type="curve"/>
    </contour>
    <contour>
      <point x="47.0" y="672.0"/>
      <point x="39.0" y="694.0"/>
      <point x="47.0" y="672.0" type="curve"/>
      <point x="64.0" y="682.0"/>
      <point x="82.0" y="687.0"/>
      <point x="99.0" y="687.0" type="curve"/>
      <point x="182.0" y="687.0"/>
      <point x="217.0" y="612.0"/>
      <point x="217.0" y="519.0" type="curve"/>
      <point x="217.0" y="418.0"/>
      <point x="178.0" y="334.0"/>
      <point x="86.0" y="334.0" type="curve"/>
      <point x="86.0" y="311.0"/>
      <point x="86.0" y="334.0"/>
      <point x="86.0" y="311.0" type="curve"/>
      <point x="192.0" y="311.0"/>
      <point x="242.0" y="404.0"/>
      <point x="242.0" y="519.0" type="curve"/>
      <point x="242.0" y="624.0"/>
      <point x="196.0" y="710.0"/>
      <point x="101.0" y="710.0" type="curve"/>
      <point x="77.0" y="710.0"/>
      <point x="60.0" y="704.0"/>
      <point x="39.0" y="694.0" type="curve"/>
    </contour>
    <contour>
      <point x="108.0" y="11.0"/>
      <point x="79.0" y="11.0"/>
      <point x="108.0" y="11.0" type="curve"/>
      <point x="108.0" y="20.0"/>
      <point x="102.0" y="25.0"/>
      <point x="93.0" y="25.0" type="curve"/>
      <point x="85.0" y="25.0"/>
      <point x="79.0" y="19.0"/>
      <point x="79.0" y="11.0" type="curve"/>
      <point x="108.0" y="11.0"/>
      <point x="79.0" y="11.0"/>
      <point x="108.0" y="11.0" type="curve"/>
      <point x="108.0" y="2.0"/>
      <point x="102.0" y="-2.0"/>
      <point x="93.0" y="-2.0" type="curve"/>
      <point x="85.0" y="-2.0"/>
      <point x="79.0" y="3.0"/>
      <point x="79.0" y="11.0" type="curve"/>
    </contour>
  </outline>
</glyph>
<glyph name="at" format="1">
  <advance width="601"/>
  <unicode hex="0040"/>
  <outline>
    <contour>
      <point x="420.0" y="-104.0"/>
      <point x="431.0" y="-124.0"/>
      <point x="420.0" y="-104.0" type="curve"/>
      <point x="385.0" y="-132.0"/>
      <point x="356.0" y="-141.0"/>
      <point x="311.0" y="-141.0" type="curve"/>
      <point x="142.0" y="-141.0"/>
      <point x="84.0" y="1.0"/>
      <point x="84.0" y="189.0" type="curve"/>
      <point x="84.0" y="373.0"/>
      <point x="144.0" y="515.0"/>
      <point x="309.0" y="515.0" type="curve"/>
      <point x="468.0" y="515.0"/>
      <point x="518.0" y="373.0"/>
      <point x="518.0" y="194.0" type="curve"/>
      <point x="518.0" y="115.0"/>
      <point x="521.0" y="43.0"/>
      <point x="466.0" y="43.0" type="curve"/>
      <point x="400.0" y="43.0"/>
      <point x="406.0" y="115.0"/>
      <point x="406.0" y="194.0" type="curve"/>
      <point x="406.0" y="290.0"/>
      <point x="384.0" y="367.0"/>
      <point x="300.0" y="367.0" type="curve"/>
      <point x="213.0" y="367.0"/>
      <point x="185.0" y="292.0"/>
      <point x="185.0" y="195.0" type="curve"/>
      <point x="185.0" y="92.0"/>
      <point x="207.0" y="11.0"/>
      <point x="297.0" y="11.0" type="curve"/>
      <point x="380.0" y="11.0"/>
      <point x="394.0" y="90.0"/>
      <point x="402.0" y="184.0" type="curve"/>
      <point x="388.0" y="186.0"/>
      <point x="402.0" y="184.0"/>
      <point x="388.0" y="186.0" type="curve"/>
      <point x="375.0" y="110.0"/>
      <point x="363.0" y="33.0"/>
      <point x="300.0" y="33.0" type="curve"/>
      <point x="221.0" y="33.0"/>
      <point x="208.0" y="106.0"/>
      <point x="208.0" y="196.0" type="curve"/>
      <point x="208.0" y="280.0"/>
      <point x="225.0" y="345.0"/>
      <point x="297.0" y="345.0" type="curve"/>
      <point x="370.0" y="345.0"/>
      <point x="384.0" y="277.0"/>
      <point x="384.0" y="193.0" type="curve"/>
      <point x="384.0" y="102.0"/>
      <point x="385.0" y="23.0"/>
      <point x="464.0" y="23.0" type="curve"/>
      <point x="544.0" y="23.0"/>
      <point x="541.0" y="102.0"/>
      <point x="541.0" y="195.0" type="curve"/>
      <point x="541.0" y="390.0"/>
      <point x="483.0" y="538.0"/>
      <point x="311.0" y="538.0" type="curve"/>
      <point x="129.0" y="538.0"/>
      <point x="61.0" y="389.0"/>
      <point x="61.0" y="188.0" type="curve"/>
      <point x="61.0" y="-13.0"/>
      <point x="128.0" y="-163.0"/>
      <point x="309.0" y="-163.0" type="curve"/>
      <point x="359.0" y="-163.0"/>
      <point x="392.0" y="-154.0"/>
      <point x="431.0" y="-124.0" type="curve"/>
    </contour>
  </outline>
</glyph>
<glyph name="A" format="1">
  <advance width="689"/>
  <unicode hex="0041"/>
  <outline>
    <contour>
      <point x="153.0" y="22.0"/>
      <point x="153.0" y="0.0"/>
      <point x="153.0" y="22.0" type="curve"/>
      <point x="21.0" y="22.0"/>
      <point x="153.0" y="22.0"/>
      <point x="21.0" y="22.0" type="curve"/>
      <point x="21.0" y="0.0"/>
      <point x="21.0" y="22.0"/>
      <point x="21.0" y="0.0" type="curve"/>
      <point x="65.0" y="0.0"/>
      <point x="109.0" y="0.0"/>
      <point x="153.0" y="0.0" type="curve"/>
    </contour>
    <contour>
      <point x="153.0" y="0.0"/>
      <point x="153.0" y="22.0"/>
      <point x="153.0" y="0.0" type="curve"/>
      <point x="199.0" y="0.0"/>
      <point x="153.0" y="0.0"/>
      <point x="290.0" y="0.0" type="curve"/>
      <point x="290.0" y="22.0"/>
      <point x="290.0" y="0.0"/>
      <point x="290.0" y="22.0" type="curve"/>
      <point x="153.0" y="22.0"/>
      <point x="290.0" y="22.0"/>
      <point x="153.0" y="22.0" type="curve"/>
    </contour>
    <contour>
      <point x="536" y="0"/>
      <point x="536" y="22"/>
      <point x="536" y="0" type="curve"/>
      <point x="580" y="0"/>
      <point x="624" y="0"/>
      <point x="668" y="0" type="curve"/>
      <point x="668" y="22"/>
      <point x="668" y="0"/>
      <point x="668" y="22" type="curve"/>
      <point x="536" y="22"/>
      <point x="668" y="22"/>
      <point x="536" y="22" type="curve"/>
    </contour>
    <contour>
      <point x="536.0" y="22.0"/>
      <point x="536.0" y="0.0"/>
      <point x="536.0" y="22.0" type="curve"/>
      <point x="398.0" y="22.0"/>
      <point x="536.0" y="22.0"/>
      <point x="398.0" y="22.0" type="curve"/>
      <point x="398.0" y="0.0"/>
      <point x="398.0" y="22.0"/>
      <point x="398.0" y="0.0" type="curve"/>
      <point x="444.0" y="0.0"/>
      <point x="490.0" y="0.0"/>
      <point x="536.0" y="0.0" type="curve"/>
    </contour>
    <contour>
      <point x="471.0" y="277.0"/>
      <point x="479.0" y="254.0"/>
      <point x="471.0" y="277.0" type="curve"/>
      <point x="390.0" y="277.0"/>
      <point x="310.0" y="277.0"/>
      <point x="229.0" y="277.0" type="curve"/>
      <point x="219.0" y="254.0"/>
      <point x="229.0" y="277.0"/>
      <point x="219.0" y="254.0" type="curve"/>
      <point x="306.0" y="254.0"/>
      <point x="392.0" y="254.0"/>
      <point x="479.0" y="254.0" type="curve"/>
    </contour>
    <contour>
      <point x="556.0" y="0.0"/>
      <point x="531.0" y="0.0"/>
      <point x="556.0" y="0.0" type="curve"/>
      <point x="493.0" y="241.0"/>
      <point x="430.0" y="481.0"/>
      <point x="367.0" y="722.0" type="curve"/>
      <point x="345.0" y="722.0"/>
      <point x="367.0" y="722.0"/>
      <point x="345.0" y="722.0" type="curve"/>
      <point x="407.0" y="481.0"/>
      <point x="469.0" y="241.0"/>
      <point x="531.0" y="0.0" type="curve"/>
    </contour>
    <contour>
      <point x="158.0" y="0.0"/>
      <point x="131.0" y="0.0"/>
      <point x="158.0" y="0.0" type="curve"/>
      <point x="227.0" y="241.0"/>
      <point x="296.0" y="481.0"/>
      <point x="365.0" y="722.0" type="curve"/>
      <point x="343.0" y="722.0"/>
      <point x="365.0" y="722.0"/>
      <point x="343.0" y="722.0" type="curve"/>
      <point x="273.0" y="481.0"/>
      <point x="202.0" y="241.0"/>
      <point x="131.0" y="0.0" type="curve"/>
    </contour>
    <contour>
      <point x="357.0" y="839.0" type="move" name="top"/>
    </contour>
    <contour>
      <point x="550" y="2" type="move" name="bottom"/>
    </contour>
  </outline>
</glyph>
<glyph name="B" format="1">
  <advance width="484"/>
  <unicode hex="0042"/>
  <outline>
    <contour>
      <point x="163.0" y="722.0"/>
      <point x="163.0" y="700.0"/>
      <point x="163.0" y="722.0" type="curve"/>
      <point x="119.0" y="722.0"/>
      <point x="75.0" y="722.0"/>
      <point x="31.0" y="722.0" type="curve"/>
      <point x="31.0" y="700.0"/>
      <point x="31.0" y="722.0"/>
      <point x="31.0" y="700.0" type="curve"/>
      <point x="163.0" y="700.0"/>
      <point x="31.0" y="700.0"/>
      <point x="163.0" y="700.0" type="curve"/>
    </contour>
    <contour>
      <point x="162.0" y="22.0"/>
      <point x="162.0" y="0.0"/>
      <point x="162.0" y="22.0" type="curve"/>
      <point x="30.0" y="22.0"/>
      <point x="162.0" y="22.0"/>
      <point x="30.0" y="22.0" type="curve"/>
      <point x="30.0" y="0.0"/>
      <point x="30.0" y="22.0"/>
      <point x="30.0" y="0.0" type="curve"/>
      <point x="74.0" y="0.0"/>
      <point x="118.0" y="0.0"/>
      <point x="162.0" y="0.0" type="curve"/>
    </contour>
    <contour>
      <point x="155.0" y="714.0"/>
      <point x="155.0" y="708.0"/>
      <point x="155.0" y="700.0" type="curve"/>
      <point x="199.0" y="700.0"/>
      <point x="228.0" y="700.0"/>
      <point x="272.0" y="700.0" type="curve"/>
      <point x="355.0" y="700.0"/>
      <point x="397.0" y="642.0"/>
      <point x="397.0" y="555.0" type="curve"/>
      <point x="397.0" y="474.0"/>
      <point x="356.0" y="421.0"/>
      <point x="279.0" y="421.0" type="curve"/>
      <point x="232.0" y="421.0"/>
      <point x="202.0" y="421.0"/>
      <point x="155.0" y="421.0" type="curve"/>
      <point x="155.0" y="413.0"/>
      <point x="155.0" y="407.0"/>
      <point x="155.0" y="399.0" type="curve"/>
      <point x="197.0" y="399.0"/>
      <point x="228.0" y="399.0"/>
      <point x="270.0" y="399.0" type="curve"/>
      <point x="367.0" y="399.0"/>
      <point x="421.0" y="458.0"/>
      <point x="421.0" y="555.0" type="curve"/>
      <point x="421.0" y="656.0"/>
      <point x="369.0" y="722.0"/>
      <point x="272.0" y="722.0" type="curve"/>
      <point x="228.0" y="722.0"/>
      <point x="199.0" y="722.0"/>
      <point x="155.0" y="722.0" type="curve"/>
    </contour>
    <contour>
      <point x="176.0" y="0.0"/>
      <point x="150.0" y="0.0"/>
      <point x="176.0" y="0.0" type="curve"/>
      <point x="176.0" y="241.0"/>
      <point x="176.0" y="481.0"/>
      <point x="176.0" y="722.0" type="curve"/>
      <point x="150.0" y="722.0"/>
      <point x="176.0" y="722.0"/>
      <point x="150.0" y="722.0" type="curve"/>
      <point x="150.0" y="481.0"/>
      <point x="151.0" y="241.0"/>
      <point x="150.0" y="0.0" type="curve"/>
    </contour>
    <contour>
      <point x="155.0" y="413.0"/>
      <point x="155.0" y="407.0"/>
      <point x="155.0" y="399.0" type="curve"/>
      <point x="202.0" y="399.0"/>
      <point x="232.0" y="399.0"/>
      <point x="279.0" y="399.0" type="curve"/>
      <point x="384.0" y="399.0"/>
      <point x="430.0" y="318.0"/>
      <point x="430.0" y="204.0" type="curve"/>
      <point x="430.0" y="95.0"/>
      <point x="377.0" y="22.0"/>
      <point x="273.0" y="22.0" type="curve"/>
      <point x="228.0" y="22.0"/>
      <point x="200.0" y="22.0"/>
      <point x="155.0" y="22.0" type="curve"/>
      <point x="155.0" y="14.0"/>
      <point x="155.0" y="8.0"/>
      <point x="155.0" y="0.0" type="curve"/>
      <point x="200.0" y="0.0"/>
      <point x="228.0" y="0.0"/>
      <point x="273.0" y="0.0" type="curve"/>
      <point x="391.0" y="0.0"/>
      <point x="454.0" y="81.0"/>
      <point x="454.0" y="204.0" type="curve"/>
      <point x="454.0" y="334.0"/>
      <point x="395.0" y="421.0"/>
      <point x="271.0" y="421.0" type="curve"/>
      <point x="229.0" y="421.0"/>
      <point x="197.0" y="421.0"/>
      <point x="155.0" y="421.0" type="curve"/>
    </contour>
  </outline>
</glyph>
<glyph name="C" format="1">
  <advance width="463"/>
  <unicode hex="0043"/>
  <outline>
    <contour>
      <point x="397.0" y="655.0"/>
      <point x="419.0" y="655.0"/>
      <point x="397.0" y="655.0" type="curve"/>
      <point x="397.0" y="535.0"/>
      <point x="397.0" y="655.0"/>
      <point x="397.0" y="535.0" type="curve"/>
      <point x="419.0" y="535.0"/>
      <point x="397.0" y="535.0"/>
      <point x="419.0" y="535.0" type="curve"/>
      <point x="419.0" y="655.0"/>
      <point x="419.0" y="535.0"/>
      <point x="419.0" y="655.0" type="curve"/>
    </contour>
    <contour>
      <point x="419.0" y="655.0"/>
      <point x="406.0" y="638.0"/>
      <point x="419.0" y="655.0" type="curve"/>
      <point x="375.0" y="694.0"/>
      <point x="323.0" y="727.0"/>
      <point x="259.0" y="727.0" type="curve"/>
      <point x="75.0" y="727.0"/>
      <point x="30.0" y="558.0"/>
      <point x="30.0" y="344.0" type="curve"/>
      <point x="30.0" y="149.0"/>
      <point x="74.0" y="-5.0"/>
      <point x="244.0" y="-5.0" type="curve"/>
      <point x="329.0" y="-5.0"/>
      <point x="379.0" y="34.0"/>
      <point x="433.0" y="96.0" type="curve"/>
      <point x="417.0" y="113.0"/>
      <point x="432.0" y="96.0"/>
      <point x="416.0" y="113.0" type="curve"/>
      <point x="368.0" y="57.0"/>
      <point x="322.0" y="21.0"/>
      <point x="245.0" y="21.0" type="curve"/>
      <point x="90.0" y="21.0"/>
      <point x="54.0" y="165.0"/>
      <point x="54.0" y="345.0" type="curve"/>
      <point x="54.0" y="542.0"/>
      <point x="93.0" y="703.0"/>
      <point x="258.0" y="703.0" type="curve"/>
      <point x="317.0" y="703.0"/>
      <point x="366.0" y="674.0"/>
      <point x="406.0" y="638.0" type="curve"/>
    </contour>
    <contour>
      <point x="257.0" y="839.0" type="move" name="top"/>
    </contour>
    <contour>
      <point x="238.0" y="13.0" type="move" name="bottom"/>
    </contour>
  </outline>
</glyph>
<glyph name="D" format="1">
  <advance width="557"/>
  <unicode hex="0044"/>
  <outline>
    <contour>
      <point x="162.0" y="22.0"/>
      <point x="162.0" y="0.0"/>
      <point x="162.0" y="22.0" type="curve"/>
      <point x="30.0" y="22.0"/>
      <point x="162.0" y="22.0"/>
      <point x="30.0" y="22.0" type="curve"/>
      <point x="30.0" y="0.0"/>
      <point x="30.0" y="22.0"/>
      <point x="30.0" y="0.0" type="curve"/>
      <point x="74.0" y="0.0"/>
      <point x="118.0" y="0.0"/>
      <point x="162.0" y="0.0" type="curve"/>
    </contour>
    <contour>
      <point x="162.0" y="722.0"/>
      <point x="162.0" y="700.0"/>
      <point x="162.0" y="722.0" type="curve"/>
      <point x="118.0" y="722.0"/>
      <point x="74.0" y="722.0"/>
      <point x="30.0" y="722.0" type="curve"/>
      <point x="30.0" y="700.0"/>
      <point x="30.0" y="722.0"/>
      <point x="30.0" y="700.0" type="curve"/>
      <point x="162.0" y="700.0"/>
      <point x="30.0" y="700.0"/>
      <point x="162.0" y="700.0" type="curve"/>
    </contour>
    <contour>
      <point x="149.0" y="722.0"/>
      <point x="173.0" y="722.0"/>
      <point x="149.0" y="722.0" type="curve"/>
      <point x="149.0" y="481.0"/>
      <point x="149.0" y="241.0"/>
      <point x="149.0" y="0.0" type="curve"/>
      <point x="173.0" y="0.0"/>
      <point x="149.0" y="0.0"/>
      <point x="173.0" y="0.0" type="curve"/>
      <point x="173.0" y="241.0"/>
      <point x="173.0" y="481.0"/>
      <point x="173.0" y="722.0" type="curve"/>
    </contour>
    <contour>
      <point x="162.0" y="14.0"/>
      <point x="162.0" y="8.0"/>
      <point x="162.0" y="0.0" type="curve"/>
      <point x="207.0" y="0.0"/>
      <point x="235.0" y="0.0"/>
      <point x="280.0" y="0.0" type="curve"/>
      <point x="462.0" y="0.0"/>
      <point x="526.0" y="153.0"/>
      <point x="526.0" y="356.0" type="curve"/>
      <point x="526.0" y="565.0"/>
      <point x="458.0" y="722.0"/>
      <point x="271.0" y="722.0" type="curve"/>
      <point x="230.0" y="722.0"/>
      <point x="203.0" y="722.0"/>
      <point x="162.0" y="722.0" type="curve"/>
      <point x="162.0" y="714.0"/>
      <point x="162.0" y="708.0"/>
      <point x="162.0" y="700.0" type="curve"/>
      <point x="203.0" y="700.0"/>
      <point x="229.0" y="700.0"/>
      <point x="270.0" y="700.0" type="curve"/>
      <point x="444.0" y="700.0"/>
      <point x="502.0" y="551.0"/>
      <point x="502.0" y="355.0" type="curve"/>
      <point x="502.0" y="167.0"/>
      <point x="449.0" y="22.0"/>
      <point x="282.0" y="22.0" type="curve"/>
      <point x="237.0" y="22.0"/>
      <point x="207.0" y="22.0"/>
      <point x="162.0" y="22.0" type="curve"/>
    </contour>
  </outline>
</glyph>
<glyph name="E" format="1">
  <advance width="489"/>
  <unicode hex="0045"/>
  <outline>
    <contour>
      <point x="460.0" y="11.0"/>
      <point x="438.0" y="11.0"/>
      <point x="460.0" y="11.0" type="curve"/>
      <point x="460.0" y="131.0"/>
      <point x="460.0" y="11.0"/>
      <point x="460.0" y="131.0" type="curve"/>
      <point x="438.0" y="131.0"/>
      <point x="460.0" y="131.0"/>
      <point x="438.0" y="131.0" type="curve"/>
      <point x="438.0" y="11.0"/>
      <point x="438.0" y="131.0"/>
      <point x="438.0" y="11.0" type="curve"/>
    </contour>
    <contour>
      <point x="414.0" y="711.0"/>
      <point x="436.0" y="711.0"/>
      <point x="414.0" y="711.0" type="curve"/>
      <point x="414.0" y="591.0"/>
      <point x="414.0" y="711.0"/>
      <point x="414.0" y="591.0" type="curve"/>
      <point x="436.0" y="591.0"/>
      <point x="414.0" y="591.0"/>
      <point x="436.0" y="591.0" type="curve"/>
      <point x="436.0" y="711.0"/>
      <point x="436.0" y="591.0"/>
      <point x="436.0" y="711.0" type="curve"/>
    </contour>
    <contour>
      <point x="160.0" y="22.0"/>
      <point x="160.0" y="0.0"/>
      <point x="160.0" y="22.0" type="curve"/>
      <point x="28.0" y="22.0"/>
      <point x="160.0" y="22.0"/>
      <point x="28.0" y="22.0" type="curve"/>
      <point x="28.0" y="0.0"/>
      <point x="28.0" y="22.0"/>
      <point x="28.0" y="0.0" type="curve"/>
      <point x="72.0" y="0.0"/>
      <point x="116.0" y="0.0"/>
      <point x="160.0" y="0.0" type="curve"/>
    </contour>
    <contour>
      <point x="160.0" y="722.0"/>
      <point x="160.0" y="700.0"/>
      <point x="160.0" y="722.0" type="curve"/>
      <point x="116.0" y="722.0"/>
      <point x="72.0" y="722.0"/>
      <point x="28.0" y="722.0" type="curve"/>
      <point x="28.0" y="700.0"/>
      <point x="28.0" y="722.0"/>
      <point x="28.0" y="700.0" type="curve"/>
      <point x="160.0" y="700.0"/>
      <point x="28.0" y="700.0"/>
      <point x="160.0" y="700.0" type="curve"/>
    </contour>
    <contour>
      <point x="162.0" y="363.0"/>
      <point x="162.0" y="385.0"/>
      <point x="162.0" y="363.0" type="curve"/>
      <point x="239.0" y="363.0"/>
      <point x="315.0" y="363.0"/>
      <point x="392.0" y="363.0" type="curve"/>
      <point x="392.0" y="385.0"/>
      <point x="392.0" y="363.0"/>
      <point x="392.0" y="385.0" type="curve"/>
      <point x="315.0" y="385.0"/>
      <point x="239.0" y="385.0"/>
      <point x="162.0" y="385.0" type="curve"/>
    </contour>
    <contour>
      <point x="152.0" y="700.0"/>
      <point x="152.0" y="722.0"/>
      <point x="152.0" y="700.0" type="curve"/>
      <point x="247.0" y="700.0"/>
      <point x="341.0" y="700.0"/>
      <point x="436.0" y="700.0" type="curve"/>
      <point x="436.0" y="722.0"/>
      <point x="436.0" y="700.0"/>
      <point x="436.0" y="722.0" type="curve"/>
      <point x="341.0" y="722.0"/>
      <point x="247.0" y="722.0"/>
      <point x="152.0" y="722.0" type="curve"/>
    </contour>
    <contour>
      <point x="172.0" y="0.0"/>
      <point x="148.0" y="0.0"/>
      <point x="172.0" y="0.0" type="curve"/>
      <point x="172.0" y="0.0"/>
      <point x="172.0" y="722.0"/>
      <point x="172.0" y="722.0" type="curve"/>
      <point x="148.0" y="722.0"/>
      <point x="172.0" y="722.0"/>
      <point x="148.0" y="722.0" type="curve"/>
      <point x="148.0" y="481.0"/>
      <point x="148.0" y="241.0"/>
      <point x="148.0" y="0.0" type="curve"/>
    </contour>
    <contour>
      <point x="152.0" y="0.0"/>
      <point x="152.0" y="22.0"/>
      <point x="152.0" y="0.0" type="curve"/>
      <point x="255.0" y="0.0"/>
      <point x="357.0" y="0.0"/>
      <point x="460.0" y="0.0" type="curve"/>
      <point x="460.0" y="22.0"/>
      <point x="460.0" y="0.0"/>
      <point x="460.0" y="22.0" type="curve"/>
      <point x="357.0" y="22.0"/>
      <point x="255.0" y="22.0"/>
      <point x="152.0" y="22.0" type="curve"/>
    </contour>
    <contour>
      <point x="284.0" y="837.0" type="move" name="top"/>
    </contour>
    <contour>
      <point x="444.0" y="14.0" type="move" name="bottom"/>
    </contour>
  </outline>
</glyph>
<glyph name="F" format="1">
  <advance width="475"/>
  <unicode hex="0046"/>
  <outline>
    <contour>
      <point x="157.0" y="0.0"/>
      <point x="157.0" y="22.0"/>
      <point x="157.0" y="0.0" type="curve"/>
      <point x="201.0" y="0.0"/>
      <point x="157.0" y="0.0"/>
      <point x="289.0" y="0.0" type="curve"/>
      <point x="289.0" y="22.0"/>
      <point x="289.0" y="0.0"/>
      <point x="289.0" y="22.0" type="curve"/>
      <point x="157.0" y="22.0"/>
      <point x="289.0" y="22.0"/>
      <point x="157.0" y="22.0" type="curve"/>
    </contour>
    <contour>
      <point x="157.0" y="722.0"/>
      <point x="157.0" y="700.0"/>
      <point x="157.0" y="722.0" type="curve"/>
      <point x="113.0" y="722.0"/>
      <point x="69.0" y="722.0"/>
      <point x="25.0" y="722.0" type="curve"/>
      <point x="25.0" y="700.0"/>
      <point x="25.0" y="722.0"/>
      <point x="25.0" y="700.0" type="curve"/>
      <point x="157.0" y="700.0"/>
      <point x="25.0" y="700.0"/>
      <point x="157.0" y="700.0" type="curve"/>
    </contour>
    <contour>
      <point x="157.0" y="22.0"/>
      <point x="157.0" y="0.0"/>
      <point x="157.0" y="22.0" type="curve"/>
      <point x="25.0" y="22.0"/>
      <point x="157.0" y="22.0"/>
      <point x="25.0" y="22.0" type="curve"/>
      <point x="25.0" y="0.0"/>
      <point x="25.0" y="22.0"/>
      <point x="25.0" y="0.0" type="curve"/>
      <point x="69.0" y="0.0"/>
      <point x="113.0" y="0.0"/>
      <point x="157.0" y="0.0" type="curve"/>
    </contour>
    <contour>
      <point x="414.0" y="711.0"/>
      <point x="436.0" y="711.0"/>
      <point x="414.0" y="711.0" type="curve"/>
      <point x="414.0" y="591.0"/>
      <point x="414.0" y="711.0"/>
      <point x="414.0" y="591.0" type="curve"/>
      <point x="436.0" y="591.0"/>
      <point x="414.0" y="591.0"/>
      <point x="436.0" y="591.0" type="curve"/>
      <point x="436.0" y="711.0"/>
      <point x="436.0" y="591.0"/>
      <point x="436.0" y="711.0" type="curve"/>
    </contour>
    <contour>
      <point x="160.0" y="363.0"/>
      <point x="160.0" y="385.0"/>
      <point x="160.0" y="363.0" type="curve"/>
      <point x="235.0" y="363.0"/>
      <point x="310.0" y="363.0"/>
      <point x="385.0" y="363.0" type="curve"/>
      <point x="385.0" y="385.0"/>
      <point x="385.0" y="363.0"/>
      <point x="385.0" y="385.0" type="curve"/>
      <point x="310.0" y="385.0"/>
      <point x="235.0" y="385.0"/>
      <point x="160.0" y="385.0" type="curve"/>
    </contour>
    <contour>
      <point x="169.0" y="0.0"/>
      <point x="145.0" y="0.0"/>
      <point x="169.0" y="0.0" type="curve"/>
      <point x="169.0" y="0.0"/>
      <point x="169.0" y="722.0"/>
      <point x="169.0" y="722.0" type="curve"/>
      <point x="145.0" y="722.0"/>
      <point x="169.0" y="722.0"/>
      <point x="145.0" y="722.0" type="curve"/>
      <point x="145.0" y="481.0"/>
      <point x="145.0" y="241.0"/>
      <point x="145.0" y="0.0" type="curve"/>
    </contour>
    <contour>
      <point x="149.0" y="700.0"/>
      <point x="149.0" y="722.0"/>
      <point x="149.0" y="700.0" type="curve"/>
      <point x="245.0" y="700.0"/>
      <point x="340.0" y="700.0"/>
      <point x="436.0" y="700.0" type="curve"/>
      <point x="436.0" y="722.0"/>
      <point x="436.0" y="700.0"/>
      <point x="436.0" y="722.0" type="curve"/>
      <point x="340.0" y="722.0"/>
      <point x="245.0" y="722.0"/>
      <point x="149.0" y="722.0" type="curve"/>
    </contour>
  </outline>
</glyph>
<glyph name="G" format="1">
  <advance width="580"/>
  <unicode hex="0047"/>
  <outline>
    <contour>
      <point x="476.02" y="642.057444444"/>
      <point x="497.8" y="642.057444444"/>
      <point x="476.02" y="642.057444444" type="curve"/>
      <point x="476.02" y="522.057444444"/>
      <point x="476.02" y="642.057444444"/>
      <point x="476.02" y="522.057444444" type="curve"/>
      <point x="497.8" y="522.057444444"/>
      <point x="476.02" y="522.057444444"/>
      <point x="497.8" y="522.057444444" type="curve"/>
      <point x="497.8" y="642.057444444"/>
      <point x="497.8" y="522.057444444"/>
      <point x="497.8" y="642.057444444" type="curve"/>
    </contour>
    <contour>
      <point x="501.9" y="318.897777778"/>
      <point x="501.9" y="297.337777778"/>
      <point x="501.9" y="318.897777778" type="curve"/>
      <point x="450.56718" y="318.897777778"/>
      <point x="399.23282" y="318.897777778"/>
      <point x="347.9" y="318.897777778" type="curve"/>
      <point x="347.9" y="297.337777778"/>
      <point x="347.9" y="318.897777778"/>
      <point x="347.9" y="297.337777778" type="curve"/>
      <point x="399.23282" y="297.337777778"/>
      <point x="450.56718" y="297.337777778"/>
      <point x="501.9" y="297.337777778" type="curve"/>
    </contour>
    <contour>
      <point x="509.7" y="77.0294444444"/>
      <point x="487.7" y="77.0294444444"/>
      <point x="509.7" y="77.0294444444" type="curve"/>
      <point x="509.7" y="157.651415994"/>
      <point x="509.7" y="238.275806228"/>
      <point x="509.7" y="318.897777778" type="curve"/>
      <point x="487.7" y="318.897777778"/>
      <point x="509.7" y="318.897777778"/>
      <point x="487.7" y="318.897777778" type="curve"/>
      <point x="487.7" y="238.275806228"/>
      <point x="487.7" y="157.651415994"/>
      <point x="487.7" y="77.0294444444" type="curve"/>
    </contour>
    <contour>
      <point x="497.8" y="642.057444444"/>
      <point x="485.7" y="623.731444444"/>
      <point x="497.8" y="642.057444444" type="curve"/>
      <point x="439.956207866" y="696.360285156"/>
      <point x="381.364385145" y="727.0"/>
      <point x="302.4" y="727.0" type="curve"/>
      <point x="122.527438502" y="727.0"/>
      <point x="68.4" y="570.452071199"/>
      <point x="68.4" y="364.910888889" type="curve"/>
      <point x="68.4" y="154.160184248"/>
      <point x="125.769078737" y="-5.0"/>
      <point x="310.1" y="-5.0" type="curve"/>
      <point x="393.844649112" y="-5.0"/>
      <point x="444.990430612" y="23.7858373802"/>
      <point x="509.7" y="77.0294444444" type="curve"/>
      <point x="495.0" y="97.0"/>
      <point x="510.0" y="77.0"/>
      <point x="495.0" y="97.0" type="curve"/>
      <point x="451.0" y="55.0"/>
      <point x="387.0" y="19.0"/>
      <point x="310.0" y="19.0" type="curve"/>
      <point x="139.0" y="19.0"/>
      <point x="92.6" y="171.371084085"/>
      <point x="92.6" y="367.066888889" type="curve"/>
      <point x="92.6" y="554.386938005"/>
      <point x="139.0" y="703.0"/>
      <point x="302.0" y="703.0" type="curve"/>
      <point x="376.0" y="703.0"/>
      <point x="431.339024759" y="673.908813713"/>
      <point x="485.7" y="623.731444444" type="curve"/>
    </contour>
    <contour>
      <point x="295.0" y="837.0" type="move" name="top"/>
    </contour>
    <contour>
      <point x="317.0" y="15.0" type="move" name="bottom"/>
    </contour>
  </outline>
</glyph>
<glyph name="H" format="1">
  <advance width="680"/>
  <unicode hex="0048"/>
  <outline>
    <contour>
      <point x="517.0" y="700.0"/>
      <point x="517.0" y="722.0"/>
      <point x="517.0" y="700.0" type="curve"/>
      <point x="649.0" y="700.0"/>
      <point x="517.0" y="700.0"/>
      <point x="649.0" y="700.0" type="curve"/>
      <point x="649.0" y="722.0"/>
      <point x="649.0" y="700.0"/>
      <point x="649.0" y="722.0" type="curve"/>
      <point x="605.0" y="722.0"/>
      <point x="561.0" y="722.0"/>
      <point x="517.0" y="722.0" type="curve"/>
    </contour>
    <contour>
      <point x="517.0" y="0.0"/>
      <point x="517.0" y="22.0"/>
      <point x="517.0" y="0.0" type="curve"/>
      <point x="561.0" y="0.0"/>
      <point x="605.0" y="0.0"/>
      <point x="649.0" y="0.0" type="curve"/>
      <point x="649.0" y="22.0"/>
      <point x="649.0" y="0.0"/>
      <point x="649.0" y="22.0" type="curve"/>
      <point x="517.0" y="22.0"/>
      <point x="649.0" y="22.0"/>
      <point x="517.0" y="22.0" type="curve"/>
    </contour>
    <contour>
      <point x="517.0" y="22.0"/>
      <point x="517.0" y="0.0"/>
      <point x="517.0" y="22.0" type="curve"/>
      <point x="385.0" y="22.0"/>
      <point x="517.0" y="22.0"/>
      <point x="385.0" y="22.0" type="curve"/>
      <point x="385.0" y="0.0"/>
      <point x="385.0" y="22.0"/>
      <point x="385.0" y="0.0" type="curve"/>
      <point x="429.0" y="0.0"/>
      <point x="473.0" y="0.0"/>
      <point x="517.0" y="0.0" type="curve"/>
    </contour>
    <contour>
      <point x="517.0" y="722.0"/>
      <point x="517.0" y="700.0"/>
      <point x="517.0" y="722.0" type="curve"/>
      <point x="473.0" y="722.0"/>
      <point x="429.0" y="722.0"/>
      <point x="385.0" y="722.0" type="curve"/>
      <point x="385.0" y="700.0"/>
      <point x="385.0" y="722.0"/>
      <point x="385.0" y="700.0" type="curve"/>
      <point x="517.0" y="700.0"/>
      <point x="385.0" y="700.0"/>
      <point x="517.0" y="700.0" type="curve"/>
    </contour>
    <contour>
      <point x="163.0" y="700.0"/>
      <point x="163.0" y="722.0"/>
      <point x="163.0" y="700.0" type="curve"/>
      <point x="295.0" y="700.0"/>
      <point x="163.0" y="700.0"/>
      <point x="295.0" y="700.0" type="curve"/>
      <point x="295.0" y="722.0"/>
      <point x="295.0" y="700.0"/>
      <point x="295.0" y="722.0" type="curve"/>
      <point x="251.0" y="722.0"/>
      <point x="207.0" y="722.0"/>
      <point x="163.0" y="722.0" type="curve"/>
    </contour>
    <contour>
      <point x="163.0" y="722.0"/>
      <point x="163.0" y="700.0"/>
      <point x="163.0" y="722.0" type="curve"/>
      <point x="119.0" y="722.0"/>
      <point x="75.0" y="722.0"/>
      <point x="31.0" y="722.0" type="curve"/>
      <point x="31.0" y="700.0"/>
      <point x="31.0" y="722.0"/>
      <point x="31.0" y="700.0" type="curve"/>
      <point x="163.0" y="700.0"/>
      <point x="31.0" y="700.0"/>
      <point x="163.0" y="700.0" type="curve"/>
    </contour>
    <contour>
      <point x="163.0" y="0.0"/>
      <point x="163.0" y="22.0"/>
      <point x="163.0" y="0.0" type="curve"/>
      <point x="207.0" y="0.0"/>
      <point x="163.0" y="0.0"/>
      <point x="295.0" y="0.0" type="curve"/>
      <point x="295.0" y="22.0"/>
      <point x="295.0" y="0.0"/>
      <point x="295.0" y="22.0" type="curve"/>
      <point x="163.0" y="22.0"/>
      <point x="295.0" y="22.0"/>
      <point x="163.0" y="22.0" type="curve"/>
    </contour>
    <contour>
      <point x="163.0" y="22.0"/>
      <point x="163.0" y="0.0"/>
      <point x="163.0" y="22.0" type="curve"/>
      <point x="31.0" y="22.0"/>
      <point x="163.0" y="22.0"/>
      <point x="31.0" y="22.0" type="curve"/>
      <point x="31.0" y="0.0"/>
      <point x="31.0" y="22.0"/>
      <point x="31.0" y="0.0" type="curve"/>
      <point x="75.0" y="0.0"/>
      <point x="119.0" y="0.0"/>
      <point x="163.0" y="0.0" type="curve"/>
    </contour>
    <contour>
      <point x="175.0" y="0.0"/>
      <point x="151.0" y="0.0"/>
      <point x="175.0" y="0.0" type="curve"/>
      <point x="175.0" y="0.0"/>
      <point x="175.0" y="722.0"/>
      <point x="175.0" y="722.0" type="curve"/>
      <point x="151.0" y="722.0"/>
      <point x="175.0" y="722.0"/>
      <point x="151.0" y="722.0" type="curve"/>
      <point x="151.0" y="481.0"/>
      <point x="151.0" y="241.0"/>
      <point x="151.0" y="0.0" type="curve"/>
    </contour>
    <contour>
      <point x="515.0" y="374.0"/>
      <point x="515.0" y="352.0"/>
      <point x="515.0" y="374.0" type="curve"/>
      <point x="397.0" y="374.0"/>
      <point x="280.0" y="374.0"/>
      <point x="163.0" y="374.0" type="curve"/>
      <point x="163.0" y="352.0"/>
      <point x="163.0" y="374.0"/>
      <point x="163.0" y="352.0" type="curve"/>
      <point x="280.0" y="352.0"/>
      <point x="397.0" y="352.0"/>
      <point x="515.0" y="352.0" type="curve"/>
    </contour>
    <contour>
      <point x="528.0" y="1.0"/>
      <point x="504.0" y="1.0"/>
      <point x="528.0" y="1.0" type="curve"/>
      <point x="528.0" y="241.0"/>
      <point x="528.0" y="481.0"/>
      <point x="528.0" y="721.0" type="curve"/>
      <point x="504.0" y="721.0"/>
      <point x="528.0" y="721.0"/>
      <point x="504.0" y="721.0" type="curve"/>
      <point x="504.0" y="721.0"/>
      <point x="504.0" y="1.0"/>
      <point x="504.0" y="1.0" type="curve"/>
    </contour>
  </outline>
</glyph>
<glyph name="I" format="1">
  <advance width="312"/>
  <unicode hex="0049"/>
  <outline>
    <contour>
      <point x="153.0" y="722.0"/>
      <point x="153.0" y="700.0"/>
      <point x="153.0" y="722.0" type="curve"/>
      <point x="109.0" y="722.0"/>
      <point x="65.0" y="722.0"/>
      <point x="21.0" y="722.0" type="curve"/>
      <point x="21.0" y="700.0"/>
      <point x="21.0" y="722.0"/>
      <point x="21.0" y="700.0" type="curve"/>
      <point x="153.0" y="700.0"/>
      <point x="21.0" y="700.0"/>
      <point x="153.0" y="700.0" type="curve"/>
    </contour>
    <contour>
      <point x="153.0" y="700.0"/>
      <point x="153.0" y="722.0"/>
      <point x="153.0" y="700.0" type="curve"/>
      <point x="286.0" y="700.0"/>
      <point x="153.0" y="700.0"/>
      <point x="286.0" y="700.0" type="curve"/>
      <point x="286.0" y="722.0"/>
      <point x="286.0" y="700.0"/>
      <point x="286.0" y="722.0" type="curve"/>
      <point x="241.0" y="722.0"/>
      <point x="197.0" y="722.0"/>
      <point x="153.0" y="722.0" type="curve"/>
    </contour>
    <contour>
      <point x="153.0" y="0.0"/>
      <point x="153.0" y="22.0"/>
      <point x="153.0" y="0.0" type="curve"/>
      <point x="197.0" y="0.0"/>
      <point x="241.0" y="0.0"/>
      <point x="286.0" y="0.0" type="curve"/>
      <point x="286.0" y="22.0"/>
      <point x="286.0" y="0.0"/>
      <point x="286.0" y="22.0" type="curve"/>
      <point x="153.0" y="22.0"/>
      <point x="286.0" y="22.0"/>
      <point x="153.0" y="22.0" type="curve"/>
    </contour>
    <contour>
      <point x="153.0" y="22.0"/>
      <point x="153.0" y="0.0"/>
      <point x="153.0" y="22.0" type="curve"/>
      <point x="21.0" y="22.0"/>
      <point x="153.0" y="22.0"/>
      <point x="21.0" y="22.0" type="curve"/>
      <point x="21.0" y="0.0"/>
      <point x="21.0" y="22.0"/>
      <point x="21.0" y="0.0" type="curve"/>
      <point x="65.0" y="0.0"/>
      <point x="109.0" y="0.0"/>
      <point x="153.0" y="0.0" type="curve"/>
    </contour>
    <contour>
      <point x="165.0" y="0.0"/>
      <point x="141.0" y="0.0"/>
      <point x="165.0" y="0.0" type="curve"/>
      <point x="165.0" y="241.0"/>
      <point x="165.0" y="481.0"/>
      <point x="165.0" y="722.0" type="curve"/>
      <point x="141.0" y="722.0"/>
      <point x="165.0" y="722.0"/>
      <point x="141.0" y="722.0" type="curve"/>
      <point x="141.0" y="481.0"/>
      <point x="141.0" y="241.0"/>
      <point x="141.0" y="0.0" type="curve"/>
    </contour>
    <contour>
      <point x="154.0" y="839.0" type="move" name="top"/>
    </contour>
    <contour>
      <point x="159.0" y="10.0" type="move" name="bottom"/>
    </contour>
  </outline>
</glyph>
<glyph name="J" format="1">
  <advance width="397"/>
  <unicode hex="004A"/>
  <outline>
    <contour>
      <point x="231.7" y="722.0"/>
      <point x="231.7" y="700.44"/>
      <point x="231.7" y="722.0" type="curve"/>
      <point x="187.667107" y="722.0"/>
      <point x="143.632893" y="722.0"/>
      <point x="99.6" y="722.0" type="curve"/>
      <point x="99.6" y="700.44"/>
      <point x="99.6" y="722.0"/>
      <point x="99.6" y="700.44" type="curve"/>
      <point x="231.7" y="700.44"/>
      <point x="99.6" y="700.44"/>
      <point x="231.7" y="700.44" type="curve"/>
    </contour>
    <contour>
      <point x="231.7" y="700.44"/>
      <point x="231.7" y="722.0"/>
      <point x="231.7" y="700.44" type="curve"/>
      <point x="363.8" y="700.44"/>
      <point x="231.7" y="700.44"/>
      <point x="363.8" y="700.44" type="curve"/>
      <point x="363.8" y="722.0"/>
      <point x="363.8" y="700.44"/>
      <point x="363.8" y="722.0" type="curve"/>
      <point x="319.767107" y="722.0"/>
      <point x="275.732893" y="722.0"/>
      <point x="231.7" y="722.0" type="curve"/>
    </contour>
    <contour>
      <point x="32.0" y="49.0"/>
      <point x="29.0" y="44.0"/>
      <point x="24.0" y="38.0" type="curve"/>
      <point x="53.0" y="11.0"/>
      <point x="76.0" y="-5.0"/>
      <point x="115.0" y="-5.0" type="curve"/>
      <point x="221.0" y="-5.0"/>
      <point x="243.0" y="83.0"/>
      <point x="243.0" y="214.0" type="curve"/>
      <point x="243.0" y="406.0"/>
      <point x="243.0" y="530.0"/>
      <point x="243.0" y="722.0" type="curve"/>
      <point x="234.0" y="722.0"/>
      <point x="228.0" y="722.0"/>
      <point x="219.0" y="722.0" type="curve"/>
      <point x="219.0" y="530.0"/>
      <point x="219.0" y="406.0"/>
      <point x="219.0" y="214.0" type="curve"/>
      <point x="219.0" y="106.0"/>
      <point x="208.0" y="17.0"/>
      <point x="115.0" y="17.0" type="curve"/>
      <point x="81.0" y="17.0"/>
      <point x="62.0" y="33.0"/>
      <point x="37.0" y="55.0" type="curve"/>
    </contour>
  </outline>
</glyph>
<glyph name="K" format="1">
  <advance width="595"/>
  <unicode hex="004B"/>
  <outline>
    <contour>
      <point x="455.0" y="22.0"/>
      <point x="453.0" y="0.0"/>
      <point x="455.0" y="22.0" type="curve"/>
      <point x="322.0" y="22.0"/>
      <point x="455.0" y="22.0"/>
      <point x="322.0" y="22.0" type="curve"/>
      <point x="322.0" y="0.0"/>
      <point x="322.0" y="22.0"/>
      <point x="322.0" y="0.0" type="curve"/>
      <point x="366.0" y="0.0"/>
      <point x="410.0" y="0.0"/>
      <point x="453.0" y="0.0" type="curve"/>
    </contour>
    <contour>
      <point x="438.0" y="722.0"/>
      <point x="438.0" y="700.0"/>
      <point x="438.0" y="722.0" type="curve"/>
      <point x="394.0" y="722.0"/>
      <point x="350.0" y="722.0"/>
      <point x="306.0" y="722.0" type="curve"/>
      <point x="306.0" y="700.0"/>
      <point x="306.0" y="722.0"/>
      <point x="306.0" y="700.0" type="curve"/>
      <point x="438.0" y="700.0"/>
      <point x="306.0" y="700.0"/>
      <point x="438.0" y="700.0" type="curve"/>
    </contour>
    <contour>
      <point x="454.0" y="0.0"/>
      <point x="454.0" y="22.0"/>
      <point x="454.0" y="0.0" type="curve"/>
      <point x="498.0" y="0.0"/>
      <point x="532.0" y="0.0"/>
      <point x="576.0" y="0.0" type="curve"/>
      <point x="576.0" y="22.0"/>
      <point x="576.0" y="0.0"/>
      <point x="576.0" y="22.0" type="curve"/>
      <point x="444.0" y="22.0"/>
      <point x="586.0" y="22.0"/>
      <point x="454.0" y="22.0" type="curve"/>
    </contour>
    <contour>
      <point x="438.0" y="700.0"/>
      <point x="438.0" y="722.0"/>
      <point x="438.0" y="700.0" type="curve"/>
      <point x="570.0" y="700.0"/>
      <point x="428.0" y="700.0"/>
      <point x="560.0" y="700.0" type="curve"/>
      <point x="560.0" y="722.0"/>
      <point x="560.0" y="700.0"/>
      <point x="560.0" y="722.0" type="curve"/>
      <point x="516.0" y="722.0"/>
      <point x="482.0" y="722.0"/>
      <point x="438.0" y="722.0" type="curve"/>
    </contour>
    <contour>
      <point x="152.0" y="722.0"/>
      <point x="152.0" y="700.0"/>
      <point x="152.0" y="722.0" type="curve"/>
      <point x="108.0" y="722.0"/>
      <point x="64.0" y="722.0"/>
      <point x="20.0" y="722.0" type="curve"/>
      <point x="20.0" y="700.0"/>
      <point x="20.0" y="722.0"/>
      <point x="20.0" y="700.0" type="curve"/>
      <point x="152.0" y="700.0"/>
      <point x="20.0" y="700.0"/>
      <point x="152.0" y="700.0" type="curve"/>
    </contour>
    <contour>
      <point x="152.0" y="700.0"/>
      <point x="152.0" y="722.0"/>
      <point x="152.0" y="700.0" type="curve"/>
      <point x="284.0" y="700.0"/>
      <point x="132.0" y="700.0"/>
      <point x="264.0" y="700.0" type="curve"/>
      <point x="264.0" y="722.0"/>
      <point x="264.0" y="700.0"/>
      <point x="264.0" y="722.0" type="curve"/>
      <point x="220.0" y="722.0"/>
      <point x="196.0" y="722.0"/>
      <point x="152.0" y="722.0" type="curve"/>
    </contour>
    <contour>
      <point x="152.0" y="0.0"/>
      <point x="152.0" y="22.0"/>
      <point x="152.0" y="0.0" type="curve"/>
      <point x="196.0" y="0.0"/>
      <point x="132.0" y="0.0"/>
      <point x="264.0" y="0.0" type="curve"/>
      <point x="264.0" y="22.0"/>
      <point x="264.0" y="0.0"/>
      <point x="264.0" y="22.0" type="curve"/>
      <point x="132.0" y="22.0"/>
      <point x="284.0" y="22.0"/>
      <point x="152.0" y="22.0" type="curve"/>
    </contour>
    <contour>
      <point x="152.0" y="22.0"/>
      <point x="152.0" y="0.0"/>
      <point x="152.0" y="22.0" type="curve"/>
      <point x="20.0" y="22.0"/>
      <point x="152.0" y="22.0"/>
      <point x="20.0" y="22.0" type="curve"/>
      <point x="20.0" y="0.0"/>
      <point x="20.0" y="22.0"/>
      <point x="20.0" y="0.0" type="curve"/>
      <point x="64.0" y="0.0"/>
      <point x="108.0" y="0.0"/>
      <point x="152.0" y="0.0" type="curve"/>
    </contour>
    <contour>
      <point x="426.0" y="722.0"/>
      <point x="471.0" y="722.0"/>
      <point x="431.0" y="722.0" type="curve"/>
      <point x="337.0" y="608.0"/>
      <point x="243.0" y="494.0"/>
      <point x="149.0" y="380.0" type="curve"/>
      <point x="183.0" y="380.0"/>
      <point x="144.0" y="380.0"/>
      <point x="178.0" y="380.0" type="curve"/>
      <point x="273.0" y="494.0"/>
      <point x="370.0" y="608.0"/>
      <point x="466.0" y="722.0" type="curve"/>
    </contour>
    <contour>
      <point x="164.0" y="0.0"/>
      <point x="140.0" y="0.0"/>
      <point x="164.0" y="0.0" type="curve"/>
      <point x="164.0" y="0.0"/>
      <point x="164.0" y="722.0"/>
      <point x="164.0" y="722.0" type="curve"/>
      <point x="140.0" y="722.0"/>
      <point x="164.0" y="722.0"/>
      <point x="140.0" y="722.0" type="curve"/>
      <point x="140.0" y="481.0"/>
      <point x="140.0" y="241.0"/>
      <point x="140.0" y="0.0" type="curve"/>
    </contour>
    <contour>
      <point x="488.0" y="0.0"/>
      <point x="442.0" y="0.0"/>
      <point x="483.0" y="0.0" type="curve"/>
      <point x="381.0" y="127.0"/>
      <point x="279.0" y="253.0"/>
      <point x="178.0" y="380.0" type="curve"/>
      <point x="144.0" y="380.0"/>
      <point x="183.0" y="380.0"/>
      <point x="149.0" y="380.0" type="curve"/>
      <point x="248.0" y="254.0"/>
      <point x="347.0" y="126.0"/>
      <point x="447.0" y="0.0" type="curve"/>
    </contour>
    <contour>
      <point x="317.0" y="15.0" type="move" name="bottom"/>
    </contour>
  </outline>
</glyph>
<glyph name="L" format="1">
  <advance width="516"/>
  <unicode hex="004C"/>
  <outline>
    <contour>
      <point x="462.0" y="11.0"/>
      <point x="440.0" y="11.0"/>
      <point x="462.0" y="11.0" type="curve"/>
      <point x="462.0" y="131.0"/>
      <point x="462.0" y="11.0"/>
      <point x="462.0" y="131.0" type="curve"/>
      <point x="440.0" y="131.0"/>
      <point x="462.0" y="131.0"/>
      <point x="440.0" y="131.0" type="curve"/>
      <point x="440.0" y="11.0"/>
      <point x="440.0" y="131.0"/>
      <point x="440.0" y="11.0" type="curve"/>
    </contour>
    <contour>
      <point x="166.0" y="22.0"/>
      <point x="166.0" y="0.0"/>
      <point x="166.0" y="22.0" type="curve"/>
      <point x="34.0" y="22.0"/>
      <point x="166.0" y="22.0"/>
      <point x="34.0" y="22.0" type="curve"/>
      <point x="34.0" y="0.0"/>
      <point x="34.0" y="22.0"/>
      <point x="34.0" y="0.0" type="curve"/>
      <point x="78.0" y="0.0"/>
      <point x="122.0" y="0.0"/>
      <point x="166.0" y="0.0" type="curve"/>
    </contour>
    <contour>
      <point x="166.0" y="722.0"/>
      <point x="166.0" y="700.0"/>
      <point x="166.0" y="722.0" type="curve"/>
      <point x="122.0" y="722.0"/>
      <point x="78.0" y="722.0"/>
      <point x="34.0" y="722.0" type="curve"/>
      <point x="34.0" y="700.0"/>
      <point x="34.0" y="722.0"/>
      <point x="34.0" y="700.0" type="curve"/>
      <point x="166.0" y="700.0"/>
      <point x="34.0" y="700.0"/>
      <point x="166.0" y="700.0" type="curve"/>
    </contour>
    <contour>
      <point x="166.0" y="700.0"/>
      <point x="166.0" y="722.0"/>
      <point x="166.0" y="700.0" type="curve"/>
      <point x="298.0" y="700.0"/>
      <point x="166.0" y="700.0"/>
      <point x="298.0" y="700.0" type="curve"/>
      <point x="298.0" y="722.0"/>
      <point x="298.0" y="700.0"/>
      <point x="298.0" y="722.0" type="curve"/>
      <point x="254.0" y="722.0"/>
      <point x="210.0" y="722.0"/>
      <point x="166.0" y="722.0" type="curve"/>
    </contour>
    <contour>
      <point x="179.0" y="0.0"/>
      <point x="155.0" y="0.0"/>
      <point x="179.0" y="0.0" type="curve"/>
      <point x="179.0" y="241.0"/>
      <point x="179.0" y="481.0"/>
      <point x="179.0" y="722.0" type="curve"/>
      <point x="155.0" y="722.0"/>
      <point x="179.0" y="722.0"/>
      <point x="155.0" y="722.0" type="curve"/>
      <point x="155.0" y="481.0"/>
      <point x="155.0" y="241.0"/>
      <point x="155.0" y="0.0" type="curve"/>
    </contour>
    <contour>
      <point x="166.0" y="0.0"/>
      <point x="166.0" y="22.0"/>
      <point x="166.0" y="0.0" type="curve"/>
      <point x="265.0" y="0.0"/>
      <point x="363.0" y="0.0"/>
      <point x="462.0" y="0.0" type="curve"/>
      <point x="462.0" y="22.0"/>
      <point x="462.0" y="0.0"/>
      <point x="462.0" y="22.0" type="curve"/>
      <point x="363.0" y="22.0"/>
      <point x="265.0" y="22.0"/>
      <point x="166.0" y="22.0" type="curve"/>
    </contour>
    <contour>
      <point x="165" y="838" type="move" name="top"/>
    </contour>
    <contour>
      <point x="287" y="15" type="move" name="bottom"/>
    </contour>
  </outline>
</glyph>
<glyph name="M" format="1">
  <advance width="816"/>
  <unicode hex="004D"/>
  <outline>
    <contour>
      <point x="654.0" y="0.0"/>
      <point x="654.0" y="22.0"/>
      <point x="654.0" y="0.0" type="curve"/>
      <point x="698.0" y="0.0"/>
      <point x="742.0" y="0.0"/>
      <point x="786.0" y="0.0" type="curve"/>
      <point x="786.0" y="22.0"/>
      <point x="786.0" y="0.0"/>
      <point x="786.0" y="22.0" type="curve"/>
      <point x="654.0" y="22.0"/>
      <point x="786.0" y="22.0"/>
      <point x="654.0" y="22.0" type="curve"/>
    </contour>
    <contour>
      <point x="654.0" y="22.0"/>
      <point x="654.0" y="0.0"/>
      <point x="654.0" y="22.0" type="curve"/>
      <point x="521.0" y="22.0"/>
      <point x="654.0" y="22.0"/>
      <point x="521.0" y="22.0" type="curve"/>
      <point x="521.0" y="0.0"/>
      <point x="521.0" y="22.0"/>
      <point x="521.0" y="0.0" type="curve"/>
      <point x="565.0" y="0.0"/>
      <point x="609.0" y="0.0"/>
      <point x="654.0" y="0.0" type="curve"/>
    </contour>
    <contour>
      <point x="171.0" y="22.0"/>
      <point x="171.0" y="0.0"/>
      <point x="171.0" y="22.0" type="curve"/>
      <point x="39.0" y="22.0"/>
      <point x="171.0" y="22.0"/>
      <point x="39.0" y="22.0" type="curve"/>
      <point x="39.0" y="0.0"/>
      <point x="39.0" y="22.0"/>
      <point x="39.0" y="0.0" type="curve"/>
      <point x="83.0" y="0.0"/>
      <point x="127.0" y="0.0"/>
      <point x="171.0" y="0.0" type="curve"/>
    </contour>
    <contour>
      <point x="213.0" y="722.0"/>
      <point x="213.0" y="700.0"/>
      <point x="213.0" y="722.0" type="curve"/>
      <point x="168.0" y="722.0"/>
      <point x="124.0" y="722.0"/>
      <point x="80.0" y="722.0" type="curve"/>
      <point x="80.0" y="700.0"/>
      <point x="80.0" y="722.0"/>
      <point x="80.0" y="700.0" type="curve"/>
      <point x="213.0" y="700.0"/>
      <point x="80.0" y="700.0"/>
      <point x="213.0" y="700.0" type="curve"/>
    </contour>
    <contour>
      <point x="611.0" y="700.0"/>
      <point x="611.0" y="722.0"/>
      <point x="611.0" y="700.0" type="curve"/>
      <point x="743.0" y="700.0"/>
      <point x="611.0" y="700.0"/>
      <point x="743.0" y="700.0" type="curve"/>
      <point x="743.0" y="722.0"/>
      <point x="743.0" y="700.0"/>
      <point x="743.0" y="722.0" type="curve"/>
      <point x="699.0" y="722.0"/>
      <point x="655.0" y="722.0"/>
      <point x="611.0" y="722.0" type="curve"/>
    </contour>
    <contour>
      <point x="171.0" y="0.0"/>
      <point x="171.0" y="22.0"/>
      <point x="171.0" y="0.0" type="curve"/>
      <point x="215.0" y="0.0"/>
      <point x="171.0" y="0.0"/>
      <point x="303.0" y="0.0" type="curve"/>
      <point x="303.0" y="22.0"/>
      <point x="303.0" y="0.0"/>
      <point x="303.0" y="22.0" type="curve"/>
      <point x="171.0" y="22.0"/>
      <point x="303.0" y="22.0"/>
      <point x="171.0" y="22.0" type="curve"/>
    </contour>
    <contour>
      <point x="665.0" y="0.0"/>
      <point x="641.0" y="0.0"/>
      <point x="665.0" y="0.0" type="curve"/>
      <point x="650.0" y="241.0"/>
      <point x="636.0" y="481.0"/>
      <point x="621.0" y="722.0" type="curve"/>
      <point x="599.0" y="722.0"/>
      <point x="621.0" y="722.0"/>
      <point x="599.0" y="722.0" type="curve"/>
      <point x="613.0" y="481.0"/>
      <point x="627.0" y="241.0"/>
      <point x="641.0" y="0.0" type="curve"/>
    </contour>
    <contour>
      <point x="183.0" y="0.0"/>
      <point x="158.0" y="0.0"/>
      <point x="183.0" y="0.0" type="curve"/>
      <point x="196.0" y="241.0"/>
      <point x="209.0" y="481.0"/>
      <point x="222.0" y="722.0" type="curve"/>
      <point x="200.0" y="722.0"/>
      <point x="222.0" y="722.0"/>
      <point x="200.0" y="722.0" type="curve"/>
      <point x="186.0" y="481.0"/>
      <point x="172.0" y="241.0"/>
      <point x="158.0" y="0.0" type="curve"/>
    </contour>
    <contour>
      <point x="421.0" y="0.0"/>
      <point x="397.0" y="0.0"/>
      <point x="421.0" y="0.0" type="curve"/>
      <point x="355.0" y="241.0"/>
      <point x="289.0" y="481.0"/>
      <point x="224.0" y="722.0" type="curve"/>
      <point x="201.0" y="722.0"/>
      <point x="224.0" y="722.0"/>
      <point x="201.0" y="722.0" type="curve"/>
      <point x="267.0" y="481.0"/>
      <point x="332.0" y="241.0"/>
      <point x="397.0" y="0.0" type="curve"/>
    </contour>
    <contour>
      <point x="428.0" y="0.0"/>
      <point x="403.0" y="0.0"/>
      <point x="428.0" y="0.0" type="curve"/>
      <point x="492.0" y="241.0"/>
      <point x="556.0" y="481.0"/>
      <point x="620.0" y="722.0" type="curve"/>
      <point x="598.0" y="722.0"/>
      <point x="620.0" y="722.0"/>
      <point x="598.0" y="722.0" type="curve"/>
      <point x="533.0" y="481.0"/>
      <point x="468.0" y="241.0"/>
      <point x="403.0" y="0.0" type="curve"/>
    </contour>
  </outline>
</glyph>
<glyph name="N" format="1">
  <advance width="699"/>
  <unicode hex="004E"/>
  <outline>
    <contour>
      <point x="156.0" y="722.0"/>
      <point x="156.0" y="700.0"/>
      <point x="156.0" y="722.0" type="curve"/>
      <point x="112.0" y="722.0"/>
      <point x="68.0" y="722.0"/>
      <point x="24.0" y="722.0" type="curve"/>
      <point x="24.0" y="700.0"/>
      <point x="24.0" y="722.0"/>
      <point x="24.0" y="700.0" type="curve"/>
      <point x="156.0" y="700.0"/>
      <point x="24.0" y="700.0"/>
      <point x="156.0" y="700.0" type="curve"/>
    </contour>
    <contour>
      <point x="534.0" y="700.0"/>
      <point x="534.0" y="722.0"/>
      <point x="534.0" y="700.0" type="curve"/>
      <point x="666.0" y="700.0"/>
      <point x="534.0" y="700.0"/>
      <point x="666.0" y="700.0" type="curve"/>
      <point x="666.0" y="722.0"/>
      <point x="666.0" y="700.0"/>
      <point x="666.0" y="722.0" type="curve"/>
      <point x="622.0" y="722.0"/>
      <point x="578.0" y="722.0"/>
      <point x="534.0" y="722.0" type="curve"/>
    </contour>
    <contour>
      <point x="534.0" y="722.0"/>
      <point x="534.0" y="700.0"/>
      <point x="534.0" y="722.0" type="curve"/>
      <point x="490.0" y="722.0"/>
      <point x="446.0" y="722.0"/>
      <point x="402.0" y="722.0" type="curve"/>
      <point x="402.0" y="700.0"/>
      <point x="402.0" y="722.0"/>
      <point x="402.0" y="700.0" type="curve"/>
      <point x="534.0" y="700.0"/>
      <point x="402.0" y="700.0"/>
      <point x="534.0" y="700.0" type="curve"/>
    </contour>
    <contour>
      <point x="155.0" y="22.0"/>
      <point x="155.0" y="0.0"/>
      <point x="155.0" y="22.0" type="curve"/>
      <point x="23.0" y="22.0"/>
      <point x="155.0" y="22.0"/>
      <point x="23.0" y="22.0" type="curve"/>
      <point x="23.0" y="0.0"/>
      <point x="23.0" y="22.0"/>
      <point x="23.0" y="0.0" type="curve"/>
      <point x="67.0" y="0.0"/>
      <point x="111.0" y="0.0"/>
      <point x="155.0" y="0.0" type="curve"/>
    </contour>
    <contour>
      <point x="155.0" y="0.0"/>
      <point x="155.0" y="22.0"/>
      <point x="155.0" y="0.0" type="curve"/>
      <point x="199.0" y="0.0"/>
      <point x="155.0" y="0.0"/>
      <point x="287.0" y="0.0" type="curve"/>
      <point x="287.0" y="22.0"/>
      <point x="287.0" y="0.0"/>
      <point x="287.0" y="22.0" type="curve"/>
      <point x="155.0" y="22.0"/>
      <point x="287.0" y="22.0"/>
      <point x="155.0" y="22.0" type="curve"/>
    </contour>
    <contour>
      <point x="546.0" y="0.0"/>
      <point x="516.0" y="0.0"/>
      <point x="545.0" y="0.0" type="curve"/>
      <point x="420.0" y="241.0"/>
      <point x="295.0" y="481.0"/>
      <point x="170.0" y="722.0" type="curve"/>
      <point x="141.0" y="722.0"/>
      <point x="171.0" y="722.0"/>
      <point x="142.0" y="722.0" type="curve"/>
      <point x="267.0" y="481.0"/>
      <point x="392.0" y="241.0"/>
      <point x="517.0" y="0.0" type="curve"/>
    </contour>
    <contour>
      <point x="521.0" y="722.0"/>
      <point x="545.0" y="722.0"/>
      <point x="521.0" y="722.0" type="curve"/>
      <point x="521.0" y="481.0"/>
      <point x="521.0" y="241.0"/>
      <point x="521.0" y="0.0" type="curve"/>
      <point x="545.0" y="0.0"/>
      <point x="521.0" y="0.0"/>
      <point x="545.0" y="0.0" type="curve"/>
      <point x="545.0" y="241.0"/>
      <point x="545.0" y="481.0"/>
      <point x="545.0" y="722.0" type="curve"/>
    </contour>
    <contour>
      <point x="167.0" y="0.0"/>
      <point x="143.0" y="0.0"/>
      <point x="167.0" y="0.0" type="curve"/>
      <point x="167.0" y="241.0"/>
      <point x="167.0" y="481.0"/>
      <point x="167.0" y="722.0" type="curve"/>
      <point x="143.0" y="722.0"/>
      <point x="167.0" y="722.0"/>
      <point x="143.0" y="722.0" type="curve"/>
      <point x="143.0" y="481.0"/>
      <point x="143.0" y="241.0"/>
      <point x="143.0" y="0.0" type="curve"/>
    </contour>
    <contour>
      <point x="356.0" y="839.0" type="move" name="top"/>
    </contour>
    <contour>
      <point x="343.0" y="15.0" type="move" name="bottom"/>
    </contour>
  </outline>
</glyph>
<glyph name="O" format="1">
  <advance width="573"/>
  <unicode hex="004F"/>
  <outline>
    <contour>
      <point x="94.0" y="360.0"/>
      <point x="69.0" y="360.0"/>
      <point x="94.0" y="360.0" type="curve"/>
      <point x="94.0" y="543.0"/>
      <point x="124.0" y="704.0"/>
      <point x="282.0" y="704.0" type="curve"/>
      <point x="440.0" y="704.0"/>
      <point x="474.0" y="545.0"/>
      <point x="474.0" y="363.0" type="curve"/>
      <point x="474.0" y="183.0"/>
      <point x="443.0" y="18.0"/>
      <point x="285.0" y="18.0" type="curve"/>
      <point x="126.0" y="18.0"/>
      <point x="94.0" y="177.0"/>
      <point x="94.0" y="360.0" type="curve"/>
      <point x="69.0" y="360.0"/>
      <point x="94.0" y="360.0"/>
      <point x="69.0" y="360.0" type="curve"/>
      <point x="69.0" y="162.0"/>
      <point x="112.0" y="-5.0"/>
      <point x="284.0" y="-5.0" type="curve"/>
      <point x="456.0" y="-5.0"/>
      <point x="498.0" y="164.0"/>
      <point x="498.0" y="363.0" type="curve"/>
      <point x="498.0" y="560.0"/>
      <point x="456.0" y="727.0"/>
      <point x="284.0" y="727.0" type="curve"/>
      <point x="111.0" y="727.0"/>
      <point x="69.0" y="558.0"/>
      <point x="69.0" y="360.0" type="curve"/>
    </contour>
    <contour>
      <point x="282.0" y="839.0" type="move" name="top"/>
    </contour>
  </outline>
</glyph>
<glyph name="P" format="1">
  <advance width="456"/>
  <unicode hex="0050"/>
  <outline>
    <contour>
      <point x="167.0" y="722.0"/>
      <point x="167.0" y="700.0"/>
      <point x="167.0" y="722.0" type="curve"/>
      <point x="123.0" y="722.0"/>
      <point x="79.0" y="722.0"/>
      <point x="35.0" y="722.0" type="curve"/>
      <point x="35.0" y="700.0"/>
      <point x="35.0" y="722.0"/>
      <point x="35.0" y="700.0" type="curve"/>
      <point x="167.0" y="700.0"/>
      <point x="35.0" y="700.0"/>
      <point x="167.0" y="700.0" type="curve"/>
    </contour>
    <contour>
      <point x="167.0" y="22.0"/>
      <point x="167.0" y="0.0"/>
      <point x="167.0" y="22.0" type="curve"/>
      <point x="35.0" y="22.0"/>
      <point x="167.0" y="22.0"/>
      <point x="35.0" y="22.0" type="curve"/>
      <point x="35.0" y="0.0"/>
      <point x="35.0" y="22.0"/>
      <point x="35.0" y="0.0" type="curve"/>
      <point x="79.0" y="0.0"/>
      <point x="123.0" y="0.0"/>
      <point x="167.0" y="0.0" type="curve"/>
    </contour>
    <contour>
      <point x="167.0" y="0.0"/>
      <point x="167.0" y="22.0"/>
      <point x="167.0" y="0.0" type="curve"/>
      <point x="211.0" y="0.0"/>
      <point x="167.0" y="0.0"/>
      <point x="299.0" y="0.0" type="curve"/>
      <point x="299.0" y="22.0"/>
      <point x="299.0" y="0.0"/>
      <point x="299.0" y="22.0" type="curve"/>
      <point x="167.0" y="22.0"/>
      <point x="299.0" y="22.0"/>
      <point x="167.0" y="22.0" type="curve"/>
    </contour>
    <contour>
      <point x="164.0" y="326.0"/>
      <point x="172.0" y="345.0"/>
      <point x="164.0" y="325.0" type="curve"/>
      <point x="196.0" y="300.0"/>
      <point x="232.0" y="280.0"/>
      <point x="275.0" y="280.0" type="curve"/>
      <point x="383.0" y="282.0"/>
      <point x="432.0" y="369.0"/>
      <point x="432.0" y="494.0" type="curve"/>
      <point x="432.0" y="621.0"/>
      <point x="376.0" y="722.0"/>
      <point x="259.0" y="722.0" type="curve"/>
      <point x="229.0" y="722.0"/>
      <point x="199.0" y="722.0"/>
      <point x="169.0" y="722.0" type="curve"/>
      <point x="169.0" y="700.0"/>
      <point x="169.0" y="722.0"/>
      <point x="169.0" y="700.0" type="curve"/>
      <point x="198.0" y="700.0"/>
      <point x="227.0" y="700.0"/>
      <point x="256.0" y="700.0" type="curve"/>
      <point x="361.0" y="700.0"/>
      <point x="408.0" y="608.0"/>
      <point x="408.0" y="493.0" type="curve"/>
      <point x="408.0" y="388.0"/>
      <point x="369.0" y="303.0"/>
      <point x="276.0" y="303.0" type="curve"/>
      <point x="233.0" y="303.0"/>
      <point x="206.0" y="320.0"/>
      <point x="172.0" y="346.0" type="curve"/>
    </contour>
    <contour>
      <point x="178.0" y="0.0"/>
      <point x="154.0" y="0.0"/>
      <point x="178.0" y="0.0" type="curve"/>
      <point x="178.0" y="241.0"/>
      <point x="178.0" y="481.0"/>
      <point x="178.0" y="722.0" type="curve"/>
      <point x="154.0" y="722.0"/>
      <point x="178.0" y="722.0"/>
      <point x="154.0" y="722.0" type="curve"/>
      <point x="154.0" y="481.0"/>
      <point x="154.0" y="241.0"/>
      <point x="154.0" y="0.0" type="curve"/>
    </contour>
  </outline>
</glyph>
<glyph name="R" format="1">
  <advance width="598"/>
  <unicode hex="0052"/>
  <outline>
    <contour>
      <point x="455.0" y="0.0"/>
      <point x="455.0" y="22.0"/>
      <point x="455.0" y="0.0" type="curve"/>
      <point x="499.0" y="0.0"/>
      <point x="543.0" y="0.0"/>
      <point x="588.0" y="0.0" type="curve"/>
      <point x="588.0" y="22.0"/>
      <point x="588.0" y="0.0"/>
      <point x="588.0" y="22.0" type="curve"/>
      <point x="455.0" y="22.0"/>
      <point x="588.0" y="22.0"/>
      <point x="455.0" y="22.0" type="curve"/>
    </contour>
    <contour>
      <point x="140.0" y="722.0"/>
      <point x="140.0" y="700.0"/>
      <point x="140.0" y="722.0" type="curve"/>
      <point x="96.0" y="722.0"/>
      <point x="52.0" y="722.0"/>
      <point x="8.0" y="722.0" type="curve"/>
      <point x="8.0" y="700.0"/>
      <point x="8.0" y="722.0"/>
      <point x="8.0" y="700.0" type="curve"/>
      <point x="140.0" y="700.0"/>
      <point x="8.0" y="700.0"/>
      <point x="140.0" y="700.0" type="curve"/>
    </contour>
    <contour>
      <point x="140.0" y="22.0"/>
      <point x="140.0" y="0.0"/>
      <point x="140.0" y="22.0" type="curve"/>
      <point x="8.0" y="22.0"/>
      <point x="140.0" y="22.0"/>
      <point x="8.0" y="22.0" type="curve"/>
      <point x="8.0" y="0.0"/>
      <point x="8.0" y="22.0"/>
      <point x="8.0" y="0.0" type="curve"/>
      <point x="52.0" y="0.0"/>
      <point x="96.0" y="0.0"/>
      <point x="140.0" y="0.0" type="curve"/>
    </contour>
    <contour>
      <point x="140.0" y="0.0"/>
      <point x="140.0" y="22.0"/>
      <point x="140.0" y="0.0" type="curve"/>
      <point x="184.0" y="0.0"/>
      <point x="140.0" y="0.0"/>
      <point x="273.0" y="0.0" type="curve"/>
      <point x="273.0" y="22.0"/>
      <point x="273.0" y="0.0"/>
      <point x="273.0" y="22.0" type="curve"/>
      <point x="140.0" y="22.0"/>
      <point x="273.0" y="22.0"/>
      <point x="140.0" y="22.0" type="curve"/>
    </contour>
    <contour>
      <point x="271.0" y="354.0"/>
      <point x="300.0" y="354.0"/>
      <point x="271.0" y="354.0" type="curve"/>
      <point x="331.0" y="236.0"/>
      <point x="391.0" y="118.0"/>
      <point x="450.0" y="0.0" type="curve"/>
      <point x="479.0" y="0.0"/>
      <point x="450.0" y="0.0"/>
      <point x="479.0" y="0.0" type="curve"/>
      <point x="420.0" y="118.0"/>
      <point x="360.0" y="236.0"/>
      <point x="300.0" y="354.0" type="curve"/>
    </contour>
    <contour>
      <point x="153.0" y="0.0"/>
      <point x="129.0" y="0.0"/>
      <point x="153.0" y="0.0" type="curve"/>
      <point x="153.0" y="241.0"/>
      <point x="153.0" y="481.0"/>
      <point x="153.0" y="722.0" type="curve"/>
      <point x="129.0" y="722.0"/>
      <point x="153.0" y="722.0"/>
      <point x="129.0" y="722.0" type="curve"/>
      <point x="129.0" y="481.0"/>
      <point x="129.0" y="241.0"/>
      <point x="129.0" y="0.0" type="curve"/>
    </contour>
    <contour>
      <point x="143.0" y="340.0"/>
      <point x="143.0" y="362.0"/>
      <point x="143.0" y="340.0" type="curve"/>
      <point x="182.0" y="340.0"/>
      <point x="221.0" y="340.0"/>
      <point x="261.0" y="340.0" type="curve"/>
      <point x="369.0" y="340.0"/>
      <point x="419.0" y="420.0"/>
      <point x="419.0" y="537.0" type="curve"/>
      <point x="419.0" y="650.0"/>
      <point x="366.0" y="722.0"/>
      <point x="258.0" y="722.0" type="curve"/>
      <point x="216.0" y="722.0"/>
      <point x="184.0" y="722.0"/>
      <point x="143.0" y="722.0" type="curve"/>
      <point x="143.0" y="700.0"/>
      <point x="143.0" y="722.0"/>
      <point x="143.0" y="700.0" type="curve"/>
      <point x="183.0" y="700.0"/>
      <point x="213.0" y="700.0"/>
      <point x="254.0" y="700.0" type="curve"/>
      <point x="349.0" y="700.0"/>
      <point x="394.0" y="635.0"/>
      <point x="394.0" y="535.0" type="curve"/>
      <point x="394.0" y="434.0"/>
      <point x="356.0" y="362.0"/>
      <point x="264.0" y="362.0" type="curve"/>
      <point x="224.0" y="362.0"/>
      <point x="183.0" y="362.0"/>
      <point x="143.0" y="362.0" type="curve"/>
    </contour>
    <contour>
      <point x="225.0" y="837.0" type="move" name="top"/>
    </contour>
    <contour>
      <point x="300.0" y="15.0" type="move" name="bottom"/>
    </contour>
  </outline>
</glyph>
<glyph name="S" format="1">
  <advance width="379"/>
  <unicode hex="0053"/>
  <outline>
    <contour>
      <point x="298.0" y="663.0"/>
      <point x="320.0" y="663.0"/>
      <point x="298.0" y="663.0" type="curve"/>
      <point x="298.0" y="543.0"/>
      <point x="298.0" y="663.0"/>
      <point x="298.0" y="543.0" type="curve"/>
      <point x="320.0" y="543.0"/>
      <point x="298.0" y="543.0"/>
      <point x="320.0" y="543.0" type="curve"/>
      <point x="320.0" y="663.0"/>
      <point x="320.0" y="543.0"/>
      <point x="320.0" y="663.0" type="curve"/>
    </contour>
    <contour>
      <point x="54.0" y="58.0"/>
      <point x="32.0" y="58.0"/>
      <point x="54.0" y="58.0" type="curve"/>
      <point x="54.0" y="178.0"/>
      <point x="54.0" y="58.0"/>
      <point x="54.0" y="178.0" type="curve"/>
      <point x="32.0" y="178.0"/>
      <point x="54.0" y="178.0"/>
      <point x="32.0" y="178.0" type="curve"/>
      <point x="32.0" y="58.0"/>
      <point x="32.0" y="178.0"/>
      <point x="32.0" y="58.0" type="curve"/>
    </contour>
    <contour>
      <point x="40.0" y="70.0"/>
      <point x="37.0" y="66.0"/>
      <point x="32.0" y="58.0" type="curve"/>
      <point x="76.0" y="19.0"/>
      <point x="111.0" y="-5.0"/>
      <point x="170.0" y="-5.0" type="curve"/>
      <point x="274.0" y="-5.0"/>
      <point x="333.0" y="62.0"/>
      <point x="333.0" y="169.0" type="curve"/>
      <point x="333.0" y="270.0"/>
      <point x="278.0" y="323.0"/>
      <point x="194.0" y="382.0" type="curve"/>
      <point x="121.0" y="432.0"/>
      <point x="72.0" y="476.0"/>
      <point x="72.0" y="563.0" type="curve"/>
      <point x="72.0" y="645.0"/>
      <point x="106.0" y="704.0"/>
      <point x="182.0" y="704.0" type="curve"/>
      <point x="236.0" y="704.0"/>
      <point x="268.0" y="681.0"/>
      <point x="309.0" y="646.0" type="curve"/>
      <point x="313.0" y="652.0"/>
      <point x="316.0" y="657.0"/>
      <point x="320.0" y="663.0" type="curve"/>
      <point x="275.0" y="701.0"/>
      <point x="242.0" y="726.0"/>
      <point x="183.0" y="726.0" type="curve"/>
      <point x="92.0" y="726.0"/>
      <point x="47.0" y="659.0"/>
      <point x="47.0" y="562.0" type="curve"/>
      <point x="47.0" y="467.0"/>
      <point x="99.0" y="419.0"/>
      <point x="178.0" y="364.0" type="curve"/>
      <point x="256.0" y="311.0"/>
      <point x="309.0" y="262.0"/>
      <point x="309.0" y="169.0" type="curve"/>
      <point x="309.0" y="77.0"/>
      <point x="261.0" y="17.0"/>
      <point x="172.0" y="17.0" type="curve"/>
      <point x="117.0" y="17.0"/>
      <point x="87.0" y="42.0"/>
      <point x="45.0" y="78.0" type="curve"/>
    </contour>
    <contour>
      <point x="190" y="837" type="move" name="top"/>
    </contour>
    <contour>
      <point x="197" y="14" type="move" name="bottom"/>
    </contour>
  </outline>
</glyph>
<glyph name="U" format="1">
  <advance width="654"/>
  <unicode hex="0055"/>
  <outline>
    <contour>
      <point x="501.0" y="700.0"/>
      <point x="501.0" y="722.0"/>
      <point x="501.0" y="700.0" type="curve"/>
      <point x="633.0" y="700.0"/>
      <point x="501.0" y="700.0"/>
      <point x="633.0" y="700.0" type="curve"/>
      <point x="633.0" y="722.0"/>
      <point x="633.0" y="700.0"/>
      <point x="633.0" y="722.0" type="curve"/>
      <point x="589.0" y="722.0"/>
      <point x="545.0" y="722.0"/>
      <point x="501.0" y="722.0" type="curve"/>
    </contour>
    <contour>
      <point x="501.0" y="722.0"/>
      <point x="501.0" y="700.0"/>
      <point x="501.0" y="722.0" type="curve"/>
      <point x="457.0" y="722.0"/>
      <point x="413.0" y="722.0"/>
      <point x="369.0" y="722.0" type="curve"/>
      <point x="369.0" y="700.0"/>
      <point x="369.0" y="722.0"/>
      <point x="369.0" y="700.0" type="curve"/>
      <point x="501.0" y="700.0"/>
      <point x="369.0" y="700.0"/>
      <point x="501.0" y="700.0" type="curve"/>
    </contour>
    <contour>
      <point x="151.0" y="722.0"/>
      <point x="151.0" y="700.0"/>
      <point x="151.0" y="722.0" type="curve"/>
      <point x="107.0" y="722.0"/>
      <point x="63.0" y="722.0"/>
      <point x="19.0" y="722.0" type="curve"/>
      <point x="19.0" y="700.0"/>
      <point x="19.0" y="722.0"/>
      <point x="19.0" y="700.0" type="curve"/>
      <point x="151.0" y="700.0"/>
      <point x="19.0" y="700.0"/>
      <point x="151.0" y="700.0" type="curve"/>
    </contour>
    <contour>
      <point x="151.0" y="700.0"/>
      <point x="151.0" y="722.0"/>
      <point x="151.0" y="700.0" type="curve"/>
      <point x="283.0" y="700.0"/>
      <point x="151.0" y="700.0"/>
      <point x="283.0" y="700.0" type="curve"/>
      <point x="283.0" y="722.0"/>
      <point x="283.0" y="700.0"/>
      <point x="283.0" y="722.0" type="curve"/>
      <point x="239.0" y="722.0"/>
      <point x="195.0" y="722.0"/>
      <point x="151.0" y="722.0" type="curve"/>
    </contour>
    <contour>
      <point x="138.0" y="721.0"/>
      <point x="159.0" y="721.0"/>
      <point x="137.0" y="721.0" type="curve"/>
      <point x="137.0" y="571.0"/>
      <point x="137.0" y="421.0"/>
      <point x="137.0" y="271.0" type="curve"/>
      <point x="137.0" y="106.0"/>
      <point x="178.0" y="-5.0"/>
      <point x="326.0" y="-5.0" type="curve"/>
      <point x="470.0" y="-5.0"/>
      <point x="513.0" y="103.0"/>
      <point x="513.0" y="263.0" type="curve"/>
      <point x="513.0" y="416.0"/>
      <point x="513.0" y="569.0"/>
      <point x="513.0" y="721.0" type="curve"/>
      <point x="491.0" y="721.0"/>
      <point x="512.0" y="721.0"/>
      <point x="490.0" y="721.0" type="curve"/>
      <point x="490.0" y="567.0"/>
      <point x="490.0" y="413.0"/>
      <point x="490.0" y="259.0" type="curve"/>
      <point x="490.0" y="117.0"/>
      <point x="451.0" y="19.0"/>
      <point x="328.0" y="19.0" type="curve"/>
      <point x="194.0" y="19.0"/>
      <point x="160.0" y="124.0"/>
      <point x="160.0" y="275.0" type="curve"/>
      <point x="160.0" y="424.0"/>
      <point x="160.0" y="573.0"/>
      <point x="160.0" y="721.0" type="curve"/>
    </contour>
    <contour>
      <point x="329.0" y="839.0" type="move" name="top"/>
    </contour>
    <contour>
      <point x="346.0" y="9.0" type="move" name="bottom"/>
    </contour>
  </outline>
</glyph>
<glyph name="V" format="1">
  <advance width="686"/>
  <unicode hex="0056"/>
  <outline>
    <contour>
      <point x="531.0" y="722.0"/>
      <point x="531.0" y="700.0"/>
      <point x="531.0" y="722.0" type="curve"/>
      <point x="486.0" y="722.0"/>
      <point x="440.0" y="722.0"/>
      <point x="394.0" y="722.0" type="curve"/>
      <point x="394.0" y="700.0"/>
      <point x="394.0" y="722.0"/>
      <point x="394.0" y="700.0" type="curve"/>
      <point x="531.0" y="700.0"/>
      <point x="394.0" y="700.0"/>
      <point x="531.0" y="700.0" type="curve"/>
    </contour>
    <contour>
      <point x="152.0" y="722.0"/>
      <point x="152.0" y="700.0"/>
      <point x="152.0" y="722.0" type="curve"/>
      <point x="108.0" y="722.0"/>
      <point x="64.0" y="722.0"/>
      <point x="20.0" y="722.0" type="curve"/>
      <point x="20.0" y="700.0"/>
      <point x="20.0" y="722.0"/>
      <point x="20.0" y="700.0" type="curve"/>
      <point x="152.0" y="700.0"/>
      <point x="20.0" y="700.0"/>
      <point x="152.0" y="700.0" type="curve"/>
    </contour>
    <contour>
      <point x="531.0" y="700.0"/>
      <point x="531.0" y="722.0"/>
      <point x="531.0" y="700.0" type="curve"/>
      <point x="664.0" y="700.0"/>
      <point x="531.0" y="700.0"/>
      <point x="664.0" y="700.0" type="curve"/>
      <point x="664.0" y="722.0"/>
      <point x="664.0" y="700.0"/>
      <point x="664.0" y="722.0" type="curve"/>
      <point x="619.0" y="722.0"/>
      <point x="575.0" y="722.0"/>
      <point x="531.0" y="722.0" type="curve"/>
    </contour>
    <contour>
      <point x="152.0" y="700.0"/>
      <point x="152.0" y="722.0"/>
      <point x="152.0" y="700.0" type="curve"/>
      <point x="290.0" y="700.0"/>
      <point x="152.0" y="700.0"/>
      <point x="290.0" y="700.0" type="curve"/>
      <point x="290.0" y="722.0"/>
      <point x="290.0" y="700.0"/>
      <point x="290.0" y="722.0" type="curve"/>
      <point x="244.0" y="722.0"/>
      <point x="198.0" y="722.0"/>
      <point x="152.0" y="722.0" type="curve"/>
    </contour>
    <contour>
      <point x="527.0" y="722.0"/>
      <point x="553.0" y="722.0"/>
      <point x="527.0" y="722.0" type="curve"/>
      <point x="462.0" y="481.0"/>
      <point x="397.0" y="241.0"/>
      <point x="332.0" y="0.0" type="curve"/>
      <point x="359.0" y="0.0"/>
      <point x="332.0" y="0.0"/>
      <point x="359.0" y="0.0" type="curve"/>
      <point x="424.0" y="241.0"/>
      <point x="488.0" y="481.0"/>
      <point x="553.0" y="722.0" type="curve"/>
    </contour>
    <contour>
      <point x="130.0" y="722.0"/>
      <point x="158.0" y="722.0"/>
      <point x="130.0" y="722.0" type="curve"/>
      <point x="196.0" y="481.0"/>
      <point x="262.0" y="241.0"/>
      <point x="328.0" y="0.0" type="curve"/>
      <point x="355.0" y="0.0"/>
      <point x="328.0" y="0.0"/>
      <point x="355.0" y="0.0" type="curve"/>
      <point x="289.0" y="241.0"/>
      <point x="223.0" y="481.0"/>
      <point x="158.0" y="722.0" type="curve"/>
    </contour>
  </outline>
</glyph>
<glyph name="W" format="1">
  <advance width="822"/>
  <unicode hex="0057"/>
  <outline>
    <contour>
      <point x="154.0" y="700.0"/>
      <point x="154.0" y="722.0"/>
      <point x="154.0" y="700.0" type="curve"/>
      <point x="287.0" y="700.0"/>
      <point x="154.0" y="700.0"/>
      <point x="287.0" y="700.0" type="curve"/>
      <point x="287.0" y="722.0"/>
      <point x="287.0" y="700.0"/>
      <point x="287.0" y="722.0" type="curve"/>
      <point x="242.0" y="722.0"/>
      <point x="198.0" y="722.0"/>
      <point x="154.0" y="722.0" type="curve"/>
    </contour>
    <contour>
      <point x="154.0" y="722.0"/>
      <point x="154.0" y="700.0"/>
      <point x="154.0" y="722.0" type="curve"/>
      <point x="110.0" y="722.0"/>
      <point x="66.0" y="722.0"/>
      <point x="22.0" y="722.0" type="curve"/>
      <point x="22.0" y="700.0"/>
      <point x="22.0" y="722.0"/>
      <point x="22.0" y="700.0" type="curve"/>
      <point x="154.0" y="700.0"/>
      <point x="22.0" y="700.0"/>
      <point x="154.0" y="700.0" type="curve"/>
    </contour>
    <contour>
      <point x="670.0" y="722.0"/>
      <point x="670.0" y="700.0"/>
      <point x="670.0" y="722.0" type="curve"/>
      <point x="626.0" y="722.0"/>
      <point x="582.0" y="722.0"/>
      <point x="538.0" y="722.0" type="curve"/>
      <point x="538.0" y="700.0"/>
      <point x="538.0" y="722.0"/>
      <point x="538.0" y="700.0" type="curve"/>
      <point x="670.0" y="700.0"/>
      <point x="538.0" y="700.0"/>
      <point x="670.0" y="700.0" type="curve"/>
    </contour>
    <contour>
      <point x="670.0" y="700.0"/>
      <point x="670.0" y="722.0"/>
      <point x="670.0" y="700.0" type="curve"/>
      <point x="802.0" y="700.0"/>
      <point x="670.0" y="700.0"/>
      <point x="802.0" y="700.0" type="curve"/>
      <point x="802.0" y="722.0"/>
      <point x="802.0" y="700.0"/>
      <point x="802.0" y="722.0" type="curve"/>
      <point x="758.0" y="722.0"/>
      <point x="714.0" y="722.0"/>
      <point x="670.0" y="722.0" type="curve"/>
    </contour>
    <contour>
      <point x="283.0" y="0.0"/>
      <point x="266.0" y="0.0"/>
      <point x="284.0" y="0.0" type="curve"/>
      <point x="331.0" y="241.0"/>
      <point x="377.0" y="481.0"/>
      <point x="424.0" y="722.0" type="curve"/>
      <point x="401.0" y="722.0"/>
      <point x="425.0" y="722.0"/>
      <point x="402.0" y="722.0" type="curve"/>
      <point x="357.0" y="481.0"/>
      <point x="310.0" y="241.0"/>
      <point x="265.0" y="0.0" type="curve"/>
    </contour>
    <contour>
      <point x="407.0" y="722.0"/>
      <point x="431.0" y="722.0"/>
      <point x="408.0" y="722.0" type="curve"/>
      <point x="451.0" y="481.0"/>
      <point x="492.0" y="241.0"/>
      <point x="535.0" y="0.0" type="curve"/>
      <point x="553.0" y="0.0"/>
      <point x="536.0" y="0.0"/>
      <point x="554.0" y="0.0" type="curve"/>
      <point x="513.0" y="241.0"/>
      <point x="471.0" y="481.0"/>
      <point x="430.0" y="722.0" type="curve"/>
    </contour>
    <contour>
      <point x="133.0" y="722.0"/>
      <point x="158.0" y="722.0"/>
      <point x="133.0" y="722.0" type="curve"/>
      <point x="176.0" y="481.0"/>
      <point x="219.0" y="241.0"/>
      <point x="262.0" y="0.0" type="curve"/>
      <point x="280.0" y="0.0"/>
      <point x="263.0" y="0.0"/>
      <point x="281.0" y="0.0" type="curve"/>
      <point x="240.0" y="241.0"/>
      <point x="199.0" y="481.0"/>
      <point x="158.0" y="722.0" type="curve"/>
    </contour>
    <contour>
      <point x="666.0" y="722.0"/>
      <point x="691.0" y="722.0"/>
      <point x="666.0" y="722.0" type="curve"/>
      <point x="623.0" y="481.0"/>
      <point x="580.0" y="241.0"/>
      <point x="538.0" y="0.0" type="curve"/>
      <point x="556.0" y="0.0"/>
      <point x="539.0" y="0.0"/>
      <point x="557.0" y="0.0" type="curve"/>
      <point x="602.0" y="241.0"/>
      <point x="646.0" y="481.0"/>
      <point x="691.0" y="722.0" type="curve"/>
    </contour>
  </outline>
</glyph>
<glyph name="X" format="1">
  <advance width="681"/>
  <unicode hex="0058"/>
  <outline>
    <contour>
      <point x="161.0" y="0.0"/>
      <point x="161.0" y="22.0"/>
      <point x="161.0" y="0.0" type="curve"/>
      <point x="205.0" y="0.0"/>
      <point x="161.0" y="0.0"/>
      <point x="293.0" y="0.0" type="curve"/>
      <point x="293.0" y="22.0"/>
      <point x="293.0" y="0.0"/>
      <point x="293.0" y="22.0" type="curve"/>
      <point x="161.0" y="22.0"/>
      <point x="293.0" y="22.0"/>
      <point x="161.0" y="22.0" type="curve"/>
    </contour>
    <contour>
      <point x="161.0" y="22.0"/>
      <point x="161.0" y="0.0"/>
      <point x="161.0" y="22.0" type="curve"/>
      <point x="29.0" y="22.0"/>
      <point x="161.0" y="22.0"/>
      <point x="29.0" y="22.0" type="curve"/>
      <point x="29.0" y="0.0"/>
      <point x="29.0" y="22.0"/>
      <point x="29.0" y="0.0" type="curve"/>
      <point x="73.0" y="0.0"/>
      <point x="117.0" y="0.0"/>
      <point x="161.0" y="0.0" type="curve"/>
    </contour>
    <contour>
      <point x="510.0" y="0.0"/>
      <point x="510.0" y="22.0"/>
      <point x="510.0" y="0.0" type="curve"/>
      <point x="554.0" y="0.0"/>
      <point x="598.0" y="0.0"/>
      <point x="642.0" y="0.0" type="curve"/>
      <point x="642.0" y="22.0"/>
      <point x="642.0" y="0.0"/>
      <point x="642.0" y="22.0" type="curve"/>
      <point x="510.0" y="22.0"/>
      <point x="642.0" y="22.0"/>
      <point x="510.0" y="22.0" type="curve"/>
    </contour>
    <contour>
      <point x="510.0" y="22.0"/>
      <point x="510.0" y="0.0"/>
      <point x="510.0" y="22.0" type="curve"/>
      <point x="378.0" y="22.0"/>
      <point x="510.0" y="22.0"/>
      <point x="378.0" y="22.0" type="curve"/>
      <point x="378.0" y="0.0"/>
      <point x="378.0" y="22.0"/>
      <point x="378.0" y="0.0" type="curve"/>
      <point x="422.0" y="0.0"/>
      <point x="466.0" y="0.0"/>
      <point x="510.0" y="0.0" type="curve"/>
    </contour>
    <contour>
      <point x="492.0" y="700.0"/>
      <point x="492.0" y="722.0"/>
      <point x="492.0" y="700.0" type="curve"/>
      <point x="624.0" y="700.0"/>
      <point x="492.0" y="700.0"/>
      <point x="624.0" y="700.0" type="curve"/>
      <point x="624.0" y="722.0"/>
      <point x="624.0" y="700.0"/>
      <point x="624.0" y="722.0" type="curve"/>
      <point x="580.0" y="722.0"/>
      <point x="536.0" y="722.0"/>
      <point x="492.0" y="722.0" type="curve"/>
    </contour>
    <contour>
      <point x="492.0" y="722.0"/>
      <point x="492.0" y="700.0"/>
      <point x="492.0" y="722.0" type="curve"/>
      <point x="448.0" y="722.0"/>
      <point x="404.0" y="722.0"/>
      <point x="360.0" y="722.0" type="curve"/>
      <point x="360.0" y="700.0"/>
      <point x="360.0" y="722.0"/>
      <point x="360.0" y="700.0" type="curve"/>
      <point x="492.0" y="700.0"/>
      <point x="360.0" y="700.0"/>
      <point x="492.0" y="700.0" type="curve"/>
    </contour>
    <contour>
      <point x="182.0" y="722.0"/>
      <point x="182.0" y="700.0"/>
      <point x="182.0" y="722.0" type="curve"/>
      <point x="138.0" y="722.0"/>
      <point x="94.0" y="722.0"/>
      <point x="50.0" y="722.0" type="curve"/>
      <point x="50.0" y="700.0"/>
      <point x="50.0" y="722.0"/>
      <point x="50.0" y="700.0" type="curve"/>
      <point x="182.0" y="700.0"/>
      <point x="50.0" y="700.0"/>
      <point x="182.0" y="700.0" type="curve"/>
    </contour>
    <contour>
      <point x="182.0" y="700.0"/>
      <point x="182.0" y="722.0"/>
      <point x="182.0" y="700.0" type="curve"/>
      <point x="314.0" y="700.0"/>
      <point x="182.0" y="700.0"/>
      <point x="314.0" y="700.0" type="curve"/>
      <point x="314.0" y="722.0"/>
      <point x="314.0" y="700.0"/>
      <point x="314.0" y="722.0" type="curve"/>
      <point x="270.0" y="722.0"/>
      <point x="226.0" y="722.0"/>
      <point x="182.0" y="722.0" type="curve"/>
    </contour>
    <contour>
      <point x="487.0" y="722.0"/>
      <point x="515.0" y="722.0"/>
      <point x="487.0" y="722.0" type="curve"/>
      <point x="370.0" y="481.0"/>
      <point x="254.0" y="241.0"/>
      <point x="137.0" y="0.0" type="curve"/>
      <point x="168.0" y="0.0"/>
      <point x="137.0" y="0.0"/>
      <point x="168.0" y="0.0" type="curve"/>
      <point x="284.0" y="241.0"/>
      <point x="399.0" y="481.0"/>
      <point x="515.0" y="722.0" type="curve"/>
    </contour>
    <contour>
      <point x="161.0" y="722.0"/>
      <point x="189.0" y="722.0"/>
      <point x="161.0" y="722.0" type="curve"/>
      <point x="275.0" y="481.0"/>
      <point x="390.0" y="241.0"/>
      <point x="505.0" y="0.0" type="curve"/>
      <point x="535.0" y="0.0"/>
      <point x="505.0" y="0.0"/>
      <point x="535.0" y="0.0" type="curve"/>
      <point x="420.0" y="241.0"/>
      <point x="304.0" y="481.0"/>
      <point x="189.0" y="722.0" type="curve"/>
    </contour>
  </outline>
</glyph>
<glyph name="Y" format="1">
  <advance width="645"/>
  <unicode hex="0059"/>
  <outline>
    <contour>
      <point x="316.0" y="22.0"/>
      <point x="316.0" y="0.0"/>
      <point x="316.0" y="22.0" type="curve"/>
      <point x="184.0" y="22.0"/>
      <point x="316.0" y="22.0"/>
      <point x="184.0" y="22.0" type="curve"/>
      <point x="184.0" y="0.0"/>
      <point x="184.0" y="22.0"/>
      <point x="184.0" y="0.0" type="curve"/>
      <point x="228.0" y="0.0"/>
      <point x="272.0" y="0.0"/>
      <point x="316.0" y="0.0" type="curve"/>
    </contour>
    <contour>
      <point x="316.0" y="0.0"/>
      <point x="316.0" y="22.0"/>
      <point x="316.0" y="0.0" type="curve"/>
      <point x="360.0" y="0.0"/>
      <point x="404.0" y="0.0"/>
      <point x="448.0" y="0.0" type="curve"/>
      <point x="448.0" y="22.0"/>
      <point x="448.0" y="0.0"/>
      <point x="448.0" y="22.0" type="curve"/>
      <point x="316.0" y="22.0"/>
      <point x="448.0" y="22.0"/>
      <point x="316.0" y="22.0" type="curve"/>
    </contour>
    <contour>
      <point x="481.0" y="722.0"/>
      <point x="481.0" y="700.0"/>
      <point x="481.0" y="722.0" type="curve"/>
      <point x="437.0" y="722.0"/>
      <point x="393.0" y="722.0"/>
      <point x="349.0" y="722.0" type="curve"/>
      <point x="349.0" y="700.0"/>
      <point x="349.0" y="722.0"/>
      <point x="349.0" y="700.0" type="curve"/>
      <point x="481.0" y="700.0"/>
      <point x="349.0" y="700.0"/>
      <point x="481.0" y="700.0" type="curve"/>
    </contour>
    <contour>
      <point x="160.0" y="722.0"/>
      <point x="160.0" y="700.0"/>
      <point x="160.0" y="722.0" type="curve"/>
      <point x="116.0" y="722.0"/>
      <point x="72.0" y="722.0"/>
      <point x="28.0" y="722.0" type="curve"/>
      <point x="28.0" y="700.0"/>
      <point x="28.0" y="722.0"/>
      <point x="28.0" y="700.0" type="curve"/>
      <point x="160.0" y="700.0"/>
      <point x="28.0" y="700.0"/>
      <point x="160.0" y="700.0" type="curve"/>
    </contour>
    <contour>
      <point x="160.0" y="700.0"/>
      <point x="160.0" y="722.0"/>
      <point x="160.0" y="700.0" type="curve"/>
      <point x="292.0" y="700.0"/>
      <point x="160.0" y="700.0"/>
      <point x="292.0" y="700.0" type="curve"/>
      <point x="292.0" y="722.0"/>
      <point x="292.0" y="700.0"/>
      <point x="292.0" y="722.0" type="curve"/>
      <point x="248.0" y="722.0"/>
      <point x="204.0" y="722.0"/>
      <point x="160.0" y="722.0" type="curve"/>
    </contour>
    <contour>
      <point x="481.0" y="700.0"/>
      <point x="481.0" y="722.0"/>
      <point x="481.0" y="700.0" type="curve"/>
      <point x="613.0" y="700.0"/>
      <point x="481.0" y="700.0"/>
      <point x="613.0" y="700.0" type="curve"/>
      <point x="613.0" y="722.0"/>
      <point x="613.0" y="700.0"/>
      <point x="613.0" y="722.0" type="curve"/>
      <point x="569.0" y="722.0"/>
      <point x="525.0" y="722.0"/>
      <point x="481.0" y="722.0" type="curve"/>
    </contour>
    <contour>
      <point x="138.0" y="722.0"/>
      <point x="165.0" y="722.0"/>
      <point x="138.0" y="722.0" type="curve"/>
      <point x="193.0" y="594.0"/>
      <point x="248.0" y="465.0"/>
      <point x="303.0" y="337.0" type="curve"/>
      <point x="329.0" y="337.0"/>
      <point x="303.0" y="337.0"/>
      <point x="329.0" y="337.0" type="curve"/>
      <point x="274.0" y="465.0"/>
      <point x="219.0" y="594.0"/>
      <point x="165.0" y="722.0" type="curve"/>
    </contour>
    <contour>
      <point x="476.0" y="722.0"/>
      <point x="503.0" y="722.0"/>
      <point x="476.0" y="722.0" type="curve"/>
      <point x="419.0" y="594.0"/>
      <point x="361.0" y="465.0"/>
      <point x="303.0" y="337.0" type="curve"/>
      <point x="329.0" y="337.0"/>
      <point x="303.0" y="337.0"/>
      <point x="329.0" y="337.0" type="curve"/>
      <point x="387.0" y="465.0"/>
      <point x="445.0" y="594.0"/>
      <point x="503.0" y="722.0" type="curve"/>
    </contour>
    <contour>
      <point x="329.0" y="0.0"/>
      <point x="303.0" y="0.0"/>
      <point x="329.0" y="0.0" type="curve"/>
      <point x="329.0" y="115.0"/>
      <point x="329.0" y="231.0"/>
      <point x="329.0" y="346.0" type="curve"/>
      <point x="303.0" y="346.0"/>
      <point x="329.0" y="346.0"/>
      <point x="303.0" y="346.0" type="curve"/>
      <point x="303.0" y="231.0"/>
      <point x="303.0" y="115.0"/>
      <point x="303.0" y="0.0" type="curve"/>
    </contour>
    <contour>
      <point x="315.0" y="839.0" type="move" name="top"/>
    </contour>
  </outline>
</glyph>
<glyph name="bracketleft" format="1">
  <advance width="238"/>
  <unicode hex="005B"/>
  <outline>
    <contour>
      <point x="180.0" y="771.0"/>
      <point x="180.0" y="747.0"/>
      <point x="180.0" y="771.0" type="curve"/>
      <point x="145.0" y="771.0"/>
      <point x="109.0" y="771.0"/>
      <point x="73.0" y="771.0" type="curve"/>
      <point x="71.0" y="771.0"/>
      <point x="68.0" y="771.0"/>
      <point x="66.0" y="771.0" type="curve"/>
      <point x="66.0" y="769.0"/>
      <point x="66.0" y="767.0"/>
      <point x="66.0" y="765.0" type="curve"/>
      <point x="66.0" y="470.0"/>
      <point x="66.0" y="175.0"/>
      <point x="66.0" y="-120.0" type="curve"/>
      <point x="66.0" y="-121.0"/>
      <point x="66.0" y="-123.0"/>
      <point x="66.0" y="-124.0" type="curve"/>
      <point x="68.0" y="-124.0"/>
      <point x="71.0" y="-124.0"/>
      <point x="72.0" y="-124.0" type="curve"/>
      <point x="108.0" y="-124.0"/>
      <point x="144.0" y="-124.0"/>
      <point x="180.0" y="-124.0" type="curve"/>
      <point x="180.0" y="-100.0"/>
      <point x="180.0" y="-124.0"/>
      <point x="180.0" y="-100.0" type="curve"/>
      <point x="144.0" y="-100.0"/>
      <point x="108.0" y="-100.0"/>
      <point x="72.0" y="-100.0" type="curve"/>
      <point x="90.0" y="-100.0"/>
      <point x="72.0" y="-100.0"/>
      <point x="90.0" y="-100.0" type="curve"/>
      <point x="90.0" y="-120.0"/>
      <point x="90.0" y="-100.0"/>
      <point x="90.0" y="-120.0" type="curve"/>
      <point x="90.0" y="175.0"/>
      <point x="90.0" y="470.0"/>
      <point x="90.0" y="765.0" type="curve"/>
      <point x="90.0" y="747.0"/>
      <point x="90.0" y="765.0"/>
      <point x="90.0" y="747.0" type="curve"/>
      <point x="73.0" y="747.0"/>
      <point x="90.0" y="747.0"/>
      <point x="73.0" y="747.0" type="curve"/>
      <point x="109.0" y="747.0"/>
      <point x="145.0" y="747.0"/>
      <point x="180.0" y="747.0" type="curve"/>
    </contour>
  </outline>
</glyph>
<glyph name="backslash" format="1">
  <advance width="369"/>
  <unicode hex="005C"/>
  <outline>
    <contour>
      <point x="335.0" y="-68.0"/>
      <point x="309.7" y="-68.0"/>
      <point x="335.0" y="-68.0" type="curve"/>
      <point x="243.534248" y="235.99696"/>
      <point x="152.065752" y="540.00304"/>
      <point x="60.6" y="844.0" type="curve"/>
      <point x="35.3" y="844.0"/>
      <point x="60.6" y="844.0"/>
      <point x="35.3" y="844.0" type="curve"/>
      <point x="126.765752" y="540.00304"/>
      <point x="218.234248" y="235.99696"/>
      <point x="309.7" y="-68.0" type="curve"/>
    </contour>
  </outline>
</glyph>
<glyph name="bracketright" format="1">
  <advance width="232"/>
  <unicode hex="005D"/>
  <outline>
    <contour>
      <point x="51.0" y="747.0"/>
      <point x="51.0" y="771.0"/>
      <point x="51.0" y="747.0" type="curve"/>
      <point x="87.0" y="747.0"/>
      <point x="123.0" y="747.0"/>
      <point x="159.0" y="747.0" type="curve"/>
      <point x="156.0" y="750.0"/>
      <point x="152.0" y="752.0"/>
      <point x="150.0" y="756.0" type="curve"/>
      <point x="147.0" y="759.0"/>
      <point x="144.0" y="762.0"/>
      <point x="142.0" y="765.0" type="curve"/>
      <point x="142.0" y="470.0"/>
      <point x="141.0" y="175.0"/>
      <point x="142.0" y="-120.0" type="curve"/>
      <point x="144.0" y="-116.0"/>
      <point x="148.0" y="-113.0"/>
      <point x="151.0" y="-109.0" type="curve"/>
      <point x="153.0" y="-106.0"/>
      <point x="157.0" y="-104.0"/>
      <point x="159.0" y="-100.0" type="curve"/>
      <point x="123.0" y="-100.0"/>
      <point x="87.0" y="-100.0"/>
      <point x="51.0" y="-100.0" type="curve"/>
      <point x="51.0" y="-124.0"/>
      <point x="51.0" y="-100.0"/>
      <point x="51.0" y="-124.0" type="curve"/>
      <point x="87.0" y="-124.0"/>
      <point x="123.0" y="-124.0"/>
      <point x="159.0" y="-124.0" type="curve"/>
      <point x="166.0" y="-124.0"/>
      <point x="159.0" y="-124.0"/>
      <point x="166.0" y="-124.0" type="curve"/>
      <point x="166.0" y="-120.0"/>
      <point x="166.0" y="-124.0"/>
      <point x="166.0" y="-120.0" type="curve"/>
      <point x="166.0" y="175.0"/>
      <point x="166.0" y="470.0"/>
      <point x="166.0" y="765.0" type="curve"/>
      <point x="166.0" y="771.0"/>
      <point x="166.0" y="765.0"/>
      <point x="166.0" y="771.0" type="curve"/>
      <point x="159.0" y="771.0"/>
      <point x="166.0" y="771.0"/>
      <point x="159.0" y="771.0" type="curve"/>
      <point x="123.0" y="771.0"/>
      <point x="87.0" y="771.0"/>
      <point x="51.0" y="771.0" type="curve"/>
    </contour>
  </outline>
</glyph>
<glyph name="underscore" format="1">
  <advance width="857"/>
  <unicode hex="005F"/>
  <outline>
    <contour>
      <point x="59.5" y="-209.533333333"/>
      <point x="59.5" y="-187.973333333"/>
      <point x="59.5" y="-209.533333333" type="curve"/>
      <point x="218.631742" y="-209.533333333"/>
      <point x="377.768258" y="-209.533333333"/>
      <point x="536.9" y="-209.533333333" type="curve"/>
      <point x="536.9" y="-187.973333333"/>
      <point x="536.9" y="-209.533333333"/>
      <point x="536.9" y="-187.973333333" type="curve"/>
      <point x="377.768258" y="-187.973333333"/>
      <point x="218.631742" y="-187.973333333"/>
      <point x="59.5" y="-187.973333333" type="curve"/>
    </contour>
  </outline>
</glyph>
<glyph name="grave" format="1">
  <advance width="400"/>
  <unicode hex="0060"/>
  <outline>
    <contour>
      <point x="209.7" y="591.0"/>
      <point x="173.0" y="591.0"/>
      <point x="206.0" y="591.0" type="curve"/>
      <point x="167.0" y="646.0"/>
      <point x="129.0" y="702.0"/>
      <point x="90.0" y="757.0" type="curve"/>
      <point x="57.0" y="757.0"/>
      <point x="94.2" y="757.0"/>
      <point x="61.2" y="757.0" type="curve"/>
      <point x="99.699615" y="701.66722"/>
      <point x="138.200385" y="646.33278"/>
      <point x="176.7" y="591.0" type="curve"/>
    </contour>
    <contour>
      <point x="144.0" y="606.0" type="move" name="_top"/>
    </contour>
  </outline>
</glyph>
<glyph name="a" format="1">
  <advance width="428"/>
  <unicode hex="0061"/>
  <outline>
    <contour>
      <point x="42.6" y="463.943923518"/>
      <point x="64.38" y="463.943923518"/>
      <point x="42.6" y="463.943923518" type="curve"/>
      <point x="42.6" y="343.943923518"/>
      <point x="42.6" y="463.943923518"/>
      <point x="42.6" y="343.943923518" type="curve"/>
      <point x="64.38" y="343.943923518"/>
      <point x="42.6" y="343.943923518"/>
      <point x="64.38" y="343.943923518" type="curve"/>
      <point x="64.38" y="463.943923518"/>
      <point x="64.38" y="343.943923518"/>
      <point x="64.38" y="463.943923518" type="curve"/>
    </contour>
    <contour>
      <point x="299.1" y="0.0"/>
      <point x="274.9" y="1.45213821436e-15"/>
      <point x="299.1" y="0.0" type="curve"/>
      <point x="299.1" y="129.884311087"/>
      <point x="299.1" y="259.772518741"/>
      <point x="299.1" y="389.656829828" type="curve"/>
      <point x="299.1" y="485.184935711"/>
      <point x="264.0" y="538.0"/>
      <point x="179.0" y="538.0" type="curve"/>
      <point x="114.0" y="538.0"/>
      <point x="72.026634037" y="500.868823753"/>
      <point x="42.6" y="463.943923518" type="curve"/>
      <point x="53.0" y="444.0"/>
      <point x="43.0" y="464.0"/>
      <point x="53.0" y="444.0" type="curve"/>
      <point x="79.0" y="479.0"/>
      <point x="116.0" y="516.0"/>
      <point x="176.0" y="516.0" type="curve"/>
      <point x="249.0" y="516.0"/>
      <point x="274.9" y="468.076774203"/>
      <point x="274.9" y="383.188829828" type="curve"/>
      <point x="274.9" y="255.460497181"/>
      <point x="274.9" y="127.728332647"/>
      <point x="274.9" y="1.45213821436e-15" type="curve"/>
    </contour>
    <contour>
      <point x="288.4" y="0.0"/>
      <point x="288.4" y="21.56"/>
      <point x="288.4" y="0.0" type="curve"/>
      <point x="330.099583" y="0.0"/>
      <point x="371.800417" y="0.0"/>
      <point x="413.5" y="0.0" type="curve"/>
      <point x="413.5" y="21.56"/>
      <point x="413.5" y="0.0"/>
      <point x="413.5" y="21.56" type="curve"/>
      <point x="288.4" y="21.56"/>
      <point x="413.5" y="21.56"/>
      <point x="288.4" y="21.56" type="curve"/>
    </contour>
    <contour>
      <point x="286.1" y="319.52919883"/>
      <point x="287.2" y="301.20319883"/>
      <point x="286.1" y="319.52919883" type="curve"/>
      <point x="230.303258734" y="308.621768371"/>
      <point x="204.0" y="305.0"/>
      <point x="148.0" y="294.0" type="curve"/>
      <point x="72.0" y="278.0"/>
      <point x="29.0" y="231.0"/>
      <point x="29.0" y="152.0" type="curve"/>
      <point x="29.0" y="61.0"/>
      <point x="55.1654125599" y="-5.0"/>
      <point x="136.4" y="-5.0" type="curve"/>
      <point x="228.764625443" y="-5.0"/>
      <point x="250.319143046" y="66.527594292"/>
      <point x="292.7" y="152.899421053" type="curve"/>
      <point x="280.6" y="164.757421053"/>
      <point x="292.7" y="152.899421053"/>
      <point x="280.6" y="164.757421053" type="curve"/>
      <point x="240.0" y="85.0"/>
      <point x="216.0" y="17.0"/>
      <point x="140.8" y="16.56" type="curve"/>
      <point x="71.1080327428" y="16.56"/>
      <point x="53.0" y="75.0"/>
      <point x="53.0" y="154.0" type="curve"/>
      <point x="53.0" y="219.0"/>
      <point x="87.0" y="261.0"/>
      <point x="147.0" y="274.0" type="curve"/>
      <point x="204.0" y="285.0"/>
      <point x="230.370108199" y="290.192091961"/>
      <point x="287.2" y="301.20319883" type="curve"/>
    </contour>
    <contour>
      <point x="178.0" y="668.0" type="move" name="top"/>
    </contour>
    <contour>
      <point x="293.0" y="3.0" type="move" name="bottom"/>
    </contour>
  </outline>
</glyph>
<glyph name="b" format="1">
  <advance width="502"/>
  <unicode hex="0062"/>
  <outline>
    <contour>
      <point x="158.0" y="800.0"/>
      <point x="158.0" y="778.0"/>
      <point x="158.0" y="800.0" type="curve"/>
      <point x="114.0" y="800.0"/>
      <point x="70.0" y="800.0"/>
      <point x="26.0" y="800.0" type="curve"/>
      <point x="26.0" y="778.0"/>
      <point x="26.0" y="800.0"/>
      <point x="26.0" y="778.0" type="curve"/>
      <point x="158.0" y="778.0"/>
      <point x="26.0" y="778.0"/>
      <point x="158.0" y="778.0" type="curve"/>
    </contour>
    <contour>
      <point x="163.0" y="408.0"/>
      <point x="151.0" y="424.0"/>
      <point x="163.0" y="408.0" type="curve"/>
      <point x="188.0" y="450.0"/>
      <point x="235.0" y="511.0"/>
      <point x="305.0" y="511.0" type="curve"/>
      <point x="416.0" y="511.0"/>
      <point x="438.0" y="394.0"/>
      <point x="438.0" y="263.0" type="curve"/>
      <point x="438.0" y="143.0"/>
      <point x="415.0" y="21.0"/>
      <point x="305.0" y="22.0" type="curve"/>
      <point x="241.0" y="22.0"/>
      <point x="201.0" y="57.0"/>
      <point x="165.0" y="110.0" type="curve"/>
      <point x="150.0" y="97.0"/>
      <point x="165.0" y="110.0"/>
      <point x="150.0" y="97.0" type="curve"/>
      <point x="187.0" y="36.0"/>
      <point x="235.0" y="0.0"/>
      <point x="306.0" y="0.0" type="curve"/>
      <point x="428.0" y="0.0"/>
      <point x="462.0" y="123.0"/>
      <point x="462.0" y="264.0" type="curve"/>
      <point x="462.0" y="407.0"/>
      <point x="431.0" y="533.0"/>
      <point x="307.0" y="533.0" type="curve"/>
      <point x="231.0" y="533.0"/>
      <point x="177.0" y="471.0"/>
      <point x="151.0" y="424.0" type="curve"/>
    </contour>
    <contour>
      <point x="168.0" y="0.0"/>
      <point x="144.0" y="0.0"/>
      <point x="168.0" y="0.0" type="curve"/>
      <point x="168.0" y="267.0"/>
      <point x="168.0" y="533.0"/>
      <point x="168.0" y="800.0" type="curve"/>
      <point x="144.0" y="800.0"/>
      <point x="168.0" y="800.0"/>
      <point x="144.0" y="800.0" type="curve"/>
      <point x="144.0" y="533.0"/>
      <point x="144.0" y="267.0"/>
      <point x="144.0" y="0.0" type="curve"/>
    </contour>
    <contour>
      <point x="158.0" y="22.0"/>
      <point x="158.0" y="0.0"/>
      <point x="158.0" y="22.0" type="curve"/>
      <point x="26.0" y="22.0"/>
      <point x="158.0" y="22.0"/>
      <point x="26.0" y="22.0" type="curve"/>
      <point x="26.0" y="0.0"/>
      <point x="26.0" y="22.0"/>
      <point x="26.0" y="0.0" type="curve"/>
      <point x="70.0" y="0.0"/>
      <point x="114.0" y="0.0"/>
      <point x="158.0" y="0.0" type="curve"/>
    </contour>
  </outline>
</glyph>
<glyph name="c" format="1">
  <advance width="406"/>
  <unicode hex="0063"/>
  <outline>
    <contour>
      <point x="316.12" y="472.939333333"/>
      <point x="337.9" y="472.939333333"/>
      <point x="316.12" y="472.939333333" type="curve"/>
      <point x="316.12" y="352.939333333"/>
      <point x="316.12" y="472.939333333"/>
      <point x="316.12" y="352.939333333" type="curve"/>
      <point x="337.9" y="352.939333333"/>
      <point x="316.12" y="352.939333333"/>
      <point x="337.9" y="352.939333333" type="curve"/>
      <point x="337.9" y="472.939333333"/>
      <point x="337.9" y="352.939333333"/>
      <point x="337.9" y="472.939333333" type="curve"/>
    </contour>
    <contour>
      <point x="337.9" y="472.939333333"/>
      <point x="323.6" y="457.847333333"/>
      <point x="337.9" y="472.939333333" type="curve"/>
      <point x="308.786507679" y="506.862024746"/>
      <point x="268.935657601" y="538.0"/>
      <point x="222.8" y="538.0" type="curve"/>
      <point x="89.3710562525" y="538.0"/>
      <point x="53.7" y="422.369442517"/>
      <point x="53.7" y="266.998479532" type="curve"/>
      <point x="53.7" y="111.501603282"/>
      <point x="87.2340403946" y="-5.0"/>
      <point x="221.0" y="-5.0" type="curve"/>
      <point x="274.80154711" y="-5.0"/>
      <point x="319.0" y="35.0"/>
      <point x="346.0" y="88.0" type="curve"/>
      <point x="330.0" y="98.0"/>
      <point x="346.0" y="88.0"/>
      <point x="330.0" y="98.0" type="curve"/>
      <point x="306.0" y="57.0"/>
      <point x="269.0" y="17.0"/>
      <point x="222.0" y="17.0" type="curve"/>
      <point x="104.0" y="17.0"/>
      <point x="77.9" y="127.770025343"/>
      <point x="77.9" y="266.998479532" type="curve"/>
      <point x="77.9" y="406.108610395"/>
      <point x="108.0" y="516.0"/>
      <point x="222.0" y="516.0" type="curve"/>
      <point x="262.0" y="516.0"/>
      <point x="297.965689833" y="487.235823303"/>
      <point x="323.6" y="457.847333333" type="curve"/>
    </contour>
    <contour>
      <point x="222.0" y="669.0" type="move" name="top"/>
    </contour>
    <contour>
      <point x="214.0" y="11.0" type="move" name="bottom"/>
    </contour>
  </outline>
</glyph>
<glyph name="e" format="1">
  <advance width="391"/>
  <unicode hex="0065"/>
  <outline>
    <contour>
      <point x="72.1" y="273.166783626"/>
      <point x="72.1" y="294.726783626"/>
      <point x="72.1" y="273.166783626" type="curve"/>
      <point x="163.332421" y="273.166783626"/>
      <point x="254.567579" y="273.166783626"/>
      <point x="345.8" y="273.166783626" type="curve"/>
      <point x="351.4" y="273.166783626"/>
      <point x="345.8" y="273.166783626"/>
      <point x="351.4" y="273.166783626" type="curve"/>
      <point x="351.4" y="275.971111111"/>
      <point x="351.4" y="273.166783626"/>
      <point x="351.4" y="275.971111111" type="curve"/>
      <point x="351.4" y="284.916639589"/>
      <point x="351.4" y="293.862436435"/>
      <point x="351.4" y="302.807964912" type="curve"/>
      <point x="351.4" y="434.832739277"/>
      <point x="323.0" y="538.0"/>
      <point x="210.0" y="538.0" type="curve"/>
      <point x="86.0" y="538.0"/>
      <point x="59.3" y="424.652105196"/>
      <point x="59.3" y="280.955906433" type="curve"/>
      <point x="59.3" y="121.511514332"/>
      <point x="89.0" y="-5.0"/>
      <point x="227.0" y="-5.0" type="curve"/>
      <point x="283.0" y="-5.0"/>
      <point x="316.0" y="27.0"/>
      <point x="351.0" y="76.0" type="curve"/>
      <point x="333.0" y="90.0"/>
      <point x="351.0" y="76.0"/>
      <point x="333.2" y="90.1475730994" type="curve"/>
      <point x="304.098035959" y="48.7270607428"/>
      <point x="277.0" y="17.0"/>
      <point x="227.0" y="17.0" type="curve"/>
      <point x="104.0" y="17.0"/>
      <point x="83.5" y="136.339778216"/>
      <point x="83.5" y="280.955906433" type="curve"/>
      <point x="83.5" y="409.804144607"/>
      <point x="101.0" y="516.0"/>
      <point x="208.0" y="516.0" type="curve"/>
      <point x="309.0" y="516.0"/>
      <point x="328.3" y="421.987160086"/>
      <point x="328.3" y="304.963964912" type="curve"/>
      <point x="328.3" y="295.299776955"/>
      <point x="328.3" y="285.635299069"/>
      <point x="328.3" y="275.971111111" type="curve"/>
      <point x="330.985319726" y="279.396804289"/>
      <point x="334.614680274" y="281.963774658"/>
      <point x="337.3" y="285.389467836" type="curve"/>
      <point x="339.767934922" y="288.815854977"/>
      <point x="343.332065078" y="291.300396485"/>
      <point x="345.8" y="294.726783626" type="curve"/>
      <point x="254.567579" y="294.726783626"/>
      <point x="163.332421" y="294.726783626"/>
      <point x="72.1" y="294.726783626" type="curve"/>
    </contour>
    <contour>
      <point x="208.0" y="671.0" type="move" name="top"/>
    </contour>
    <contour>
      <point x="246.0" y="9.0" type="move" name="bottom"/>
    </contour>
  </outline>
</glyph>
<glyph name="f" format="1">
  <advance width="412"/>
  <unicode hex="0066"/>
  <outline>
    <contour>
      <point x="329.0" y="777.0"/>
      <point x="350.0" y="777.0"/>
      <point x="329.0" y="777.0" type="curve"/>
      <point x="329.0" y="657.0"/>
      <point x="329.0" y="777.0"/>
      <point x="329.0" y="657.0" type="curve"/>
      <point x="350.0" y="657.0"/>
      <point x="329.0" y="657.0"/>
      <point x="350.0" y="657.0" type="curve"/>
      <point x="350.0" y="777.0"/>
      <point x="350.0" y="657.0"/>
      <point x="350.0" y="777.0" type="curve"/>
    </contour>
    <contour>
      <point x="178.0" y="0.0"/>
      <point x="178.0" y="22.0"/>
      <point x="178.0" y="0.0" type="curve"/>
      <point x="222.0" y="0.0"/>
      <point x="266.0" y="0.0"/>
      <point x="310.0" y="0.0" type="curve"/>
      <point x="310.0" y="22.0"/>
      <point x="310.0" y="0.0"/>
      <point x="310.0" y="22.0" type="curve"/>
      <point x="178.0" y="22.0"/>
      <point x="310.0" y="22.0"/>
      <point x="178.0" y="22.0" type="curve"/>
    </contour>
    <contour>
      <point x="178.0" y="22.0"/>
      <point x="178.0" y="0.0"/>
      <point x="178.0" y="22.0" type="curve"/>
      <point x="46.0" y="22.0"/>
      <point x="178.0" y="22.0"/>
      <point x="46.0" y="22.0" type="curve"/>
      <point x="46.0" y="0.0"/>
      <point x="46.0" y="22.0"/>
      <point x="46.0" y="0.0" type="curve"/>
      <point x="90.0" y="0.0"/>
      <point x="134.0" y="0.0"/>
      <point x="178.0" y="0.0" type="curve"/>
    </contour>
    <contour>
      <point x="48.0" y="487.0"/>
      <point x="48.0" y="509.0"/>
      <point x="48.0" y="487.0" type="curve"/>
      <point x="48.0" y="487.0"/>
      <point x="323.0" y="487.0"/>
      <point x="323.0" y="487.0" type="curve"/>
      <point x="323.0" y="509.0"/>
      <point x="323.0" y="487.0"/>
      <point x="323.0" y="509.0" type="curve"/>
      <point x="323.0" y="509.0"/>
      <point x="48.0" y="509.0"/>
      <point x="48.0" y="509.0" type="curve"/>
    </contour>
    <contour>
      <point x="190.0" y="0.0"/>
      <point x="166.0" y="0.0"/>
      <point x="190.0" y="0.0" type="curve"/>
      <point x="190.0" y="0.0"/>
      <point x="190.0" y="640.0"/>
      <point x="190.0" y="640.0" type="curve"/>
      <point x="190.0" y="718.0"/>
      <point x="210.0" y="784.0"/>
      <point x="274.0" y="784.0" type="curve"/>
      <point x="299.0" y="784.0"/>
      <point x="321.0" y="774.0"/>
      <point x="341.0" y="760.0" type="curve"/>
      <point x="350.0" y="777.0"/>
      <point x="341.0" y="760.0"/>
      <point x="350.0" y="777.0" type="curve"/>
      <point x="328.0" y="793.0"/>
      <point x="301.0" y="805.0"/>
      <point x="274.0" y="805.0" type="curve"/>
      <point x="195.0" y="805.0"/>
      <point x="165.0" y="729.0"/>
      <point x="166.0" y="640.0" type="curve"/>
      <point x="166.0" y="640.0"/>
      <point x="166.0" y="0.0"/>
      <point x="166.0" y="0.0" type="curve"/>
    </contour>
  </outline>
</glyph>
<glyph name="h" format="1">
  <advance width="583"/>
  <unicode hex="0068"/>
  <outline>
    <contour>
      <point x="421.0" y="0.0"/>
      <point x="421.0" y="22.0"/>
      <point x="421.0" y="0.0" type="curve"/>
      <point x="465.0" y="0.0"/>
      <point x="509.0" y="0.0"/>
      <point x="553.0" y="0.0" type="curve"/>
      <point x="553.0" y="22.0"/>
      <point x="553.0" y="0.0"/>
      <point x="553.0" y="22.0" type="curve"/>
      <point x="421.0" y="22.0"/>
      <point x="553.0" y="22.0"/>
      <point x="421.0" y="22.0" type="curve"/>
    </contour>
    <contour>
      <point x="161.0" y="0.0"/>
      <point x="161.0" y="22.0"/>
      <point x="161.0" y="0.0" type="curve"/>
      <point x="203.0" y="0.0"/>
      <point x="151.0" y="0.0"/>
      <point x="276.0" y="0.0" type="curve"/>
      <point x="276.0" y="22.0"/>
      <point x="276.0" y="0.0"/>
      <point x="276.0" y="22.0" type="curve"/>
      <point x="151.0" y="22.0"/>
      <point x="286.0" y="22.0"/>
      <point x="161.0" y="22.0" type="curve"/>
    </contour>
    <contour>
      <point x="161.0" y="800.0"/>
      <point x="161.0" y="778.0"/>
      <point x="161.0" y="800.0" type="curve"/>
      <point x="117.0" y="800.0"/>
      <point x="73.0" y="800.0"/>
      <point x="29.0" y="800.0" type="curve"/>
      <point x="29.0" y="778.0"/>
      <point x="29.0" y="800.0"/>
      <point x="29.0" y="778.0" type="curve"/>
      <point x="161.0" y="778.0"/>
      <point x="29.0" y="778.0"/>
      <point x="161.0" y="778.0" type="curve"/>
    </contour>
    <contour>
      <point x="161.0" y="22.0"/>
      <point x="161.0" y="0.0"/>
      <point x="161.0" y="22.0" type="curve"/>
      <point x="29.0" y="22.0"/>
      <point x="161.0" y="22.0"/>
      <point x="29.0" y="22.0" type="curve"/>
      <point x="29.0" y="0.0"/>
      <point x="29.0" y="22.0"/>
      <point x="29.0" y="0.0" type="curve"/>
      <point x="73.0" y="0.0"/>
      <point x="117.0" y="0.0"/>
      <point x="161.0" y="0.0" type="curve"/>
    </contour>
    <contour>
      <point x="421.0" y="22.0"/>
      <point x="421.0" y="0.0"/>
      <point x="421.0" y="22.0" type="curve"/>
      <point x="296.0" y="22.0"/>
      <point x="431.0" y="22.0"/>
      <point x="306.0" y="22.0" type="curve"/>
      <point x="306.0" y="0.0"/>
      <point x="306.0" y="22.0"/>
      <point x="306.0" y="0.0" type="curve"/>
      <point x="348.0" y="0.0"/>
      <point x="379.0" y="0.0"/>
      <point x="421.0" y="0.0" type="curve"/>
    </contour>
    <contour>
      <point x="168.0" y="354.0"/>
      <point x="155.0" y="364.0"/>
      <point x="167.0" y="353.0" type="curve"/>
      <point x="188.0" y="430.0"/>
      <point x="232.0" y="516.0"/>
      <point x="308.0" y="516.0" type="curve"/>
      <point x="393.0" y="516.0"/>
      <point x="410.0" y="438.0"/>
      <point x="410.0" y="341.0" type="curve"/>
      <point x="410.0" y="228.0"/>
      <point x="410.0" y="114.0"/>
      <point x="410.0" y="0.0" type="curve"/>
      <point x="434.0" y="0.0"/>
      <point x="410.0" y="0.0"/>
      <point x="434.0" y="0.0" type="curve"/>
      <point x="434.0" y="115.0"/>
      <point x="434.0" y="229.0"/>
      <point x="434.0" y="344.0" type="curve"/>
      <point x="434.0" y="454.0"/>
      <point x="408.0" y="538.0"/>
      <point x="311.0" y="538.0" type="curve"/>
      <point x="227.0" y="538.0"/>
      <point x="172.0" y="452.0"/>
      <point x="156.0" y="365.0" type="curve"/>
    </contour>
    <contour>
      <point x="173.0" y="0.0"/>
      <point x="149.0" y="0.0"/>
      <point x="173.0" y="0.0" type="curve"/>
      <point x="173.0" y="267.0"/>
      <point x="173.0" y="533.0"/>
      <point x="173.0" y="800.0" type="curve"/>
      <point x="149.0" y="800.0"/>
      <point x="173.0" y="800.0"/>
      <point x="149.0" y="800.0" type="curve"/>
      <point x="149.0" y="533.0"/>
      <point x="149.0" y="267.0"/>
      <point x="149.0" y="0.0" type="curve"/>
    </contour>
  </outline>
</glyph>
<glyph name="i" format="1">
  <advance width="311"/>
  <unicode hex="0069"/>
  <outline>
    <contour>
      <point x="159.0" y="22.0"/>
      <point x="159.0" y="0.0"/>
      <point x="159.0" y="22.0" type="curve"/>
      <point x="27.0" y="22.0"/>
      <point x="159.0" y="22.0"/>
      <point x="27.0" y="22.0" type="curve"/>
      <point x="27.0" y="0.0"/>
      <point x="27.0" y="22.0"/>
      <point x="27.0" y="0.0" type="curve"/>
      <point x="71.0" y="0.0"/>
      <point x="115.0" y="0.0"/>
      <point x="159.0" y="0.0" type="curve"/>
    </contour>
    <contour>
      <point x="159.0" y="0.0"/>
      <point x="159.0" y="22.0"/>
      <point x="159.0" y="0.0" type="curve"/>
      <point x="200.0" y="0.0"/>
      <point x="242.0" y="0.0"/>
      <point x="284.0" y="0.0" type="curve"/>
      <point x="284.0" y="22.0"/>
      <point x="284.0" y="0.0"/>
      <point x="284.0" y="22.0" type="curve"/>
      <point x="159.0" y="22.0"/>
      <point x="284.0" y="22.0"/>
      <point x="159.0" y="22.0" type="curve"/>
    </contour>
    <contour>
      <point x="159.0" y="533.0"/>
      <point x="159.0" y="511.0"/>
      <point x="159.0" y="533.0" type="curve"/>
      <point x="115.0" y="533.0"/>
      <point x="71.0" y="533.0"/>
      <point x="27.0" y="533.0" type="curve"/>
      <point x="27.0" y="511.0"/>
      <point x="27.0" y="533.0"/>
      <point x="27.0" y="511.0" type="curve"/>
      <point x="159.0" y="511.0"/>
      <point x="27.0" y="511.0"/>
      <point x="159.0" y="511.0" type="curve"/>
    </contour>
    <contour>
      <point x="173.0" y="670.0"/>
      <point x="144.0" y="670.0"/>
      <point x="173.0" y="670.0" type="curve"/>
      <point x="173.0" y="679.0"/>
      <point x="167.0" y="684.0"/>
      <point x="158.0" y="684.0" type="curve"/>
      <point x="150.0" y="684.0"/>
      <point x="144.0" y="678.0"/>
      <point x="144.0" y="670.0" type="curve"/>
      <point x="173.0" y="670.0"/>
      <point x="144.0" y="670.0"/>
      <point x="173.0" y="670.0" type="curve"/>
      <point x="173.0" y="661.0"/>
      <point x="167.0" y="657.0"/>
      <point x="158.0" y="657.0" type="curve"/>
      <point x="150.0" y="657.0"/>
      <point x="144.0" y="662.0"/>
      <point x="144.0" y="670.0" type="curve"/>
    </contour>
    <contour>
      <point x="172.0" y="0.0"/>
      <point x="146.0" y="0.0"/>
      <point x="172.0" y="0.0" type="curve"/>
      <point x="172.0" y="178.0"/>
      <point x="172.0" y="355.0"/>
      <point x="172.0" y="533.0" type="curve"/>
      <point x="146.0" y="533.0"/>
      <point x="172.0" y="533.0"/>
      <point x="146.0" y="533.0" type="curve"/>
      <point x="146.0" y="355.0"/>
      <point x="146.0" y="178.0"/>
      <point x="146.0" y="0.0" type="curve"/>
    </contour>
    <contour>
      <point x="159" y="669" type="move" name="top"/>
    </contour>
    <contour>
      <point x="168" y="10" type="move" name="bottom"/>
    </contour>
  </outline>
</glyph>
<glyph name="j" format="1">
  <advance width="296"/>
  <unicode hex="006A"/>
  <outline>
    <contour>
      <point x="199.0" y="533.0"/>
      <point x="199.0" y="511.0"/>
      <point x="199.0" y="533.0" type="curve"/>
      <point x="154.0" y="533.0"/>
      <point x="110.0" y="533.0"/>
      <point x="66.0" y="533.0" type="curve"/>
      <point x="66.0" y="511.0"/>
      <point x="66.0" y="533.0"/>
      <point x="66.0" y="511.0" type="curve"/>
      <point x="199.0" y="511.0"/>
      <point x="66.0" y="511.0"/>
      <point x="199.0" y="511.0" type="curve"/>
    </contour>
    <contour>
      <point x="214.0" y="670.0"/>
      <point x="186.0" y="670.0"/>
      <point x="214.0" y="670.0" type="curve"/>
      <point x="214.0" y="679.0"/>
      <point x="209.0" y="684.0"/>
      <point x="200.0" y="684.0" type="curve"/>
      <point x="192.0" y="684.0"/>
      <point x="186.0" y="678.0"/>
      <point x="186.0" y="670.0" type="curve"/>
      <point x="214.0" y="670.0"/>
      <point x="186.0" y="670.0"/>
      <point x="214.0" y="670.0" type="curve"/>
      <point x="214.0" y="661.0"/>
      <point x="209.0" y="657.0"/>
      <point x="200.0" y="657.0" type="curve"/>
      <point x="192.0" y="657.0"/>
      <point x="186.0" y="662.0"/>
      <point x="186.0" y="670.0" type="curve"/>
    </contour>
    <contour>
      <point x="75.0" y="-297.0"/>
      <point x="78.0" y="-280.0"/>
      <point x="74.0" y="-301.0" type="curve"/>
      <point x="80.0" y="-302.0"/>
      <point x="88.0" y="-304.0"/>
      <point x="96.0" y="-304.0" type="curve"/>
      <point x="173.0" y="-304.0"/>
      <point x="211.0" y="-227.0"/>
      <point x="211.0" y="-142.0" type="curve"/>
      <point x="211.0" y="83.0"/>
      <point x="211.0" y="308.0"/>
      <point x="211.0" y="533.0" type="curve"/>
      <point x="187.0" y="533.0"/>
      <point x="211.0" y="533.0"/>
      <point x="187.0" y="533.0" type="curve"/>
      <point x="187.0" y="308.0"/>
      <point x="187.0" y="83.0"/>
      <point x="187.0" y="-142.0" type="curve"/>
      <point x="187.0" y="-215.0"/>
      <point x="162.0" y="-278.0"/>
      <point x="97.0" y="-278.0" type="curve"/>
      <point x="91.0" y="-278.0"/>
      <point x="83.0" y="-277.0"/>
      <point x="79.0" y="-276.0" type="curve"/>
    </contour>
  </outline>
</glyph>
<glyph name="k" format="1">
  <advance width="589"/>
  <unicode hex="006B"/>
  <outline>
    <contour>
      <point x="166.0" y="22.0"/>
      <point x="166.0" y="0.0"/>
      <point x="166.0" y="22.0" type="curve"/>
      <point x="34.0" y="22.0"/>
      <point x="166.0" y="22.0"/>
      <point x="34.0" y="22.0" type="curve"/>
      <point x="34.0" y="0.0"/>
      <point x="34.0" y="22.0"/>
      <point x="34.0" y="0.0" type="curve"/>
      <point x="78.0" y="0.0"/>
      <point x="122.0" y="0.0"/>
      <point x="166.0" y="0.0" type="curve"/>
    </contour>
    <contour>
      <point x="434.0" y="0.0"/>
      <point x="434.0" y="22.0"/>
      <point x="434.0" y="0.0" type="curve"/>
      <point x="478.0" y="0.0"/>
      <point x="522.0" y="0.0"/>
      <point x="566.0" y="0.0" type="curve"/>
      <point x="566.0" y="22.0"/>
      <point x="566.0" y="0.0"/>
      <point x="566.0" y="22.0" type="curve"/>
      <point x="434.0" y="22.0"/>
      <point x="566.0" y="22.0"/>
      <point x="434.0" y="22.0" type="curve"/>
    </contour>
    <contour>
      <point x="416.0" y="511.0"/>
      <point x="416.0" y="533.0"/>
      <point x="416.0" y="511.0" type="curve"/>
      <point x="539.0" y="511.0"/>
      <point x="416.0" y="511.0"/>
      <point x="539.0" y="511.0" type="curve"/>
      <point x="539.0" y="533.0"/>
      <point x="539.0" y="511.0"/>
      <point x="539.0" y="533.0" type="curve"/>
      <point x="498.0" y="533.0"/>
      <point x="456.0" y="533.0"/>
      <point x="416.0" y="533.0" type="curve"/>
    </contour>
    <contour>
      <point x="166.0" y="0.0"/>
      <point x="166.0" y="22.0"/>
      <point x="166.0" y="0.0" type="curve"/>
      <point x="207.0" y="0.0"/>
      <point x="166.0" y="0.0"/>
      <point x="289.0" y="0.0" type="curve"/>
      <point x="289.0" y="22.0"/>
      <point x="289.0" y="0.0"/>
      <point x="289.0" y="22.0" type="curve"/>
      <point x="166.0" y="22.0"/>
      <point x="289.0" y="22.0"/>
      <point x="166.0" y="22.0" type="curve"/>
    </contour>
    <contour>
      <point x="416.0" y="533.0"/>
      <point x="416.0" y="511.0"/>
      <point x="416.0" y="533.0" type="curve"/>
      <point x="374.0" y="533.0"/>
      <point x="332.0" y="533.0"/>
      <point x="290.0" y="533.0" type="curve"/>
      <point x="290.0" y="511.0"/>
      <point x="290.0" y="533.0"/>
      <point x="290.0" y="511.0" type="curve"/>
      <point x="416.0" y="511.0"/>
      <point x="290.0" y="511.0"/>
      <point x="416.0" y="511.0" type="curve"/>
    </contour>
    <contour>
      <point x="167.0" y="800.0"/>
      <point x="167.0" y="778.0"/>
      <point x="167.0" y="800.0" type="curve"/>
      <point x="123.0" y="800.0"/>
      <point x="79.0" y="800.0"/>
      <point x="35.0" y="800.0" type="curve"/>
      <point x="35.0" y="778.0"/>
      <point x="35.0" y="800.0"/>
      <point x="35.0" y="778.0" type="curve"/>
      <point x="167.0" y="778.0"/>
      <point x="35.0" y="778.0"/>
      <point x="167.0" y="778.0" type="curve"/>
    </contour>
    <contour>
      <point x="178.0" y="0.0"/>
      <point x="154.0" y="0.0"/>
      <point x="178.0" y="0.0" type="curve"/>
      <point x="178.0" y="0.0"/>
      <point x="178.0" y="800.0"/>
      <point x="178.0" y="800.0" type="curve"/>
      <point x="154.0" y="800.0"/>
      <point x="178.0" y="800.0"/>
      <point x="154.0" y="800.0" type="curve"/>
      <point x="154.0" y="533.0"/>
      <point x="154.0" y="267.0"/>
      <point x="154.0" y="0.0" type="curve"/>
    </contour>
    <contour>
      <point x="405.0" y="533.0"/>
      <point x="446.0" y="533.0"/>
      <point x="409.0" y="533.0" type="curve"/>
      <point x="327.0" y="447.0"/>
      <point x="245.0" y="361.0"/>
      <point x="164.0" y="275.0" type="curve"/>
      <point x="200.0" y="275.0"/>
      <point x="160.0" y="275.0"/>
      <point x="196.0" y="275.0" type="curve"/>
      <point x="278.0" y="361.0"/>
      <point x="360.0" y="447.0"/>
      <point x="442.0" y="533.0" type="curve"/>
    </contour>
    <contour>
      <point x="464.0" y="0.0"/>
      <point x="423.0" y="0.0"/>
      <point x="460.0" y="0.0" type="curve"/>
      <point x="372.0" y="92.0"/>
      <point x="284.0" y="183.0"/>
      <point x="196.0" y="275.0" type="curve"/>
      <point x="160.0" y="275.0"/>
      <point x="200.0" y="275.0"/>
      <point x="164.0" y="275.0" type="curve"/>
      <point x="252.0" y="183.0"/>
      <point x="340.0" y="92.0"/>
      <point x="427.0" y="0.0" type="curve"/>
    </contour>
    <contour>
      <point x="317.0" y="15.0" type="move" name="bottom"/>
    </contour>
  </outline>
</glyph>
<glyph name="l" format="1">
  <advance width="335"/>
  <unicode hex="006C"/>
  <outline>
    <contour>
      <point x="167.0" y="22.0"/>
      <point x="167.0" y="0.0"/>
      <point x="167.0" y="22.0" type="curve"/>
      <point x="35.0" y="22.0"/>
      <point x="167.0" y="22.0"/>
      <point x="35.0" y="22.0" type="curve"/>
      <point x="35.0" y="0.0"/>
      <point x="35.0" y="22.0"/>
      <point x="35.0" y="0.0" type="curve"/>
      <point x="79.0" y="0.0"/>
      <point x="123.0" y="0.0"/>
      <point x="167.0" y="0.0" type="curve"/>
    </contour>
    <contour>
      <point x="168.0" y="800.0"/>
      <point x="168.0" y="778.0"/>
      <point x="168.0" y="800.0" type="curve"/>
      <point x="124.0" y="800.0"/>
      <point x="80.0" y="800.0"/>
      <point x="36.0" y="800.0" type="curve"/>
      <point x="36.0" y="778.0"/>
      <point x="36.0" y="800.0"/>
      <point x="36.0" y="778.0" type="curve"/>
      <point x="168.0" y="778.0"/>
      <point x="36.0" y="778.0"/>
      <point x="168.0" y="778.0" type="curve"/>
    </contour>
    <contour>
      <point x="167.0" y="0.0"/>
      <point x="167.0" y="22.0"/>
      <point x="167.0" y="0.0" type="curve"/>
      <point x="211.0" y="0.0"/>
      <point x="255.0" y="0.0"/>
      <point x="299.0" y="0.0" type="curve"/>
      <point x="299.0" y="22.0"/>
      <point x="299.0" y="0.0"/>
      <point x="299.0" y="22.0" type="curve"/>
      <point x="167.0" y="22.0"/>
      <point x="299.0" y="22.0"/>
      <point x="167.0" y="22.0" type="curve"/>
    </contour>
    <contour>
      <point x="178.0" y="0.0"/>
      <point x="154.0" y="0.0"/>
      <point x="178.0" y="0.0" type="curve"/>
      <point x="178.0" y="267.0"/>
      <point x="178.0" y="533.0"/>
      <point x="178.0" y="800.0" type="curve"/>
      <point x="154.0" y="800.0"/>
      <point x="178.0" y="800.0"/>
      <point x="154.0" y="800.0" type="curve"/>
      <point x="154.0" y="533.0"/>
      <point x="154.0" y="267.0"/>
      <point x="154.0" y="0.0" type="curve"/>
    </contour>
    <contour>
      <point x="144" y="888" type="move" name="top"/>
    </contour>
    <contour>
      <point x="174" y="15" type="move" name="bottom"/>
    </contour>
  </outline>
</glyph>
<glyph name="m" format="1">
  <advance width="780"/>
  <unicode hex="006D"/>
  <outline>
    <contour>
      <point x="385.0" y="0.0"/>
      <point x="385.0" y="22.0"/>
      <point x="385.0" y="0.0" type="curve"/>
      <point x="503.0" y="0.0"/>
      <point x="375.0" y="0.0"/>
      <point x="493.0" y="0.0" type="curve"/>
      <point x="493.0" y="22.0"/>
      <point x="493.0" y="0.0"/>
      <point x="493.0" y="22.0" type="curve"/>
      <point x="375.0" y="22.0"/>
      <point x="503.0" y="22.0"/>
      <point x="385.0" y="22.0" type="curve"/>
    </contour>
    <contour>
      <point x="385.0" y="22.0"/>
      <point x="385.0" y="0.0"/>
      <point x="385.0" y="22.0" type="curve"/>
      <point x="267.0" y="22.0"/>
      <point x="395.0" y="22.0"/>
      <point x="277.0" y="22.0" type="curve"/>
      <point x="277.0" y="0.0"/>
      <point x="277.0" y="22.0"/>
      <point x="277.0" y="0.0" type="curve"/>
      <point x="395.0" y="0.0"/>
      <point x="267.0" y="0.0"/>
      <point x="385.0" y="0.0" type="curve"/>
    </contour>
    <contour>
      <point x="618.0" y="0.0"/>
      <point x="618.0" y="22.0"/>
      <point x="618.0" y="0.0" type="curve"/>
      <point x="662.0" y="0.0"/>
      <point x="706.0" y="0.0"/>
      <point x="750.0" y="0.0" type="curve"/>
      <point x="750.0" y="22.0"/>
      <point x="750.0" y="0.0"/>
      <point x="750.0" y="22.0" type="curve"/>
      <point x="618.0" y="22.0"/>
      <point x="750.0" y="22.0"/>
      <point x="618.0" y="22.0" type="curve"/>
    </contour>
    <contour>
      <point x="152.0" y="22.0"/>
      <point x="152.0" y="0.0"/>
      <point x="152.0" y="22.0" type="curve"/>
      <point x="20.0" y="22.0"/>
      <point x="152.0" y="22.0"/>
      <point x="20.0" y="22.0" type="curve"/>
      <point x="20.0" y="0.0"/>
      <point x="20.0" y="22.0"/>
      <point x="20.0" y="0.0" type="curve"/>
      <point x="64.0" y="0.0"/>
      <point x="108.0" y="0.0"/>
      <point x="152.0" y="0.0" type="curve"/>
    </contour>
    <contour>
      <point x="152.0" y="0.0"/>
      <point x="152.0" y="22.0"/>
      <point x="152.0" y="0.0" type="curve"/>
      <point x="192.0" y="0.0"/>
      <point x="142.0" y="0.0"/>
      <point x="260.0" y="0.0" type="curve"/>
      <point x="260.0" y="22.0"/>
      <point x="260.0" y="0.0"/>
      <point x="260.0" y="22.0" type="curve"/>
      <point x="142.0" y="22.0"/>
      <point x="270.0" y="22.0"/>
      <point x="152.0" y="22.0" type="curve"/>
    </contour>
    <contour>
      <point x="152.0" y="533.0"/>
      <point x="152.0" y="511.0"/>
      <point x="152.0" y="533.0" type="curve"/>
      <point x="108.0" y="533.0"/>
      <point x="64.0" y="533.0"/>
      <point x="20.0" y="533.0" type="curve"/>
      <point x="20.0" y="511.0"/>
      <point x="20.0" y="533.0"/>
      <point x="20.0" y="511.0" type="curve"/>
      <point x="152.0" y="511.0"/>
      <point x="20.0" y="511.0"/>
      <point x="152.0" y="511.0" type="curve"/>
    </contour>
    <contour>
      <point x="618.0" y="22.0"/>
      <point x="618.0" y="0.0"/>
      <point x="618.0" y="22.0" type="curve"/>
      <point x="500.0" y="22.0"/>
      <point x="628.0" y="22.0"/>
      <point x="510.0" y="22.0" type="curve"/>
      <point x="510.0" y="0.0"/>
      <point x="510.0" y="22.0"/>
      <point x="510.0" y="0.0" type="curve"/>
      <point x="549.0" y="0.0"/>
      <point x="578.0" y="0.0"/>
      <point x="618.0" y="0.0" type="curve"/>
    </contour>
    <contour>
      <point x="391.0" y="354.0"/>
      <point x="379.0" y="365.0"/>
      <point x="391.0" y="354.0" type="curve"/>
      <point x="413.0" y="434.0"/>
      <point x="448.0" y="517.0"/>
      <point x="517.0" y="517.0" type="curve"/>
      <point x="604.0" y="517.0"/>
      <point x="605.0" y="443.0"/>
      <point x="605.0" y="341.0" type="curve"/>
      <point x="605.0" y="228.0"/>
      <point x="605.0" y="114.0"/>
      <point x="605.0" y="0.0" type="curve"/>
      <point x="629.0" y="0.0"/>
      <point x="605.0" y="0.0"/>
      <point x="629.0" y="0.0" type="curve"/>
      <point x="629.0" y="115.0"/>
      <point x="629.0" y="229.0"/>
      <point x="629.0" y="344.0" type="curve"/>
      <point x="629.0" y="458.0"/>
      <point x="620.0" y="538.0"/>
      <point x="521.0" y="538.0" type="curve"/>
      <point x="436.0" y="538.0"/>
      <point x="396.0" y="455.0"/>
      <point x="379.0" y="365.0" type="curve"/>
    </contour>
    <contour>
      <point x="159.0" y="354.0"/>
      <point x="147.0" y="365.0"/>
      <point x="159.0" y="354.0" type="curve"/>
      <point x="181.0" y="435.0"/>
      <point x="212.0" y="518.0"/>
      <point x="284.0" y="518.0" type="curve"/>
      <point x="371.0" y="518.0"/>
      <point x="373.0" y="443.0"/>
      <point x="373.0" y="341.0" type="curve"/>
      <point x="373.0" y="228.0"/>
      <point x="373.0" y="114.0"/>
      <point x="373.0" y="0.0" type="curve"/>
      <point x="397.0" y="0.0"/>
      <point x="373.0" y="0.0"/>
      <point x="397.0" y="0.0" type="curve"/>
      <point x="397.0" y="115.0"/>
      <point x="397.0" y="229.0"/>
      <point x="397.0" y="344.0" type="curve"/>
      <point x="397.0" y="458.0"/>
      <point x="388.0" y="539.0"/>
      <point x="289.0" y="539.0" type="curve"/>
      <point x="203.0" y="539.0"/>
      <point x="164.0" y="456.0"/>
      <point x="147.0" y="365.0" type="curve"/>
    </contour>
    <contour>
      <point x="164.0" y="0.0"/>
      <point x="140.0" y="0.0"/>
      <point x="164.0" y="0.0" type="curve"/>
      <point x="164.0" y="178.0"/>
      <point x="164.0" y="355.0"/>
      <point x="164.0" y="533.0" type="curve"/>
      <point x="140.0" y="533.0"/>
      <point x="164.0" y="533.0"/>
      <point x="140.0" y="533.0" type="curve"/>
      <point x="140.0" y="355.0"/>
      <point x="140.0" y="178.0"/>
      <point x="140.0" y="0.0" type="curve"/>
    </contour>
  </outline>
</glyph>
<glyph name="n" format="1">
  <advance width="578"/>
  <unicode hex="006E"/>
  <outline>
    <contour>
      <point x="169.0" y="354.0"/>
      <point x="157.0" y="363.0"/>
      <point x="169.0" y="352.0" type="curve"/>
      <point x="188.0" y="429.0"/>
      <point x="239.0" y="516.0"/>
      <point x="309.0" y="516.0" type="curve"/>
      <point x="391.0" y="516.0"/>
      <point x="411.0" y="438.0"/>
      <point x="411.0" y="341.0" type="curve"/>
      <point x="411.0" y="228.0"/>
      <point x="411.0" y="114.0"/>
      <point x="411.0" y="0.0" type="curve"/>
      <point x="435.0" y="0.0"/>
      <point x="411.0" y="0.0"/>
      <point x="435.0" y="0.0" type="curve"/>
      <point x="435.0" y="115.0"/>
      <point x="435.0" y="229.0"/>
      <point x="435.0" y="344.0" type="curve"/>
      <point x="435.0" y="453.0"/>
      <point x="410.0" y="538.0"/>
      <point x="313.0" y="538.0" type="curve"/>
      <point x="229.0" y="538.0"/>
      <point x="174.0" y="452.0"/>
      <point x="157.0" y="365.0" type="curve"/>
    </contour>
    <contour>
      <point x="422.0" y="0.0"/>
      <point x="422.0" y="22.0"/>
      <point x="422.0" y="0.0" type="curve"/>
      <point x="466.0" y="0.0"/>
      <point x="510.0" y="0.0"/>
      <point x="554.0" y="0.0" type="curve"/>
      <point x="554.0" y="22.0"/>
      <point x="554.0" y="0.0"/>
      <point x="554.0" y="22.0" type="curve"/>
      <point x="422.0" y="22.0"/>
      <point x="554.0" y="22.0"/>
      <point x="422.0" y="22.0" type="curve"/>
    </contour>
    <contour>
      <point x="163.0" y="22.0"/>
      <point x="163.0" y="0.0"/>
      <point x="163.0" y="22.0" type="curve"/>
      <point x="31.0" y="22.0"/>
      <point x="163.0" y="22.0"/>
      <point x="31.0" y="22.0" type="curve"/>
      <point x="31.0" y="0.0"/>
      <point x="31.0" y="22.0"/>
      <point x="31.0" y="0.0" type="curve"/>
      <point x="75.0" y="0.0"/>
      <point x="119.0" y="0.0"/>
      <point x="163.0" y="0.0" type="curve"/>
    </contour>
    <contour>
      <point x="163.0" y="0.0"/>
      <point x="163.0" y="22.0"/>
      <point x="163.0" y="0.0" type="curve"/>
      <point x="204.0" y="0.0"/>
      <point x="156.0" y="0.0"/>
      <point x="281.0" y="0.0" type="curve"/>
      <point x="281.0" y="22.0"/>
      <point x="281.0" y="0.0"/>
      <point x="281.0" y="22.0" type="curve"/>
      <point x="156.0" y="22.0"/>
      <point x="288.0" y="22.0"/>
      <point x="163.0" y="22.0" type="curve"/>
    </contour>
    <contour>
      <point x="175.0" y="0.0"/>
      <point x="151.0" y="0.0"/>
      <point x="175.0" y="0.0" type="curve"/>
      <point x="175.0" y="178.0"/>
      <point x="175.0" y="355.0"/>
      <point x="175.0" y="533.0" type="curve"/>
      <point x="151.0" y="533.0"/>
      <point x="175.0" y="533.0"/>
      <point x="151.0" y="533.0" type="curve"/>
      <point x="151.0" y="355.0"/>
      <point x="151.0" y="178.0"/>
      <point x="151.0" y="0.0" type="curve"/>
    </contour>
    <contour>
      <point x="163.0" y="533.0"/>
      <point x="163.0" y="511.0"/>
      <point x="163.0" y="533.0" type="curve"/>
      <point x="119.0" y="533.0"/>
      <point x="75.0" y="533.0"/>
      <point x="31.0" y="533.0" type="curve"/>
      <point x="31.0" y="511.0"/>
      <point x="31.0" y="533.0"/>
      <point x="31.0" y="511.0" type="curve"/>
      <point x="163.0" y="511.0"/>
      <point x="31.0" y="511.0"/>
      <point x="163.0" y="511.0" type="curve"/>
    </contour>
    <contour>
      <point x="422.0" y="22.0"/>
      <point x="422.0" y="0.0"/>
      <point x="422.0" y="22.0" type="curve"/>
      <point x="297.0" y="22.0"/>
      <point x="429.0" y="22.0"/>
      <point x="304.0" y="22.0" type="curve"/>
      <point x="304.0" y="0.0"/>
      <point x="304.0" y="22.0"/>
      <point x="304.0" y="0.0" type="curve"/>
      <point x="346.0" y="0.0"/>
      <point x="381.0" y="0.0"/>
      <point x="422.0" y="0.0" type="curve"/>
    </contour>
    <contour>
      <point x="296" y="669" type="move" name="top"/>
    </contour>
    <contour>
      <point x="317" y="15" type="move" name="bottom"/>
    </contour>
  </outline>
</glyph>
<glyph name="o" format="1">
  <advance width="417"/>
  <unicode hex="006F"/>
  <outline>
    <contour>
      <point x="81.0" y="268.0" type="curve"/>
      <point x="81.0" y="406.0"/>
      <point x="107.0" y="517.0"/>
      <point x="218.0" y="517.0" type="curve"/>
      <point x="334.0" y="517.0"/>
      <point x="359.0" y="404.0"/>
      <point x="359.0" y="266.0" type="curve"/>
      <point x="359.0" y="129.0"/>
      <point x="333.0" y="17.0"/>
      <point x="221.0" y="17.0" type="curve"/>
      <point x="101.0" y="17.0"/>
      <point x="81.0" y="131.440613027"/>
      <point x="81.0" y="268.0" type="curve"/>
      <point x="57.0" y="268.0"/>
      <point x="81.0" y="268.0"/>
      <point x="57.0" y="268.0" type="curve"/>
      <point x="57.0" y="117.0"/>
      <point x="88.0" y="-5.0"/>
      <point x="220.0" y="-5.0" type="curve"/>
      <point x="351.0" y="-5.0"/>
      <point x="383.0" y="115.0"/>
      <point x="383.0" y="266.0" type="curve"/>
      <point x="383.0" y="417.0"/>
      <point x="351.0" y="538.0"/>
      <point x="219.0" y="538.0" type="curve"/>
      <point x="89.0" y="538.0"/>
      <point x="57.0" y="417.0"/>
      <point x="57.0" y="268.0" type="curve"/>
      <point x="81.0" y="268.0"/>
      <point x="57.0" y="268.0"/>
    </contour>
    <contour>
      <point x="222.0" y="669.0" type="move" name="top"/>
    </contour>
  </outline>
</glyph>
<glyph name="r" format="1">
  <advance width="377"/>
  <unicode hex="0072"/>
  <outline>
    <contour>
      <point x="166.0" y="0.0"/>
      <point x="166.0" y="22.0"/>
      <point x="166.0" y="0.0" type="curve"/>
      <point x="208.0" y="0.0"/>
      <point x="250.0" y="0.0"/>
      <point x="291.0" y="0.0" type="curve"/>
      <point x="291.0" y="22.0"/>
      <point x="291.0" y="0.0"/>
      <point x="291.0" y="22.0" type="curve"/>
      <point x="166.0" y="22.0"/>
      <point x="291.0" y="22.0"/>
      <point x="166.0" y="22.0" type="curve"/>
    </contour>
    <contour>
      <point x="166.0" y="22.0"/>
      <point x="166.0" y="0.0"/>
      <point x="166.0" y="22.0" type="curve"/>
      <point x="34.0" y="22.0"/>
      <point x="166.0" y="22.0"/>
      <point x="34.0" y="22.0" type="curve"/>
      <point x="34.0" y="0.0"/>
      <point x="34.0" y="22.0"/>
      <point x="34.0" y="0.0" type="curve"/>
      <point x="78.0" y="0.0"/>
      <point x="122.0" y="0.0"/>
      <point x="166.0" y="0.0" type="curve"/>
    </contour>
    <contour>
      <point x="166.0" y="533.0"/>
      <point x="166.0" y="511.0"/>
      <point x="166.0" y="533.0" type="curve"/>
      <point x="122.0" y="533.0"/>
      <point x="78.0" y="533.0"/>
      <point x="34.0" y="533.0" type="curve"/>
      <point x="34.0" y="511.0"/>
      <point x="34.0" y="533.0"/>
      <point x="34.0" y="511.0" type="curve"/>
      <point x="166.0" y="511.0"/>
      <point x="34.0" y="511.0"/>
      <point x="166.0" y="511.0" type="curve"/>
    </contour>
    <contour>
      <point x="178.0" y="0.0"/>
      <point x="154.0" y="0.0"/>
      <point x="178.0" y="0.0" type="curve"/>
      <point x="178.0" y="178.0"/>
      <point x="178.0" y="355.0"/>
      <point x="178.0" y="533.0" type="curve"/>
      <point x="154.0" y="533.0"/>
      <point x="178.0" y="533.0"/>
      <point x="154.0" y="533.0" type="curve"/>
      <point x="154.0" y="355.0"/>
      <point x="154.0" y="178.0"/>
      <point x="154.0" y="0.0" type="curve"/>
    </contour>
    <contour>
      <point x="172.0" y="402.0"/>
      <point x="165.0" y="403.0"/>
      <point x="172.0" y="394.0" type="curve"/>
      <point x="201.0" y="467.0"/>
      <point x="262.0" y="516.0"/>
      <point x="341.0" y="516.0" type="curve"/>
      <point x="341.0" y="543.0"/>
      <point x="341.0" y="511.0"/>
      <point x="341.0" y="538.0" type="curve"/>
      <point x="255.0" y="538.0"/>
      <point x="193.0" y="492.0"/>
      <point x="165.0" y="411.0" type="curve"/>
    </contour>
    <contour>
      <point x="165.0" y="669.0" type="move" name="top"/>
    </contour>
    <contour>
      <point x="177.0" y="15.0" type="move" name="bottom"/>
    </contour>
  </outline>
</glyph>
<glyph name="s" format="1">
  <advance width="317"/>
  <unicode hex="0073"/>
  <outline>
    <contour>
      <point x="29.0" y="49.0"/>
      <point x="41.0" y="68.0"/>
      <point x="29.0" y="49.0" type="curve"/>
      <point x="71.0" y="17.0"/>
      <point x="116.0" y="-5.0"/>
      <point x="167.0" y="-5.0" type="curve"/>
      <point x="247.0" y="-5.0"/>
      <point x="286.0" y="52.0"/>
      <point x="286.0" y="131.0" type="curve"/>
      <point x="285.0" y="214.0"/>
      <point x="237.816524281" y="252.61970102"/>
      <point x="164.0" y="287.0" type="curve"/>
      <point x="105.452919764" y="313.245242864"/>
      <point x="75.0" y="353.0"/>
      <point x="75.0" y="421.0" type="curve"/>
      <point x="75.0" y="474.0"/>
      <point x="102.0" y="516.0"/>
      <point x="155.0" y="516.0" type="curve"/>
      <point x="196.0" y="516.0"/>
      <point x="227.0" y="501.0"/>
      <point x="257.0" y="473.0" type="curve"/>
      <point x="261.0" y="480.0"/>
      <point x="264.0" y="485.0"/>
      <point x="268.0" y="492.0" type="curve"/>
      <point x="235.0" y="522.0"/>
      <point x="201.0" y="538.0"/>
      <point x="156.0" y="538.0" type="curve"/>
      <point x="90.0" y="538.0"/>
      <point x="53.0" y="487.0"/>
      <point x="53.0" y="421.0" type="curve"/>
      <point x="53.0" y="344.0"/>
      <point x="88.4358448577" y="297.257188374"/>
      <point x="157.0" y="266.0" type="curve"/>
      <point x="219.817964789" y="236.617403566"/>
      <point x="263.0" y="204.0"/>
      <point x="262.0" y="131.0" type="curve"/>
      <point x="262.0" y="67.0"/>
      <point x="230.0" y="17.0"/>
      <point x="171.0" y="17.0" type="curve"/>
      <point x="122.0" y="17.0"/>
      <point x="81.0" y="38.0"/>
      <point x="41.0" y="68.0" type="curve"/>
    </contour>
    <contour>
      <point x="260.0" y="492.0"/>
      <point x="254.0" y="492.0"/>
      <point x="246.0" y="492.0" type="curve"/>
      <point x="246.0" y="372.0"/>
      <point x="246.0" y="492.0"/>
      <point x="246.0" y="372.0" type="curve"/>
      <point x="268.0" y="372.0"/>
      <point x="246.0" y="372.0"/>
      <point x="268.0" y="372.0" type="curve"/>
      <point x="268.0" y="492.0"/>
      <point x="268.0" y="372.0"/>
      <point x="268.0" y="492.0" type="curve"/>
    </contour>
    <contour>
      <point x="51.0" y="49.0"/>
      <point x="29.0" y="49.0"/>
      <point x="51.0" y="49.0" type="curve"/>
      <point x="51.0" y="169.0"/>
      <point x="51.0" y="49.0"/>
      <point x="51.0" y="169.0" type="curve"/>
      <point x="29.0" y="169.0"/>
      <point x="51.0" y="169.0"/>
      <point x="29.0" y="169.0" type="curve"/>
      <point x="29.0" y="49.0"/>
      <point x="29.0" y="169.0"/>
      <point x="29.0" y="49.0" type="curve"/>
    </contour>
    <contour>
      <point x="150.0" y="669.0" type="move" name="top"/>
    </contour>
    <contour>
      <point x="149.0" y="5.0" type="move" name="bottom"/>
    </contour>
  </outline>
</glyph>
<glyph name="t" format="1">
  <advance width="334"/>
  <unicode hex="0074"/>
  <outline>
    <contour>
      <point x="30.1" y="476.035873418"/>
      <point x="30.1" y="497.595873418"/>
      <point x="30.1" y="476.035873418" type="curve"/>
      <point x="30.1" y="476.035873418"/>
      <point x="303.8" y="476.035873418"/>
      <point x="303.8" y="476.035873418" type="curve"/>
      <point x="303.8" y="497.595873418"/>
      <point x="303.8" y="476.035873418"/>
      <point x="303.8" y="497.595873418" type="curve"/>
      <point x="303.8" y="497.595873418"/>
      <point x="30.1" y="497.595873418"/>
      <point x="30.1" y="497.595873418" type="curve"/>
    </contour>
    <contour>
      <point x="285.0" y="46.0"/>
      <point x="297.0" y="24.0"/>
      <point x="285.0" y="46.0" type="curve"/>
      <point x="264.0" y="30.0"/>
      <point x="245.918429003" y="19.0"/>
      <point x="219.0" y="19.0" type="curve"/>
      <point x="157.0" y="19.0"/>
      <point x="150.0" y="71.9577424936"/>
      <point x="150.0" y="144.541873418" type="curve"/>
      <point x="150.0" y="144.541873418"/>
      <point x="150.0" y="651.007873418"/>
      <point x="150.0" y="651.007873418" type="curve"/>
      <point x="125.8" y="636.993873418"/>
      <point x="150.0" y="651.007873418"/>
      <point x="125.8" y="636.993873418" type="curve"/>
      <point x="125.8" y="636.993873418"/>
      <point x="125.8" y="143.463873418"/>
      <point x="125.8" y="143.463873418" type="curve"/>
      <point x="125.8" y="56.4291230195"/>
      <point x="142.981804526" y="-5.01012658228"/>
      <point x="216.6" y="-5.01012658228" type="curve"/>
      <point x="248.798877191" y="-5.01012658228"/>
      <point x="271.0" y="5.0"/>
      <point x="297.0" y="24.0" type="curve"/>
    </contour>
    <contour>
      <point x="205" y="7" type="move" name="bottom"/>
    </contour>
  </outline>
</glyph>
<glyph name="u" format="1">
  <advance width="554"/>
  <unicode hex="0075"/>
  <outline>
    <contour>
      <point x="412.0" y="533.0"/>
      <point x="412.0" y="511.0"/>
      <point x="412.0" y="533.0" type="curve"/>
      <point x="368.0" y="533.0"/>
      <point x="324.0" y="533.0"/>
      <point x="280.0" y="533.0" type="curve"/>
      <point x="280.0" y="511.0"/>
      <point x="280.0" y="533.0"/>
      <point x="280.0" y="511.0" type="curve"/>
      <point x="412.0" y="511.0"/>
      <point x="280.0" y="511.0"/>
      <point x="412.0" y="511.0" type="curve"/>
    </contour>
    <contour>
      <point x="156.0" y="533.0"/>
      <point x="156.0" y="511.0"/>
      <point x="156.0" y="533.0" type="curve"/>
      <point x="112.0" y="533.0"/>
      <point x="68.0" y="533.0"/>
      <point x="24.0" y="533.0" type="curve"/>
      <point x="24.0" y="511.0"/>
      <point x="24.0" y="533.0"/>
      <point x="24.0" y="511.0" type="curve"/>
      <point x="156.0" y="511.0"/>
      <point x="24.0" y="511.0"/>
      <point x="156.0" y="511.0" type="curve"/>
    </contour>
    <contour>
      <point x="412.0" y="0.0"/>
      <point x="412.0" y="22.0"/>
      <point x="412.0" y="0.0" type="curve"/>
      <point x="454.0" y="0.0"/>
      <point x="495.0" y="0.0"/>
      <point x="537.0" y="0.0" type="curve"/>
      <point x="537.0" y="22.0"/>
      <point x="537.0" y="0.0"/>
      <point x="537.0" y="22.0" type="curve"/>
      <point x="412.0" y="22.0"/>
      <point x="537.0" y="22.0"/>
      <point x="412.0" y="22.0" type="curve"/>
    </contour>
    <contour>
      <point x="424.0" y="0.0"/>
      <point x="400.0" y="0.0"/>
      <point x="424.0" y="0.0" type="curve"/>
      <point x="424.0" y="178.0"/>
      <point x="424.0" y="355.0"/>
      <point x="424.0" y="533.0" type="curve"/>
      <point x="400.0" y="533.0"/>
      <point x="424.0" y="533.0"/>
      <point x="400.0" y="533.0" type="curve"/>
      <point x="400.0" y="355.0"/>
      <point x="400.0" y="178.0"/>
      <point x="400.0" y="0.0" type="curve"/>
    </contour>
    <contour>
      <point x="403.234981609" y="161.51001226"/>
      <point x="419.0" y="151.0"/>
      <point x="403.0" y="161.0" type="curve"/>
      <point x="383.0" y="100.0"/>
      <point x="336.054263566" y="17.0"/>
      <point x="276.0" y="17.0" type="curve"/>
      <point x="191.0" y="17.0"/>
      <point x="168.0" y="91.0"/>
      <point x="168.0" y="187.0" type="curve"/>
      <point x="168.0" y="302.0"/>
      <point x="168.0" y="418.0"/>
      <point x="168.0" y="533.0" type="curve"/>
      <point x="144.0" y="533.0"/>
      <point x="168.0" y="533.0"/>
      <point x="144.0" y="533.0" type="curve"/>
      <point x="144.0" y="417.0"/>
      <point x="144.0" y="301.0"/>
      <point x="144.0" y="185.0" type="curve"/>
      <point x="144.0" y="76.0"/>
      <point x="175.0" y="-5.0"/>
      <point x="273.0" y="-5.0" type="curve"/>
      <point x="349.0" y="-5.0"/>
      <point x="396.0" y="80.0"/>
      <point x="419.0" y="151.0" type="curve"/>
    </contour>
    <contour>
      <point x="274.0" y="669.0" type="move" name="top"/>
    </contour>
    <contour>
      <point x="425.0" y="11.0" type="move" name="bottom"/>
    </contour>
  </outline>
</glyph>
<glyph name="v" format="1">
  <advance width="588"/>
  <unicode hex="0076"/>
  <outline>
    <contour>
      <point x="148.0" y="533.0"/>
      <point x="148.0" y="511.0"/>
      <point x="148.0" y="533.0" type="curve"/>
      <point x="104.0" y="533.0"/>
      <point x="60.0" y="533.0"/>
      <point x="16.0" y="533.0" type="curve"/>
      <point x="16.0" y="511.0"/>
      <point x="16.0" y="533.0"/>
      <point x="16.0" y="511.0" type="curve"/>
      <point x="148.0" y="511.0"/>
      <point x="16.0" y="511.0"/>
      <point x="148.0" y="511.0" type="curve"/>
    </contour>
    <contour>
      <point x="148.0" y="511.0"/>
      <point x="148.0" y="533.0"/>
      <point x="148.0" y="511.0" type="curve"/>
      <point x="281.0" y="511.0"/>
      <point x="148.0" y="511.0"/>
      <point x="281.0" y="511.0" type="curve"/>
      <point x="281.0" y="533.0"/>
      <point x="281.0" y="511.0"/>
      <point x="281.0" y="533.0" type="curve"/>
      <point x="236.0" y="533.0"/>
      <point x="192.0" y="533.0"/>
      <point x="148.0" y="533.0" type="curve"/>
    </contour>
    <contour>
      <point x="435.0" y="533.0"/>
      <point x="435.0" y="511.0"/>
      <point x="435.0" y="533.0" type="curve"/>
      <point x="391.0" y="533.0"/>
      <point x="347.0" y="533.0"/>
      <point x="303.0" y="533.0" type="curve"/>
      <point x="303.0" y="511.0"/>
      <point x="303.0" y="533.0"/>
      <point x="303.0" y="511.0" type="curve"/>
      <point x="435.0" y="511.0"/>
      <point x="303.0" y="511.0"/>
      <point x="435.0" y="511.0" type="curve"/>
    </contour>
    <contour>
      <point x="435.0" y="511.0"/>
      <point x="435.0" y="533.0"/>
      <point x="435.0" y="511.0" type="curve"/>
      <point x="567.0" y="511.0"/>
      <point x="435.0" y="511.0"/>
      <point x="567.0" y="511.0" type="curve"/>
      <point x="567.0" y="533.0"/>
      <point x="567.0" y="511.0"/>
      <point x="567.0" y="533.0" type="curve"/>
      <point x="523.0" y="533.0"/>
      <point x="479.0" y="533.0"/>
      <point x="435.0" y="533.0" type="curve"/>
    </contour>
    <contour>
      <point x="128.0" y="533.0"/>
      <point x="155.0" y="533.0"/>
      <point x="128.0" y="533.0" type="curve"/>
      <point x="177.0" y="355.0"/>
      <point x="226.0" y="178.0"/>
      <point x="274.0" y="0.0" type="curve"/>
      <point x="298.0" y="0.0"/>
      <point x="274.0" y="0.0"/>
      <point x="298.0" y="0.0" type="curve"/>
      <point x="250.0" y="178.0"/>
      <point x="202.0" y="355.0"/>
      <point x="155.0" y="533.0" type="curve"/>
    </contour>
    <contour>
      <point x="429.0" y="533.0"/>
      <point x="455.0" y="533.0"/>
      <point x="429.0" y="533.0" type="curve"/>
      <point x="429.0" y="533.0"/>
      <point x="277.0" y="0.0"/>
      <point x="277.0" y="0.0" type="curve"/>
      <point x="302.0" y="0.0"/>
      <point x="277.0" y="0.0"/>
      <point x="302.0" y="0.0" type="curve"/>
      <point x="353.0" y="178.0"/>
      <point x="404.0" y="355.0"/>
      <point x="455.0" y="533.0" type="curve"/>
    </contour>
  </outline>
</glyph>
<glyph name="w" format="1">
  <advance width="833"/>
  <unicode hex="0077"/>
  <outline>
    <contour>
      <point x="668.0" y="511.0"/>
      <point x="668.0" y="533.0"/>
      <point x="668.0" y="511.0" type="curve"/>
      <point x="800.0" y="511.0"/>
      <point x="668.0" y="511.0"/>
      <point x="800.0" y="511.0" type="curve"/>
      <point x="800.0" y="533.0"/>
      <point x="800.0" y="511.0"/>
      <point x="800.0" y="533.0" type="curve"/>
      <point x="756.0" y="533.0"/>
      <point x="712.0" y="533.0"/>
      <point x="668.0" y="533.0" type="curve"/>
    </contour>
    <contour>
      <point x="668.0" y="533.0"/>
      <point x="668.0" y="511.0"/>
      <point x="668.0" y="533.0" type="curve"/>
      <point x="624.0" y="533.0"/>
      <point x="600.0" y="533.0"/>
      <point x="556.0" y="533.0" type="curve"/>
      <point x="556.0" y="511.0"/>
      <point x="556.0" y="533.0"/>
      <point x="556.0" y="511.0" type="curve"/>
      <point x="688.0" y="511.0"/>
      <point x="536.0" y="511.0"/>
      <point x="668.0" y="511.0" type="curve"/>
    </contour>
    <contour>
      <point x="154.0" y="533.0"/>
      <point x="154.0" y="511.0"/>
      <point x="154.0" y="533.0" type="curve"/>
      <point x="110.0" y="533.0"/>
      <point x="66.0" y="533.0"/>
      <point x="22.0" y="533.0" type="curve"/>
      <point x="22.0" y="511.0"/>
      <point x="22.0" y="533.0"/>
      <point x="22.0" y="511.0" type="curve"/>
      <point x="154.0" y="511.0"/>
      <point x="22.0" y="511.0"/>
      <point x="154.0" y="511.0" type="curve"/>
    </contour>
    <contour>
      <point x="154.0" y="511.0"/>
      <point x="154.0" y="533.0"/>
      <point x="154.0" y="511.0" type="curve"/>
      <point x="286.0" y="511.0"/>
      <point x="144.0" y="511.0"/>
      <point x="276.0" y="511.0" type="curve"/>
      <point x="276.0" y="533.0"/>
      <point x="276.0" y="511.0"/>
      <point x="276.0" y="533.0" type="curve"/>
      <point x="232.0" y="533.0"/>
      <point x="198.0" y="533.0"/>
      <point x="154.0" y="533.0" type="curve"/>
    </contour>
    <contour>
      <point x="284.0" y="0.0"/>
      <point x="261.0" y="0.0"/>
      <point x="284.0" y="0.0" type="curve"/>
      <point x="332.0" y="178.0"/>
      <point x="379.0" y="355.0"/>
      <point x="427.0" y="533.0" type="curve"/>
      <point x="400.0" y="533.0"/>
      <point x="427.0" y="533.0"/>
      <point x="400.0" y="533.0" type="curve"/>
      <point x="354.0" y="355.0"/>
      <point x="307.0" y="178.0"/>
      <point x="261.0" y="0.0" type="curve"/>
    </contour>
    <contour>
      <point x="664.0" y="533.0"/>
      <point x="691.0" y="533.0"/>
      <point x="664.0" y="533.0" type="curve"/>
      <point x="621.0" y="355.0"/>
      <point x="577.0" y="178.0"/>
      <point x="534.0" y="0.0" type="curve"/>
      <point x="557.0" y="0.0"/>
      <point x="534.0" y="0.0"/>
      <point x="557.0" y="0.0" type="curve"/>
      <point x="602.0" y="178.0"/>
      <point x="646.0" y="355.0"/>
      <point x="691.0" y="533.0" type="curve"/>
    </contour>
    <contour>
      <point x="405.0" y="533.0"/>
      <point x="430.0" y="533.0"/>
      <point x="405.0" y="533.0" type="curve"/>
      <point x="448.0" y="355.0"/>
      <point x="490.0" y="178.0"/>
      <point x="533.0" y="0.0" type="curve"/>
      <point x="556.0" y="0.0"/>
      <point x="533.0" y="0.0"/>
      <point x="556.0" y="0.0" type="curve"/>
      <point x="514.0" y="178.0"/>
      <point x="472.0" y="355.0"/>
      <point x="430.0" y="533.0" type="curve"/>
    </contour>
    <contour>
      <point x="132.0" y="533.0"/>
      <point x="158.0" y="533.0"/>
      <point x="132.0" y="533.0" type="curve"/>
      <point x="175.0" y="355.0"/>
      <point x="218.0" y="178.0"/>
      <point x="260.0" y="0.0" type="curve"/>
      <point x="283.0" y="0.0"/>
      <point x="260.0" y="0.0"/>
      <point x="283.0" y="0.0" type="curve"/>
      <point x="241.0" y="178.0"/>
      <point x="200.0" y="355.0"/>
      <point x="158.0" y="533.0" type="curve"/>
    </contour>
  </outline>
</glyph>
